<svg width="18" height="13" viewBox="0 0 18 13" fill="none" xmlns="http://www.w3.org/2000/svg">
<path fill-rule="evenodd" clip-rule="evenodd" d="M16.9406 0.0473845C16.7858 0.102809 15.5643 1.27693 11.1424 5.6209L5.54036 11.1242L3.36747 8.99202C2.1724 7.81936 1.1317 6.83694 1.05482 6.80883C0.844588 6.73209 0.641215 6.74692 0.42612 6.85474C0.0861704 7.02512 -0.0696257 7.37508 0.0294042 7.74579C0.0784225 7.92904 0.37134 8.23544 2.55179 10.3839C3.90861 11.7208 5.10168 12.857 5.203 12.9087C5.4088 13.0138 5.61352 13.0281 5.82255 12.9519C6.01058 12.8833 17.8453 1.26844 17.9363 1.06318C18.2046 0.458046 17.5783 -0.18095 16.9406 0.0473845Z" fill="#81C688"/>
</svg>
