<svg width="692" height="372" viewBox="0 0 692 372" fill="none" xmlns="http://www.w3.org/2000/svg">
<path d="M228.71 120.31C224.93 109.063 221.243 97.4433 217.65 85.45C211.81 65.93 206.217 45.3833 200.87 23.81C184.11 16.55 167.443 8.61333 150.87 0C107.49 93.68 57.74 213.82 0 371.72C22.52 364.247 45.0334 357.037 67.54 350.09C78.3267 321.31 88.8133 293.893 99 267.84C136.28 262.36 173.613 256.72 211 250.92C217.793 269.007 224.853 286.063 232.18 302.09C255.94 295.463 279.693 288.893 303.44 282.38C286.84 256.49 271.31 227.12 256.84 193.74C250.887 180.127 245.117 165.837 239.53 150.87C235.85 140.983 232.243 130.78 228.71 120.26V120.31ZM129.59 192.02C142.63 160.38 155.153 130.89 167.16 103.55C174.51 135.29 182.38 164.76 190.76 192.18C170.333 192.367 149.943 192.297 129.59 191.97V192.02Z" fill="white"/>
<path d="M328.17 227.82C321.1 224.19 311.94 223.04 300.53 224.7C295.994 225.284 291.508 226.207 287.11 227.46C287.163 222.44 287.22 217.417 287.28 212.39C301.787 210.803 316.29 209.1 330.79 207.28C330.67 201.167 330.547 195.06 330.42 188.96C307.4 190.84 284.377 192.353 261.35 193.5C269.937 212.8 278.89 230.767 288.21 247.4C291.513 246.354 294.872 245.493 298.27 244.82C302.803 243.96 306.207 244.233 308.48 245.64C309.597 246.314 310.509 247.28 311.117 248.434C311.725 249.589 312.006 250.887 311.93 252.19C311.97 258.05 307.403 262.193 298.23 264.62C301.563 270.06 304.897 275.353 308.23 280.5C315.193 277.618 321.67 273.679 327.43 268.82C335.62 261.58 339.53 253.75 339.29 244.89C339.08 237.01 335.34 231.48 328.17 227.82Z" fill="white"/>
<path d="M424.29 248.82C399.577 255.82 374.86 262.727 350.14 269.54C349.18 242.207 348.227 214.873 347.28 187.54C369.947 185.54 392.57 183.143 415.15 180.35L416.74 195.12C402.647 197.36 388.55 199.48 374.45 201.48L375.26 214.96C387.853 212.78 400.437 210.52 413.01 208.18C413.51 213.167 414.013 218.167 414.52 223.18C401.773 226 389.013 228.757 376.24 231.45L377.08 245.37C392.28 241.683 407.48 237.937 422.68 234.13C423.22 238.997 423.757 243.893 424.29 248.82Z" fill="white"/>
<path d="M464.89 215.21C466.07 222.19 467.243 229.163 468.41 236.13C459.077 238.837 449.777 241.503 440.51 244.13C437.67 222.13 434.823 200.13 431.97 178.13C436.977 177.463 442.463 176.69 448.43 175.81L466.83 173.06C482.88 170.68 494.95 170.56 503.22 172.63C511.49 174.7 516.16 178.01 517.55 183.14C518.89 188.07 516.08 193.14 508.95 198.72C501.82 204.3 491.53 208.83 478.23 212.13C472.323 213.65 467.877 214.677 464.89 215.21ZM471.82 185.53L470.34 185.84C469.47 186.03 468.09 186.31 466.23 186.67C464.37 187.03 462.37 187.41 460.28 187.78L462.65 201.85C467.4 201.15 471.51 200.4 474.99 199.65C478.892 198.928 482.623 197.48 485.99 195.38C488.71 193.55 489.81 191.49 489.3 189.15C488.31 184.76 482.5 183.59 471.84 185.53H471.82Z" fill="white"/>
<path d="M270.14 97.4401C283.94 84.2801 297.31 72.4401 310.23 61.8201C300.75 59.2601 291.27 56.5134 281.79 53.5801C270.24 64.5101 258.33 76.5001 246.05 89.6901L247.91 42.2501C240.043 39.4101 232.18 36.4367 224.32 33.3301C223.38 51.0101 222.447 68.6768 221.52 86.3301C228.533 109.297 235.883 130.887 243.57 151.1H243.64C244.307 133.833 244.973 116.567 245.64 99.3001C256.512 117.944 268.536 135.892 281.64 153.04C292.42 153.453 303.203 153.743 313.99 153.91C297.942 136.243 283.282 117.364 270.14 97.4401Z" fill="white"/>
<path d="M426.16 84.42C428.58 101.82 431.007 119.22 433.44 136.62C424.593 136.873 415.737 137.033 406.87 137.1C404.95 118.38 403.033 99.6633 401.12 80.95C393.247 79.75 385.37 78.4167 377.49 76.95C378.93 96.95 380.373 116.967 381.82 137C372.94 136.887 364.057 136.687 355.17 136.4L352.32 71.96C344.42 70.2734 336.52 68.4567 328.62 66.51C329.227 95.7033 329.84 124.893 330.46 154.08C374.01 154.28 417.53 152.54 460.77 148.9L449.64 86.96C441.833 86.24 434.007 85.3933 426.16 84.42Z" fill="white"/>
<path d="M527.55 91.1199C520.71 91.0399 513.847 90.8933 506.96 90.6799C498.25 107.46 488.24 126.3 477.05 147.48C485.523 146.673 493.983 145.79 502.43 144.83C504.47 140.643 506.47 136.547 508.43 132.54C522.697 131.293 536.92 129.817 551.1 128.11C555.36 131.017 559.673 133.827 564.04 136.54C572.927 135.147 581.797 133.677 590.65 132.13C568.175 120.818 547.014 107.065 527.55 91.1199ZM514.3 120.55C516.813 115.397 519.223 110.397 521.53 105.55C526.95 110.17 532.46 114.59 538.06 118.81C530.16 119.483 522.24 120.063 514.3 120.55Z" fill="white"/>
<path d="M295.53 166.76C303.15 166.72 310.777 166.63 318.41 166.49C318.297 156.11 318.183 145.727 318.07 135.34C310.617 134.893 303.17 134.37 295.73 133.77C295.663 144.77 295.597 155.767 295.53 166.76Z" fill="white"/>
<path d="M524.84 164.26C524.84 164.26 625.84 164.41 628.3 121.48C628.3 121.48 639.22 148.79 639.89 173.48C639.89 173.48 613.61 222.15 545.34 223.28C545.34 223.28 546.53 186.92 524.84 164.26Z" fill="#FEDF03"/>
<path d="M596.4 194.82C596.4 194.82 654.9 177.17 667.22 142.01C667.22 142.01 686.93 165.15 691.87 179.43C691.87 179.43 672.93 213.7 620.35 239.38C620.35 239.4 620.43 200.33 596.4 194.82Z" fill="#FEDF03"/>
<path d="M492.84 253.53C492.84 253.53 557.95 246.78 600.73 218.53C600.73 218.53 609.82 243.33 608.83 269.53C608.83 269.53 552.44 309.61 502.29 310.28C502.31 310.3 509.3 278.59 492.84 253.53Z" fill="#FEDF03"/>
<path d="M581.2 180.47L579.6 174.39L603.13 168.21L604.72 174.29L596.2 176.53L602.06 198.84L595.57 200.54L589.72 178.23L581.2 180.47Z" fill="#7377B9"/>
<path d="M601.409 161.74L577.896 167.913L578.978 172.033L602.491 165.86L601.409 161.74Z" fill="#7377B9"/>
<path d="M545.26 266.98L543.39 261.14L565.99 253.9L567.86 259.75L559.67 262.37L566.53 283.8L560.3 285.8L553.44 264.37L545.26 266.98Z" fill="#7377B9"/>
<path d="M563.973 247.731L541.391 254.959L542.657 258.912L565.238 251.684L563.973 247.731Z" fill="#7377B9"/>
<path d="M642.2 193.39L639.47 189.19L655.71 178.62L658.44 182.82L652.56 186.65L662.56 202.05L658.08 204.96L648.08 189.56L642.2 193.39Z" fill="#7377B9"/>
<path d="M652.81 174.176L636.58 184.732L638.429 187.574L654.658 177.018L652.81 174.176Z" fill="#7377B9"/>
</svg>
