<svg width="71" height="45" viewBox="0 0 71 45" fill="none" xmlns="http://www.w3.org/2000/svg">
<path d="M26.9414 14.289C26.4973 12.9521 26.063 11.5737 25.6387 10.1486C24.9502 7.83122 24.2914 5.39396 23.6606 2.8285C21.6875 1.96613 19.721 1.02552 17.7694 0C12.6625 11.1309 6.80264 25.3999 0 44.1538C2.65336 43.2665 5.30507 42.4124 7.95513 41.585C9.2265 38.1655 10.4615 34.9125 11.6619 31.816C16.0539 31.1651 20.4525 30.5041 24.8561 29.8066C25.6552 31.9558 26.4874 33.9786 27.3493 35.8831C30.1479 35.0956 32.9466 34.3182 35.7436 33.5424C33.7903 30.4675 31.9575 26.9797 30.2503 23.0159C30.2519 23.0159 30.2536 23.0159 30.2552 23.0159C29.5552 21.3993 28.8749 19.7046 28.2161 17.9232C27.7835 16.7496 27.3575 15.5376 26.9414 14.289ZM15.2663 22.8061C16.8019 19.0486 18.2763 15.5542 19.6913 12.2995C20.5565 16.0686 21.4845 19.5697 22.4718 22.8244C20.0645 22.851 17.6621 22.8444 15.2663 22.8061Z" fill="#778CF1"/>
<path d="M38.6495 26.8919C37.8237 26.475 36.7522 26.343 35.4185 26.5329C34.7533 26.6295 34.229 26.7325 33.8489 26.85C33.8554 26.2738 33.862 25.6959 33.8685 25.1196C35.5643 24.9361 37.2601 24.7413 38.9543 24.5321C38.9395 23.8303 38.9248 23.13 38.91 22.4282C36.2197 22.6439 33.5277 22.8178 30.8374 22.9498C31.8418 25.1663 32.8887 27.2251 33.9767 29.139C34.3961 29.0102 34.7861 28.9136 35.1531 28.8444C35.6823 28.7446 36.0804 28.7784 36.3459 28.9394C36.6129 29.1003 36.7473 29.3482 36.7489 29.6911C36.7538 30.3639 36.2197 30.8388 35.1482 31.1173C35.5332 31.7418 35.9231 32.3503 36.3196 32.941C37.2208 32.5547 37.9679 32.1024 38.561 31.5889C39.5179 30.7583 39.9767 29.8585 39.9472 28.8412C39.9242 27.9446 39.4868 27.3088 38.6495 26.8919Z" fill="#778CF1"/>
<path d="M50.4612 29.7972C47.5375 30.6235 44.6138 31.4333 41.6884 32.2399C41.5756 29.0188 41.4629 25.796 41.3501 22.5749C44.03 22.3352 46.7067 22.0543 49.38 21.7271C49.443 22.3071 49.5043 22.8889 49.5673 23.469C47.9007 23.7334 46.2324 23.983 44.564 24.2177C44.5955 24.7482 44.627 25.277 44.6602 25.8076C46.1494 25.5497 47.6387 25.2837 49.1262 25.0077C49.1859 25.596 49.2456 26.1844 49.3053 26.7711C47.7962 27.1033 46.2871 27.4272 44.7763 27.7462C44.8095 28.2932 44.8426 28.8403 44.8758 29.3873C46.6751 28.9526 48.4745 28.5114 50.2722 28.0618C50.3352 28.6403 50.3982 29.2187 50.4612 29.7972Z" fill="#778CF1"/>
<path d="M55.1903 25.3947C55.3344 26.1997 55.4768 27.0031 55.6209 27.8081C54.4834 28.1201 53.3443 28.4288 52.2069 28.7359C51.8586 26.1997 51.5104 23.6634 51.1621 21.1288C51.7746 21.0528 52.4454 20.9639 53.1762 20.8605C53.919 20.7554 54.6704 20.6503 55.427 20.5436C57.3913 20.2688 58.8684 20.2559 59.8806 20.4935C60.8739 20.7247 61.4641 21.1142 61.6357 21.7059C61.7986 22.2733 61.4555 22.8617 60.584 23.5034C59.7108 24.1371 58.4516 24.6689 56.8235 25.0504C56.0995 25.2169 55.554 25.3316 55.1903 25.3947ZM56.0378 21.971C56.024 21.9726 55.964 21.9855 55.8576 22.0065C55.7495 22.0292 55.5814 22.0615 55.3532 22.1035C55.1251 22.1456 54.8815 22.1892 54.6258 22.2312C54.7219 22.7711 54.818 23.3127 54.9158 23.8526C55.4974 23.7717 56.0017 23.6861 56.4255 23.5988C56.9882 23.484 57.4359 23.3175 57.767 23.1074C58.0999 22.8972 58.2337 22.658 58.1719 22.388C58.0553 21.8837 57.3433 21.7479 56.0378 21.971Z" fill="#778CF1"/>
<path d="M31.8213 11.6552C33.4946 10.1257 35.1153 8.75408 36.6815 7.51608C35.5315 7.21798 34.3831 6.8987 33.233 6.55825C31.8332 7.82883 30.3892 9.22321 28.9028 10.7544C28.9776 8.91697 29.054 7.07952 29.1287 5.24207C28.174 4.91302 27.221 4.56768 26.2697 4.20605C26.1576 6.26016 26.0438 8.31426 25.9316 10.3684C26.781 13.0382 27.6729 15.5435 28.6038 17.8957C28.6072 17.8957 28.6089 17.8957 28.6123 17.8957C28.6939 15.8889 28.7771 13.882 28.8586 11.8768C30.2601 14.1671 31.716 16.2407 33.2245 18.1221C34.5309 18.1694 35.8389 18.2036 37.1453 18.2231C35.3004 16.2896 33.5252 14.1117 31.8213 11.6552Z" fill="#778CF1"/>
<path d="M50.6318 9.85356C50.9148 11.9416 51.1977 14.0314 51.4807 16.1194C50.4486 16.1497 49.4149 16.1682 48.3812 16.1767C48.1572 13.9304 47.9331 11.6842 47.709 9.43796C46.7914 9.29326 45.8722 9.1351 44.9514 8.96179C45.1199 11.3645 45.2883 13.7672 45.4568 16.1699C44.4198 16.1565 43.3845 16.1329 42.3459 16.0976C42.2347 13.5199 42.1251 10.9405 42.0138 8.36279C41.093 8.1592 40.1705 7.94216 39.248 7.70996C39.32 11.2131 39.392 14.7162 39.4623 18.221C44.5441 18.2445 49.6227 18.0359 54.6668 17.6001C54.2334 15.1217 53.8016 12.6433 53.3682 10.1648C52.4604 10.0723 51.5478 9.96965 50.6318 9.85356Z" fill="#778CF1"/>
<path d="M62.6899 10.5673C61.888 10.5586 61.0828 10.5413 60.2761 10.5137C59.2556 12.5841 58.0824 14.9087 56.7695 17.5222C57.762 17.4219 58.7545 17.3129 59.7453 17.1953C59.9852 16.6781 60.2185 16.1731 60.4469 15.6784C62.1213 15.5245 63.7891 15.3429 65.4504 15.1318C65.9499 15.4916 66.456 15.8393 66.967 16.1731C68.0088 16.0019 69.0489 15.8202 70.0858 15.6283C67.4748 14.2463 65.0149 12.5685 62.6899 10.5673ZM61.1354 14.1996C61.4296 13.5648 61.7122 12.949 61.9833 12.354C62.6192 12.9231 63.2633 13.4696 63.9206 13.9903C62.9955 14.0698 62.0671 14.139 61.1354 14.1996Z" fill="#778CF1"/>
<path d="M35.043 19.6239C35.9769 19.6194 36.9125 19.6105 37.8464 19.5956C37.8327 18.492 37.8189 17.39 37.8052 16.2864C36.8936 16.2373 35.9803 16.1822 35.0687 16.1196C35.0584 17.2887 35.0516 18.4563 35.043 19.6239Z" fill="#778CF1"/>
</svg>
