<svg width="80" height="80" viewBox="0 0 80 80" fill="none" xmlns="http://www.w3.org/2000/svg">
  <rect x="14.1064" y="22" width="52" height="32" rx="3" fill="#786BC1"/>
  <rect x="21.1064" y="33" width="6" height="6" rx="1" fill="white"/>
  <rect x="31.1064" y="31" width="12" height="1" fill="white"/>
  <rect x="31.1064" y="33" width="12" height="1" fill="white"/>
  <rect x="31.1064" y="35" width="12" height="1" fill="white"/>
  <rect x="31.1064" y="39" width="7" height="1" fill="white"/>
  <rect x="42.1064" y="39" width="6" height="1" fill="white"/>
  <rect x="48.1064" y="25" width="12" height="4" fill="white"/>
  <rect x="20.1064" y="25" width="15" height="4" fill="white"/>
  <rect x="38.1064" y="25" width="5" height="4" fill="white"/>
  <rect x="20.1064" y="44" width="41" height="1" fill="white"/>
  <rect x="20.1064" y="46" width="41" height="1" fill="white"/>
  <rect x="20.1064" y="48" width="41" height="2" fill="white"/>
  <path d="M54.1472 6.19956L54.0294 6.42004C53.4122 6.09016 52.9169 5.59308 52.6282 5.00234C52.2758 4.28123 52.2627 3.28968 52.5914 2.54296C52.9719 1.67871 53.8366 1.01053 54.8085 0.809654L54.1472 6.19956ZM54.1472 6.19956L54.0294 6.42004L54.4022 6.61929L54.4567 6.64842M54.1472 6.19956L54.4567 6.64842M54.4567 6.64842L54.5185 6.6488M54.4567 6.64842L54.5185 6.6488M54.5185 6.6488L61.8965 6.69442C65.3136 6.71555 67.1638 6.72988 68.2154 6.75717C69.2755 6.78468 69.4945 6.82582 69.6749 6.88559C71.3093 7.42745 72.4641 8.55355 73.062 10.1919L73.2796 10.7885L73.3228 18.1312L73.3662 25.5173L73.3665 25.5704M54.5185 6.6488L73.3665 25.5704M73.3665 25.5704L73.3884 25.6188M73.3665 25.5704L73.3884 25.6188M73.3884 25.6188L73.5884 26.0613L73.8162 25.9583M73.3884 25.6188L73.8162 25.9583M73.8162 25.9583L73.5884 26.0613C73.73 26.3745 73.9725 26.6956 74.2467 26.9681C74.5207 27.2406 74.8426 27.4804 75.1553 27.6184L75.1554 27.6185M73.8162 25.9583L75.1554 27.6185M75.1554 27.6185C75.5072 27.7736 75.8325 27.8272 76.3242 27.8272C77.5297 27.8272 78.4716 27.2213 79.0257 26.1078L78.8019 25.9964M75.1554 27.6185L78.8019 25.9964M78.8019 25.9964L79.0257 26.1078L79.2216 25.7141L79.2478 25.6615M78.8019 25.9964L79.2478 25.6615M79.2478 25.6615V25.6027M79.2478 25.6615V25.6027M79.2478 25.6027V18.0863M79.2478 25.6027V18.0863M79.2478 18.0863C79.2478 14.6497 79.2445 12.7515 79.2234 11.6254M79.2478 18.0863L79.2234 11.6254M79.2234 11.6254C79.2023 10.4996 79.1634 10.1297 79.0877 9.75743M79.2234 11.6254L79.0877 9.75743M79.0877 9.75743C78.4083 6.41736 76.3154 3.58096 73.3822 2.03516M79.0877 9.75743L73.3822 2.03516M73.3822 2.03516C72.4293 1.5329 71.5958 1.23365 70.4161 0.967618M73.3822 2.03516L70.4161 0.967618M70.4161 0.967618C69.5798 0.779003 69.3143 0.774775 62.3763 0.753293M70.4161 0.967618L62.3763 0.753293M62.3763 0.753293C60.4064 0.747165 58.5753 0.749858 57.2119 0.759141M62.3763 0.753293L57.2119 0.759141M57.2119 0.759141C56.5304 0.763782 55.965 0.770074 55.5574 0.777751M57.2119 0.759141L55.5574 0.777751M55.5574 0.777751C55.3538 0.781587 55.1885 0.785788 55.0673 0.790347M55.5574 0.777751L55.0673 0.790347M55.0673 0.790347C55.0068 0.792622 54.956 0.795037 54.9162 0.797638M55.0673 0.790347L54.9162 0.797638M54.9162 0.797638C54.8826 0.799831 54.8406 0.803025 54.8086 0.809646L54.9162 0.797638ZM9.85503 0.980262L9.90448 1.22503L9.85503 0.980262C7.66906 1.42195 5.87497 2.36829 4.25637 3.93265C2.57065 5.56187 1.5854 7.38249 1.01228 9.90616C0.983233 10.034 0.96333 10.2313 0.947773 10.5342C0.931974 10.8417 0.920097 11.2731 0.911231 11.8785C0.893492 13.0896 0.887681 15.007 0.887681 18.0428C0.887681 21.7923 0.888009 23.6872 0.911118 24.6928C0.922626 25.1935 0.939923 25.4858 0.96794 25.6803C0.998111 25.8898 1.0418 25.9911 1.09355 26.1031C2.05051 28.1735 4.80364 28.4818 6.13311 26.6438C6.13983 26.6345 6.14653 26.6253 6.15321 26.6161C6.28052 26.4404 6.39777 26.2787 6.48403 26.0326C6.57258 25.7801 6.62512 25.451 6.65923 24.9276C6.72596 23.9038 6.72595 22.0493 6.72592 18.3728L6.72592 18.1297C6.72592 17.8836 6.7259 17.6456 6.72588 17.4156C6.72559 14.029 6.72545 12.351 6.79086 11.3844C6.82553 10.872 6.87785 10.5758 6.95261 10.3384C7.01869 10.1286 7.10355 9.95846 7.22723 9.71056C7.24559 9.67376 7.2648 9.63525 7.28493 9.59465L7.28495 9.59462C7.50653 9.14757 7.75893 8.8104 8.25689 8.31224L8.2569 8.31223C8.97431 7.59446 9.52556 7.25465 10.5044 6.92829L10.5044 6.92828L11.0743 6.73824L18.3691 6.69364C21.9755 6.67158 23.8148 6.65963 24.7997 6.63069C25.2903 6.61628 25.5805 6.59743 25.7748 6.56886C25.9829 6.53828 26.0863 6.49557 26.1985 6.44326L26.1985 6.44325C28.3599 5.43535 28.4674 2.29585 26.3808 1.14018C26.3808 1.14017 26.3808 1.14017 26.3808 1.14017L25.9102 0.87949L25.8539 0.848313L25.7895 0.848182L18.2379 0.832889C14.7446 0.825766 12.8392 0.824835 11.717 0.844015C10.5939 0.863209 10.2395 0.90259 9.85503 0.980262ZM0.938781 54.5229L0.938774 54.5229C0.924515 54.5812 0.915956 54.6687 0.909182 54.7668C0.901932 54.8718 0.895582 55.0098 0.89001 55.1814C0.878857 55.5248 0.870596 56.01 0.865058 56.6487C0.853976 57.9266 0.853744 59.8253 0.863466 62.4473L0.891068 69.9203L0.891189 69.9529L0.899645 69.9843L1.17203 70.9971C2.30883 75.2242 5.74336 78.3642 10.0534 79.1167C10.385 79.1746 10.8957 79.2068 12.0686 79.2257C13.2471 79.2446 15.1101 79.25 18.1587 79.25C21.7205 79.25 23.5575 79.2489 24.5602 79.2263C25.5609 79.2038 25.7634 79.1603 26.0342 79.0589C26.6617 78.8239 27.3183 78.2037 27.6268 77.5684C27.7914 77.2294 27.8655 76.7589 27.8669 76.3118C27.8684 75.865 27.7974 75.3957 27.6341 75.0598C27.3607 74.4975 26.7729 73.9052 26.2138 73.6295L25.8128 73.4317L25.7613 73.4063L25.7038 73.4059L18.3692 73.36C18.0492 73.358 17.7425 73.3561 17.4486 73.3543C14.0241 73.3332 12.3258 73.3228 11.3583 73.2565C10.8361 73.2207 10.5442 73.1695 10.3162 73.0977C10.1226 73.0367 9.96995 72.9601 9.74676 72.848C9.70318 72.8261 9.6569 72.8029 9.60709 72.7781L9.49588 73.002L9.60708 72.7781C8.53574 72.246 7.78517 71.528 7.27797 70.5617C7.25937 70.5263 7.24159 70.4926 7.22457 70.4604C7.10009 70.2246 7.01612 70.0655 6.95071 69.8642C6.87728 69.6383 6.82536 69.3505 6.79086 68.8458C6.72552 67.8901 6.72564 66.2187 6.72588 62.8444C6.7259 62.631 6.72592 62.4108 6.72592 62.1835C6.72592 59.9162 6.71795 58.1525 6.70226 56.9128C6.69442 56.2931 6.68464 55.8031 6.6729 55.4462C6.66149 55.0989 6.64786 54.8565 6.62842 54.7493L6.38243 54.7939L6.62842 54.7493C6.36547 53.299 5.1823 52.3259 3.70222 52.3376C3.41831 52.3398 3.02256 52.3967 2.80682 52.4738C1.92412 52.7889 1.15857 53.6256 0.938781 54.5229ZM54.5185 73.4059L54.4573 73.4063L54.4032 73.4349L53.9638 73.6671C52.946 74.2048 52.3714 75.1537 52.3659 76.3056C52.3615 77.2072 52.6783 77.9089 53.3615 78.5238C53.3938 78.5529 53.4253 78.5823 53.4569 78.6117C53.5964 78.7417 53.7358 78.8717 53.9324 78.9662C54.176 79.0833 54.497 79.1463 55.0285 79.1846C55.9852 79.2535 57.735 79.2467 61.2028 79.2333C61.59 79.2318 61.9986 79.2302 62.4299 79.2286L70.0582 79.2009L70.0903 79.2008L70.1213 79.1926L70.9893 78.9627C73.6849 78.249 75.9005 76.6958 77.4274 74.4449L77.2205 74.3045L77.4274 74.4448C77.9342 73.6976 78.6158 72.2459 78.8459 71.4203L78.6051 71.3532L78.8459 71.4203C79.2768 69.8745 79.2901 69.4935 79.2907 61.9501C79.2909 58.4274 79.2907 56.647 79.2673 55.6864C79.2556 55.2073 79.2379 54.9212 79.2096 54.7208C79.1798 54.5102 79.1381 54.3947 79.0891 54.2635L78.8549 54.351L79.0891 54.2635C78.8418 53.6021 78.2465 52.9364 77.62 52.6232C77.325 52.4757 76.9001 52.3895 76.4998 52.3603C76.102 52.3314 75.6769 52.3549 75.3845 52.4644C74.4442 52.8164 73.7889 53.4867 73.5054 54.4056C73.4123 54.7073 73.3691 54.9436 73.3468 55.931C73.3244 56.9175 73.3227 58.6795 73.3227 62.0463C73.3227 62.3005 73.3228 62.546 73.3228 62.7832C73.3231 66.1782 73.3232 67.8607 73.2586 68.8306C73.2243 69.3457 73.1724 69.6439 73.0982 69.8836C73.0328 70.0944 72.9489 70.266 72.8272 70.515C72.8085 70.5533 72.7889 70.5934 72.7683 70.6357C72.3733 71.4489 71.5235 72.3137 70.7258 72.7158C70.6407 72.7587 70.5654 72.7976 70.4966 72.8331C70.2864 72.9417 70.1377 73.0184 69.959 73.0809C69.7304 73.1607 69.4489 73.2166 68.9378 73.255C68.0279 73.3232 66.4485 73.3326 63.2624 73.3516C62.8366 73.3541 62.382 73.3568 61.8965 73.3599L54.5185 73.4059Z" fill="#786BC1" stroke="#786BC1" stroke-width="0.5"/>
</svg>
