<svg width="57" height="78" viewBox="0 0 57 78" fill="none" xmlns="http://www.w3.org/2000/svg">
<path fill-rule="evenodd" clip-rule="evenodd" d="M14.2707 0.258772C12.5802 0.714889 11.0429 1.92739 10.2985 3.39147C9.55215 4.85935 9.55306 4.84185 9.55306 18.6171V31.5214L8.30181 31.5232C6.16527 31.5262 4.73201 32.0772 3.41312 33.4023C1.58901 35.2351 1.08047 37.9323 2.0789 40.4784L2.45807 41.4454L1.78315 42.1525C0.939119 43.0368 0.500042 43.8053 0.218093 44.8915C-0.370225 47.1579 0.251308 49.5461 1.84594 51.1462L2.46156 51.764L2.12485 52.5494C0.728606 55.8062 2.02597 59.4711 5.11786 61.0044C6.19439 61.5383 6.37776 61.5798 7.89519 61.6319L9.52 61.6877L9.68987 62.5466C10.0411 64.3237 11.1384 65.9547 12.5351 66.7761C13.0669 67.0887 13.199 67.2582 13.2688 67.7165C13.8835 71.7558 14.8722 74.7174 16.2158 76.5436C17.2502 77.9497 19.079 77.9507 19.803 76.5457C20.2353 75.707 20.1382 75.1804 19.2124 73.3422C18.3696 71.6689 17.5914 69.1905 17.5914 68.1799V67.7428H26.1705H34.7494L35.1286 68.195C35.9145 69.1323 37.3472 69.0955 38.2044 68.1158C38.8882 67.3342 38.8559 66.519 38.0847 65.0982C37.2562 63.5722 36.9546 62.5371 36.963 61.2473C36.9795 58.6718 38.1639 56.1692 40.7313 53.2847C42.137 51.7055 42.6843 50.5122 42.6866 49.0224C42.6881 48.0797 42.6158 47.734 42.2725 47.0439C41.6404 45.7727 40.3846 44.5546 38.9765 43.847C37.3763 43.0427 36.5603 42.0006 36.5532 40.7518C36.5483 39.899 37.2548 39.2323 38.4508 38.9608C39.7931 38.6561 42.5334 38.727 44.5674 39.1189C47.6493 39.7129 49.7992 40.7031 51.1474 42.1493C53.0124 44.1502 53.1811 45.7413 52.1748 51.8492C50.3554 62.8934 48.156 68.1286 43.2726 73.0389C41.366 74.9561 41.0733 75.4909 41.3952 76.4693C41.7444 77.5313 42.9599 78.1508 44.0111 77.8028C44.6443 77.5931 46.6785 75.7255 47.9825 74.1568C51.4279 70.0115 53.6757 65.1044 55.1954 58.4094C55.8939 55.3315 56.8705 49.3448 56.9758 47.495C57.1817 43.8736 56.0755 40.9907 53.6022 38.704C52.4242 37.6148 50.293 36.3746 48.7246 35.8657L47.9319 35.6085L47.8905 20.2101L47.8491 4.81187L47.366 3.78869C46.4969 1.94779 45.074 0.756132 43.1421 0.251163C41.843 -0.0883751 15.5313 -0.0815265 14.2707 0.258772ZM42.9883 4.74962C43.6113 5.29857 43.8655 6.07125 43.7997 7.21572L43.754 8.00788L28.7769 8.04669L13.7997 8.08549V6.77315V5.46096L14.3885 4.87001L14.9774 4.2792H28.7159H42.4542L42.9883 4.74962ZM43.7929 23.4761L43.8318 34.6828L41.5907 34.6032C38.0133 34.4759 35.7706 35.0883 34.1121 36.6449C30.9762 39.5883 32.1762 44.9014 36.5089 47.2575C37.8046 47.9621 38.5215 48.622 38.5215 49.1104C38.5215 49.3329 38.1516 49.8808 37.532 50.5761C36.4667 51.7716 34.972 53.8744 34.4436 54.9207L34.1169 55.5675H23.9584H13.7997V33.8796V12.1916L28.7769 12.2304L43.754 12.2692L43.7929 23.4761ZM21.1556 16.6048C20.2907 17.1759 20.1698 17.6305 20.1698 20.3099C20.1698 22.2501 20.2195 22.8296 20.4231 23.26C20.7622 23.9771 21.4345 24.3672 22.3333 24.3678C22.9379 24.3682 23.1437 24.2876 23.5926 23.8738C24.1934 23.32 24.4072 22.6494 24.4128 21.3016L24.4165 20.4417L25.7933 20.3885C27.1636 20.3356 27.1724 20.3328 27.6891 19.7669C27.9975 19.429 28.215 19.0276 28.225 18.7777C28.2723 17.5919 28.0462 17.0859 27.252 16.6C26.8216 16.3367 26.4781 16.3035 24.189 16.3038C21.8769 16.3043 21.5636 16.3353 21.1556 16.6048ZM30.2252 16.6006C29.3638 17.1275 28.9998 18.4296 29.4617 19.3315C29.8401 20.0704 30.4067 20.3297 31.8204 20.4114L33.1373 20.4875L33.2132 21.7812C33.2549 22.4926 33.3786 23.2326 33.4883 23.4254C33.992 24.3116 35.4295 24.6352 36.3528 24.0701C37.2088 23.5464 37.3082 23.1545 37.3076 20.3049C37.3071 18.0376 37.2736 17.693 37.0109 17.2609C36.489 16.402 36.0985 16.3023 33.2587 16.3029C30.9991 16.3033 30.6557 16.337 30.2252 16.6006ZM27.4437 22.436C25.6366 23.3948 25.6597 26.1915 27.4824 27.1244C27.9673 27.3728 28.3044 27.4308 28.9777 27.3819C30.4586 27.2745 31.3932 26.2592 31.3932 24.7579C31.3932 22.6884 29.2939 21.4542 27.4437 22.436ZM21.2408 25.4074C20.3126 25.9069 20.1698 26.4029 20.1698 29.127C20.1698 33.0748 20.2908 33.1941 24.2974 33.1949L26.9842 33.1955L27.5167 32.7264C28.1387 32.1784 28.3819 31.4578 28.2074 30.6807C27.9547 29.5567 27.1804 29.0863 25.5829 29.0863H24.4592L24.3787 27.7916C24.2895 26.358 24.0826 25.9007 23.3087 25.427C22.7003 25.0548 21.91 25.0473 21.2408 25.4074ZM34.1685 25.4277C33.4384 25.8743 33.2132 26.4479 33.2132 27.8612V29.0863L31.9619 29.0869C30.9885 29.0874 30.6028 29.1534 30.2252 29.3846C29.5965 29.7692 29.2698 30.42 29.2698 31.2878C29.2698 31.8664 29.3566 32.0775 29.7887 32.5509L30.3075 33.1194L33.0387 33.1669C36.0932 33.2201 36.4667 33.1326 37.0109 32.2368C37.2739 31.8041 37.3071 31.4607 37.3071 29.1624C37.3071 26.8642 37.2739 26.5207 37.0109 26.088C36.4419 25.1511 35.1214 24.8445 34.1685 25.4277ZM9.40139 37.9134V40.1963L8.60514 40.1953C6.80409 40.1935 5.90926 39.5485 5.79535 38.17C5.65536 36.4756 6.53367 35.6867 8.60514 35.6461L9.40139 35.6305V37.9134ZM8.15423 44.4053L9.40943 44.5034L9.36757 46.6492L9.32556 48.795L7.73306 48.839C5.7902 48.8927 5.02716 48.6597 4.53652 47.8633C4.12201 47.1902 4.09532 46.004 4.48116 45.409C5.13879 44.3951 5.78004 44.2199 8.15423 44.4053ZM9.36757 55.3214L9.40974 57.5867L8.27709 57.5136C7.57153 57.4683 6.99535 57.3427 6.74904 57.1808C5.5498 56.3923 5.42043 54.5113 6.49803 53.5327C6.89722 53.1701 7.60732 52.9978 8.56723 53.0305L9.32556 53.0564L9.36757 55.3214ZM32.7582 60.8729C32.7582 61.531 32.8015 62.3871 32.8546 62.7753L32.9511 63.4815H23.9642H14.9774L14.3885 62.8907L13.7997 62.2997V60.9883V59.6767H23.279H32.7582V60.8729Z" fill="#786BC1"/>
<path d="M44.6499 77.4249H18.5249L16.6249 66.4999L26.1249 65.5499C28.4999 66.4999 33.8199 68.2099 36.0999 67.4499C38.9499 66.4999 36.0999 62.2249 36.0999 58.8999C36.0999 55.5749 38.9499 54.6249 40.8499 52.2499C42.7499 49.8749 39.8999 47.9749 37.0499 46.0749C34.1999 44.1749 35.6249 39.4249 37.0499 37.5249C38.4749 35.6249 46.5499 38.4749 50.8249 39.4249C55.0999 40.3749 54.6249 50.8249 54.1499 55.5749C53.7699 59.3749 47.6582 71.7249 44.6499 77.4249Z" fill="#786BC1"/>
<circle cx="8.55007" cy="37.9999" r="2.85" fill="#786BC1"/>
<ellipse cx="7.12517" cy="46.55" rx="3.325" ry="3.8" fill="#786BC1"/>
<ellipse cx="8.075" cy="55.0998" rx="3.325" ry="3.8" fill="#786BC1"/>
</svg>
