<svg width="95" height="65" viewBox="0 0 95 65" fill="none" xmlns="http://www.w3.org/2000/svg">
<path fill-rule="evenodd" clip-rule="evenodd" d="M44.0142 0.138754C42.6425 0.37227 40.0146 1.14856 37.8855 1.94935C34.9039 3.07081 28.7322 5.80781 27.7337 6.45152C25.3031 8.01873 18.2042 19.3427 10.324 34.2239C7.87927 38.8408 -0.108656 54.9255 0.00112042 55.0106C0.184081 55.1524 18.1564 64.3029 18.1767 64.2646C18.5547 63.5506 20.5662 61.1189 21.7346 59.9634C25.166 56.57 28.5116 54.7568 36.4836 51.9705C42.2789 49.9447 43.1543 49.5112 48.8096 45.8648C50.8818 44.5287 53.551 42.8279 54.7409 42.0855C57.7854 40.1859 59.5341 38.3978 59.1157 37.6123C58.7769 36.9762 57.3351 35.8265 56.2644 35.3387C53.2374 33.9598 50.2291 34.0466 45.3372 35.6534C43.053 36.4039 42.8149 36.4479 40.973 36.4614C39.1342 36.4748 38.9689 36.4473 38.0312 35.97C36.4765 35.1784 35.4558 33.7031 34.9398 31.5009C34.7201 30.5639 34.6859 29.6801 34.7567 26.7742C34.8946 21.1147 35.4121 18.9889 37.1457 16.9611C39.1886 14.5711 42.6286 11.3863 44.4458 10.2022C45.1023 9.77435 45.2342 9.75699 48.681 9.64364C53.7997 9.47548 56.188 8.83603 58.1326 7.11292C59.1115 6.24574 59.6078 5.32887 59.6078 4.38834C59.6078 3.47231 59.3675 3.05515 58.6714 2.76292C58.3576 2.63118 55.5495 1.94833 52.4312 1.24557C46.7091 -0.0442112 45.7952 -0.164374 44.0142 0.138754Z" fill="#786BC1"/>
<rect x="51.2255" y="8.38232" width="43.7745" height="27.0098" rx="3" fill="#786BC1"/>
<rect x="56.814" y="17.6963" width="5.58824" height="4.65686" rx="1" fill="white"/>
<rect x="65.1963" y="15.8335" width="10.2451" height="0.931373" fill="white"/>
<rect x="65.1963" y="17.6963" width="10.2451" height="0.931373" fill="white"/>
<rect x="65.1963" y="19.5586" width="10.2451" height="0.931373" fill="white"/>
<rect x="65.1963" y="22.353" width="6.51961" height="0.931373" fill="white"/>
<rect x="74.5098" y="22.353" width="5.58824" height="0.931373" fill="white"/>
<rect x="80.0981" y="11.1763" width="10.2451" height="2.79412" fill="white"/>
<rect x="55.8823" y="11.1763" width="13.0392" height="2.79412" fill="white"/>
<rect x="71.7158" y="11.1763" width="3.72549" height="2.79412" fill="white"/>
<rect x="55.8823" y="27.0098" width="35.3922" height="0.931373" fill="white"/>
<rect x="55.8823" y="28.8726" width="35.3922" height="0.931373" fill="white"/>
<rect x="55.8823" y="30.7354" width="35.3922" height="0.931373" fill="white"/>
</svg>
