<svg width="60" height="65" viewBox="0 0 60 65" fill="none" xmlns="http://www.w3.org/2000/svg">
<path fill-rule="evenodd" clip-rule="evenodd" d="M27.4793 8.16114C21.4692 9.05662 17.1655 13.1209 15.5324 19.4432C14.6536 22.8457 14.6325 27.357 15.4752 31.6834C16.35 36.1745 18.4444 41.0386 20.73 43.8869C20.9369 44.1448 21.0629 44.3697 21.0101 44.3867C20.9571 44.4036 16.8514 45.6921 11.8862 47.25C6.92109 48.8078 2.58422 50.2176 2.24867 50.3827C1.47582 50.7629 0.662871 51.6677 0.315486 52.5341C0.0564999 53.1798 0.0443068 53.3594 0.00819654 57.0394C-0.0168931 59.6017 0.0155827 61.1069 0.106093 61.5799C0.370941 62.9647 1.23911 64.0704 2.54506 64.6863L3.2104 65H30H56.7896L57.4549 64.6863C58.7609 64.0704 59.6291 62.9647 59.8939 61.5799C59.9844 61.1069 60.0169 59.6017 59.9918 57.0394C59.9557 53.3594 59.9435 53.1798 59.6845 52.5341C59.3371 51.6677 58.5242 50.7629 57.7513 50.3827C57.4158 50.2176 53.0789 48.8078 48.1138 47.25C43.1486 45.6921 39.0429 44.4036 38.9899 44.3867C38.9371 44.3697 39.0632 44.1448 39.2703 43.8869C41.5372 41.0637 43.6622 36.1289 44.5252 31.6834C45.1472 28.4798 45.3138 24.5681 44.9423 21.8885C43.8707 14.1602 39.2915 9.14365 32.4034 8.1517C30.974 7.94591 28.8972 7.94992 27.4793 8.16114Z" fill="#786BC1"/>
<path d="M29.5 52.5C40.8853 52.5 49.5 40.6969 49.5 27C49.5 13.3031 40.8853 1.5 29.5 1.5C18.1147 1.5 9.5 13.3031 9.5 27C9.5 40.6969 18.1147 52.5 29.5 52.5Z" stroke="#4FE355" stroke-width="3"/>
</svg>
