<svg width="21" height="20" viewBox="0 0 21 20" fill="none" xmlns="http://www.w3.org/2000/svg">
<path d="M2.625 3.5V0.875H4.375V3.5H7V5.25H4.375V7.875H2.625V5.25H0V3.5H2.625ZM5.25 8.75V6.125H7.875V3.5H14L15.6012 5.25H18.375C19.3375 5.25 20.125 6.0375 20.125 7V17.5C20.125 18.4625 19.3375 19.25 18.375 19.25H4.375C3.4125 19.25 2.625 18.4625 2.625 17.5V8.75H5.25ZM11.375 16.625C13.79 16.625 15.75 14.665 15.75 12.25C15.75 9.835 13.79 7.875 11.375 7.875C8.96 7.875 7 9.835 7 12.25C7 14.665 8.96 16.625 11.375 16.625ZM8.575 12.25C8.575 13.7987 9.82625 15.05 11.375 15.05C12.9237 15.05 14.175 13.7987 14.175 12.25C14.175 10.7013 12.9237 9.45 11.375 9.45C9.82625 9.45 8.575 10.7013 8.575 12.25Z" fill="#322443"/>
</svg>
