<svg width="26" height="20" viewBox="0 0 26 20" fill="none" xmlns="http://www.w3.org/2000/svg">
<path d="M23.875 12C23.875 12 19.8977 5 12.9375 5C5.97727 5 2 12 2 12C2 12 5.97727 19 12.9375 19C19.8977 19 23.875 12 23.875 12Z" stroke="#D3D3E6" stroke-width="2" stroke-linecap="round" stroke-linejoin="round"/>
<path d="M12.9375 15C11.2116 15 9.8125 13.6569 9.8125 12C9.8125 10.3431 11.2116 9 12.9375 9C14.6634 9 16.0625 10.3431 16.0625 12C16.0625 13.6569 14.6634 15 12.9375 15Z" fill="#D3D3E6"/>
<line x1="1.5" y1="-1.5" x2="4.5" y2="-1.5" transform="matrix(5.09966e-08 1 1 -5.09966e-08 13.9785 0)" stroke="#D3D3E6" stroke-width="3" stroke-linecap="round"/>
<line x1="1.5" y1="-1.5" x2="5.00854" y2="-1.5" transform="matrix(0.640185 0.768221 0.793096 -0.609097 2.52148 3)" stroke="#D3D3E6" stroke-width="3" stroke-linecap="round"/>
<line x1="1.5" y1="-1.5" x2="5.00854" y2="-1.5" transform="matrix(-0.640184 0.768221 -0.793095 -0.609097 23.3965 3)" stroke="#D3D3E6" stroke-width="3" stroke-linecap="round"/>
</svg>
