<svg width="18" height="13" viewBox="0 0 18 13" fill="none" xmlns="http://www.w3.org/2000/svg">
<path fill-rule="evenodd" clip-rule="evenodd" d="M16.9406 0.0471404C16.7858 0.102565 15.5643 1.27668 11.1424 5.62066L5.54036 11.1239L3.36747 8.99177C2.1724 7.81912 1.1317 6.83669 1.05482 6.80859C0.844588 6.73184 0.641215 6.74668 0.42612 6.8545C0.0861704 7.02487 -0.0696257 7.37484 0.0294042 7.74554C0.0784225 7.9288 0.37134 8.2352 2.55179 10.3836C3.90861 11.7206 5.10168 12.8567 5.203 12.9085C5.4088 13.0136 5.61352 13.0278 5.82255 12.9516C6.01058 12.883 17.8453 1.2682 17.9363 1.06294C18.2046 0.457801 17.5783 -0.181195 16.9406 0.0471404Z" fill="#81C688"/>
</svg>
