<svg width="229" height="348" viewBox="0 0 229 348" fill="none" xmlns="http://www.w3.org/2000/svg">
<path d="M284.778 40.6895L128.102 112.451C135.135 109.229 143.959 108.674 154.164 110.859C159.243 111.991 164.208 113.584 168.997 115.62C178.869 119.738 189.277 125.836 199.388 133.5L356.064 61.7369C345.962 54.0801 335.562 47.9801 325.678 43.8658C320.885 41.8285 315.915 40.2338 310.83 39.1018C300.631 36.905 291.815 37.4734 284.778 40.6895Z" fill="#A2A2C9" fill-opacity="0.06"/>
<path d="M284.779 40.6888L128.102 112.45C135.136 109.228 143.96 108.673 154.165 110.859C156.2 111.295 158.281 111.84 160.408 112.495L317.083 40.7322C314.96 40.0821 312.879 39.5366 310.841 39.0956C300.632 36.9043 291.812 37.4671 284.779 40.6888Z" fill="#A2A2C9" fill-opacity="0.06"/>
<path d="M317.082 40.7327L160.406 112.496C163.206 113.352 166.069 114.394 168.996 115.619L169.059 115.645L325.735 43.882L325.672 43.8562C322.757 42.6387 319.893 41.5976 317.082 40.7327Z" fill="#A2A2C9" fill-opacity="0.06"/>
<path d="M325.735 43.8812L169.059 115.644C171.527 116.675 174.021 117.827 176.544 119.1L333.219 47.3365C330.701 46.0667 328.206 44.915 325.735 43.8812Z" fill="#A2A2C9" fill-opacity="0.06"/>
<path d="M333.221 47.3377L176.545 119.101C178.796 120.236 181.06 121.463 183.338 122.782L340.014 51.0194C337.739 49.7022 335.474 48.475 333.221 47.3377Z" fill="#A2A2C9" fill-opacity="0.06"/>
<path d="M340.013 51.019L183.337 122.782C185.421 123.991 187.51 125.273 189.601 126.626L346.278 54.8644C344.189 53.51 342.1 52.2282 340.013 51.019Z" fill="#A2A2C9" fill-opacity="0.06"/>
<path d="M346.278 54.8637L189.601 126.625C191.538 127.881 193.47 129.196 195.398 130.572L352.073 58.8093C350.148 57.4423 348.216 56.1271 346.278 54.8637Z" fill="#A2A2C9" fill-opacity="0.06"/>
<path d="M352.079 58.8068L195.403 130.57C196.734 131.517 198.059 132.491 199.379 133.492L356.055 61.7294C354.734 60.7286 353.41 59.7575 352.084 58.8161" fill="#A2A2C9" fill-opacity="0.06"/>
<path d="M325.666 43.6606C320.87 41.6226 315.897 40.0272 310.809 38.8943C295.586 35.6275 283.443 38.4694 275.7 47.11C268.785 54.819 265.374 66.9714 265.563 83.2303C265.771 101.294 270.458 124.366 279.486 151.791C288.58 179.415 292.12 201.423 290.008 217.196C288.206 230.664 282.182 239.225 272.596 241.957C265.919 243.862 257.745 242.857 249.054 239.227C244.331 237.251 239.46 234.512 234.584 231.039C220.609 221.08 208.619 206.469 201.701 190.948C208.524 206.566 220.547 221.221 234.562 231.206C239.447 234.687 244.334 237.439 249.063 239.414C257.781 243.043 265.988 244.053 272.684 242.147C282.293 239.42 288.328 230.827 290.159 217.302C292.277 201.491 288.731 179.444 279.625 151.777C270.612 124.376 265.927 101.343 265.717 83.3051C265.529 67.0905 268.927 54.9727 275.82 47.2893C283.549 38.6688 295.662 35.8376 310.851 39.097C315.928 40.2305 320.89 41.8253 325.676 43.8615C335.549 47.9823 345.957 54.078 356.062 61.7326C345.977 53.8944 335.552 47.7864 325.666 43.6606Z" fill="#A2A2C9" fill-opacity="0.06"/>
<path d="M284.688 40.4933L128.013 112.256C124.587 113.817 121.522 116.072 119.014 118.878C112.1 126.588 108.689 138.741 108.878 155C109.086 173.064 113.773 196.135 122.801 223.561C131.894 251.185 135.434 273.192 133.322 288.966C131.721 300.929 126.791 309.021 118.99 312.594L275.666 240.831C283.467 237.258 288.396 229.164 289.998 217.203C292.114 201.427 288.57 179.422 279.475 151.796C270.448 124.37 265.763 101.303 265.553 83.2348C265.364 66.976 268.774 54.8235 275.689 47.1146C278.198 44.3081 281.262 42.0532 284.688 40.4933Z" fill="#A2A2C9" fill-opacity="0.06"/>
<path d="M284.687 40.4945L128.011 112.257C127.223 112.618 126.457 113.013 125.709 113.442L282.379 41.6849C283.123 41.2505 283.89 40.8552 284.679 40.4988" fill="#A2A2C9" fill-opacity="0.06"/>
<path d="M282.379 41.6846L125.704 113.445C124.975 113.87 124.267 114.323 123.582 114.803L280.255 43.0414C280.942 42.5561 281.649 42.1039 282.379 41.6846Z" fill="#A2A2C9" fill-opacity="0.06"/>
<path d="M280.256 43.0407L123.573 114.808C122.964 115.238 122.373 115.694 121.799 116.175L278.484 44.4064C279.057 43.9272 279.652 43.4756 280.256 43.0407Z" fill="#A2A2C9" fill-opacity="0.06"/>
<path d="M278.483 44.407L121.808 116.17C121.286 116.609 120.778 117.068 120.291 117.554L276.967 45.7906C277.457 45.3102 277.965 44.8517 278.483 44.407Z" fill="#A2A2C9" fill-opacity="0.06"/>
<path d="M276.963 45.7846L120.287 117.548C119.846 117.971 119.421 118.415 119.011 118.878L118.96 118.935L275.632 47.1697L275.683 47.1124C276.095 46.6528 276.52 46.2087 276.958 45.7802" fill="#A2A2C9" fill-opacity="0.06"/>
<path d="M275.632 47.17L118.955 118.931C118.541 119.397 118.14 119.876 117.755 120.379L274.434 48.6168C274.823 48.1208 275.223 47.6381 275.634 47.1689" fill="#A2A2C9" fill-opacity="0.06"/>
<path d="M274.435 48.6164L117.759 120.379C117.384 120.86 117.021 121.353 116.668 121.864L273.349 50.0925C273.702 49.5824 274.065 49.089 274.44 48.6083" fill="#A2A2C9" fill-opacity="0.06"/>
<path d="M273.349 50.0929L116.673 121.856C116.329 122.353 115.995 122.865 115.673 123.391L272.342 51.6323C272.664 51.1078 272.998 50.5941 273.341 50.0972" fill="#A2A2C9" fill-opacity="0.06"/>
<path d="M272.341 51.6327L115.665 123.396C115.348 123.913 115.041 124.447 114.745 124.997L271.422 53.2358C271.717 52.687 272.025 52.1539 272.341 51.6327Z" fill="#A2A2C9" fill-opacity="0.06"/>
<path d="M271.421 53.2357L114.744 124.997C114.449 125.544 114.165 126.104 113.892 126.678L270.567 54.9145C270.841 54.3411 271.126 53.7815 271.421 53.2357Z" fill="#A2A2C9" fill-opacity="0.06"/>
<path d="M270.569 54.915L113.893 126.678C113.618 127.257 113.354 127.85 113.102 128.455L269.776 56.6931C270.03 56.0862 270.295 55.4936 270.569 54.915Z" fill="#A2A2C9" fill-opacity="0.06"/>
<path d="M269.775 56.6922L113.101 128.454C112.843 129.072 112.597 129.704 112.363 130.35L269.039 58.5872C269.274 57.9418 269.519 57.3101 269.775 56.6922Z" fill="#A2A2C9" fill-opacity="0.06"/>
<path d="M269.038 58.5875L112.362 130.35C112.121 131.018 111.893 131.699 111.676 132.396L268.354 60.6362C268.571 59.9399 268.799 59.2582 269.04 58.5912" fill="#A2A2C9" fill-opacity="0.06"/>
<path d="M268.355 60.6356L111.679 132.399C111.454 133.123 111.241 133.865 111.043 134.624L267.718 62.8606C267.917 62.1018 268.129 61.3601 268.355 60.6356Z" fill="#A2A2C9" fill-opacity="0.06"/>
<path d="M267.716 62.8574L111.04 134.62C110.829 135.418 110.635 136.235 110.458 137.07L267.133 65.3074C267.312 64.4741 267.506 63.6574 267.716 62.8574Z" fill="#A2A2C9" fill-opacity="0.06"/>
<path d="M267.133 65.3072L110.457 137.07C110.266 137.964 110.091 138.88 109.934 139.817L266.61 68.0543C266.766 67.1176 266.941 66.2019 267.133 65.3072Z" fill="#A2A2C9" fill-opacity="0.06"/>
<path d="M266.609 68.0547L109.933 139.818C109.76 140.837 109.609 141.882 109.482 142.953L266.157 71.1905C266.285 70.1193 266.436 69.0741 266.609 68.0547Z" fill="#A2A2C9" fill-opacity="0.06"/>
<path d="M266.159 71.1911L109.483 142.954C109.337 144.145 109.218 145.366 109.127 146.617L265.803 74.854C265.902 73.6002 266.021 72.3793 266.159 71.1911Z" fill="#A2A2C9" fill-opacity="0.06"/>
<path d="M265.799 74.856L109.124 146.621C109.017 148.053 108.944 149.524 108.904 151.034L265.58 79.2708C265.616 77.755 265.69 76.284 265.8 74.8579" fill="#A2A2C9" fill-opacity="0.06"/>
<path d="M265.579 79.2678L108.903 151.031C108.87 152.325 108.861 153.648 108.876 155C108.882 155.513 108.892 156.029 108.904 156.548L265.58 84.785C265.568 84.2637 265.559 83.7477 265.551 83.2371C265.536 81.886 265.545 80.5629 265.579 79.2678Z" fill="#A2A2C9" fill-opacity="0.06"/>
<path d="M265.58 84.7859L108.904 156.549C108.962 158.853 109.091 161.236 109.291 163.697L265.962 91.9263C265.763 89.4666 265.634 87.084 265.575 84.7784" fill="#A2A2C9" fill-opacity="0.06"/>
<path d="M265.963 91.9271L109.287 163.69C109.547 166.926 109.932 170.292 110.443 173.787L267.119 102.024C266.616 98.5258 266.231 95.1602 265.963 91.9271Z" fill="#A2A2C9" fill-opacity="0.06"/>
<path d="M267.115 102.035L110.439 173.798C111.283 179.656 112.465 185.875 113.982 192.454L270.664 120.687C269.145 114.112 267.964 107.894 267.121 102.032" fill="#A2A2C9" fill-opacity="0.06"/>
<path d="M270.665 120.686L113.989 192.45C116.21 202.076 119.148 212.445 122.805 223.558C125.699 232.35 128.03 240.564 129.797 248.202L286.472 176.439C284.699 168.81 282.366 160.596 279.474 151.797C275.822 140.699 272.883 130.33 270.658 120.688" fill="#A2A2C9" fill-opacity="0.06"/>
<path d="M286.467 176.442L129.791 248.205C131.014 253.49 131.965 258.49 132.643 263.206L289.32 191.445C288.641 186.729 287.69 181.728 286.467 176.442Z" fill="#A2A2C9" fill-opacity="0.06"/>
<path d="M289.319 191.445L132.64 263.207C133.048 266.019 133.357 268.728 133.567 271.336L290.242 199.568C290.03 196.963 289.722 194.254 289.317 191.441" fill="#A2A2C9" fill-opacity="0.06"/>
<path d="M290.242 199.567L133.566 271.33C133.734 273.327 133.839 275.267 133.881 277.15L290.557 205.387C290.511 203.509 290.406 201.569 290.242 199.567Z" fill="#A2A2C9" fill-opacity="0.06"/>
<path d="M290.559 205.391L133.883 277.154C133.923 278.695 133.924 280.195 133.885 281.655L290.566 209.888C290.605 208.431 290.604 206.931 290.565 205.388" fill="#A2A2C9" fill-opacity="0.06"/>
<path d="M290.566 209.889L133.89 281.652C133.857 282.875 133.8 284.071 133.718 285.24L290.394 213.477C290.48 212.312 290.537 211.116 290.566 209.889Z" fill="#A2A2C9" fill-opacity="0.06"/>
<path d="M290.383 213.471L133.707 285.234C133.637 286.254 133.539 287.255 133.415 288.237L290.091 216.474C290.208 215.496 290.305 214.495 290.383 213.471Z" fill="#A2A2C9" fill-opacity="0.06"/>
<path d="M290.091 216.473L133.415 288.236C133.384 288.482 133.354 288.726 133.321 288.967C133.239 289.583 133.149 290.186 133.048 290.78L289.723 219.017C289.823 218.425 289.914 217.82 289.996 217.204C290.03 216.963 290.06 216.719 290.091 216.473Z" fill="#A2A2C9" fill-opacity="0.06"/>
<path d="M289.723 219.017L133.047 290.78C132.921 291.532 132.78 292.268 132.626 292.989L289.302 221.226C289.458 220.506 289.598 219.769 289.723 219.017Z" fill="#A2A2C9" fill-opacity="0.06"/>
<path d="M289.302 221.226L132.626 292.989C132.481 293.661 132.325 294.319 132.157 294.962L288.832 223.199C289.001 222.557 289.158 221.9 289.302 221.226Z" fill="#A2A2C9" fill-opacity="0.06"/>
<path d="M288.833 223.199L132.157 294.962C131.997 295.574 131.825 296.172 131.643 296.757L288.319 224.994C288.501 224.409 288.672 223.811 288.833 223.199Z" fill="#A2A2C9" fill-opacity="0.06"/>
<path d="M288.32 224.996L131.644 296.759C131.472 297.318 131.293 297.866 131.09 298.408L287.766 226.645C287.954 226.112 288.145 225.556 288.32 224.996Z" fill="#A2A2C9" fill-opacity="0.06"/>
<path d="M287.767 226.645L131.091 298.408C130.898 298.932 130.698 299.443 130.49 299.942L287.166 228.179C287.373 227.679 287.573 227.168 287.767 226.645Z" fill="#A2A2C9" fill-opacity="0.06"/>
<path d="M287.17 228.175L130.494 299.938C130.283 300.43 130.078 300.904 129.855 301.368L286.532 229.607C286.759 229.142 286.972 228.665 287.17 228.175Z" fill="#A2A2C9" fill-opacity="0.06"/>
<path d="M286.533 229.607L129.856 301.368C129.63 301.834 129.41 302.279 129.174 302.716L285.85 230.953C286.092 230.512 286.315 230.066 286.533 229.607Z" fill="#A2A2C9" fill-opacity="0.06"/>
<path d="M285.849 230.952L129.173 302.715C128.931 303.155 128.687 303.581 128.44 303.992L285.116 232.229C285.372 231.813 285.616 231.387 285.849 230.952Z" fill="#A2A2C9" fill-opacity="0.06"/>
<path d="M285.116 232.23L128.44 303.993C128.185 304.411 127.922 304.814 127.65 305.202L284.326 233.439C284.596 233.047 284.859 232.644 285.116 232.23Z" fill="#A2A2C9" fill-opacity="0.06"/>
<path d="M284.323 233.448L127.647 305.211C127.37 305.612 127.083 306.001 126.787 306.378L283.464 234.617C283.76 234.238 284.047 233.848 284.323 233.448Z" fill="#A2A2C9" fill-opacity="0.06"/>
<path d="M283.465 234.617L126.788 306.378C126.484 306.767 126.171 307.141 125.847 307.505L282.523 235.742C282.849 235.386 283.163 235.011 283.465 234.617Z" fill="#A2A2C9" fill-opacity="0.06"/>
<path d="M282.523 235.741L125.847 307.504C125.51 307.88 125.162 308.245 124.805 308.594L281.48 236.831C281.838 236.482 282.187 236.119 282.523 235.741Z" fill="#A2A2C9" fill-opacity="0.06"/>
<path d="M281.481 236.832L124.805 308.595C124.427 308.965 124.037 309.317 123.638 309.655L280.314 237.892C280.714 237.557 281.103 237.204 281.481 236.832Z" fill="#A2A2C9" fill-opacity="0.06"/>
<path d="M280.312 237.891L123.637 309.654C123.199 310.021 122.748 310.367 122.285 310.693L278.961 238.93C279.423 238.602 279.873 238.256 280.312 237.891Z" fill="#A2A2C9" fill-opacity="0.06"/>
<path d="M278.962 238.933L122.287 310.696C121.766 311.064 121.229 311.406 120.675 311.725L277.357 239.973C277.908 239.651 278.444 239.308 278.968 238.943" fill="#A2A2C9" fill-opacity="0.06"/>
<path d="M277.357 239.974L120.68 311.735C120.135 312.053 119.571 312.339 118.993 312.605L275.669 240.842C276.247 240.576 276.809 240.286 277.357 239.974Z" fill="#A2A2C9" fill-opacity="0.06"/>
<path d="M119.084 312.788L275.76 241.025C274.758 241.482 273.724 241.862 272.665 242.162C265.967 244.079 257.767 243.067 249.043 239.428C244.315 237.455 239.427 234.701 234.542 231.221C220.527 221.235 208.505 206.581 201.681 190.962L45.0072 262.724C51.8291 278.344 63.8511 292.998 77.8664 302.984C82.7516 306.464 87.6381 309.216 92.3675 311.191C101.091 314.83 109.293 315.831 115.989 313.925C117.048 313.624 118.082 313.244 119.084 312.788Z" fill="#A2A2C9" fill-opacity="0.06"/>
<path d="M201.683 190.963L45.0086 262.725C45.1335 263.016 45.2632 263.306 45.3937 263.594L202.071 191.833C201.939 191.543 201.809 191.253 201.683 190.963Z" fill="#A2A2C9" fill-opacity="0.06"/>
<path d="M202.069 191.832L45.3925 263.593C45.7858 264.466 46.1951 265.337 46.6202 266.205L203.296 194.442C202.871 193.576 202.461 192.704 202.069 191.832Z" fill="#A2A2C9" fill-opacity="0.06"/>
<path d="M203.298 194.442L46.622 266.205C47.0241 267.025 47.4398 267.841 47.8691 268.653L204.545 196.89C204.116 196.078 203.7 195.262 203.298 194.442Z" fill="#A2A2C9" fill-opacity="0.06"/>
<path d="M204.544 196.89L47.8686 268.653C48.2924 269.45 48.7269 270.243 49.172 271.031L205.847 199.266C205.398 198.478 204.964 197.685 204.543 196.888" fill="#A2A2C9" fill-opacity="0.06"/>
<path d="M205.846 199.266L49.1694 271.032C49.616 271.823 50.0748 272.608 50.5459 273.39L207.222 201.627C206.748 200.847 206.289 200.061 205.845 199.269" fill="#A2A2C9" fill-opacity="0.06"/>
<path d="M207.228 201.624L50.5464 273.39C51.0237 274.178 51.5124 274.964 52.0131 275.74L208.69 203.979C208.189 203.2 207.7 202.416 207.222 201.627" fill="#A2A2C9" fill-opacity="0.06"/>
<path d="M208.694 203.975L52.0173 275.737C52.5274 276.525 53.0485 277.308 53.5804 278.085L210.256 206.322C209.722 205.544 209.202 204.762 208.694 203.975Z" fill="#A2A2C9" fill-opacity="0.06"/>
<path d="M210.257 206.321L53.5814 278.084C54.1218 278.873 54.6736 279.654 55.2368 280.428L211.918 208.675C211.354 207.899 210.802 207.118 210.263 206.33" fill="#A2A2C9" fill-opacity="0.06"/>
<path d="M211.918 208.676L55.242 280.439C55.8149 281.224 56.3983 282.001 56.9921 282.77L213.653 211.003C213.059 210.234 212.476 209.457 211.903 208.672" fill="#A2A2C9" fill-opacity="0.06"/>
<path d="M213.654 211.003L56.978 282.766C57.581 283.548 58.1982 284.32 58.8295 285.083L215.505 213.32C214.879 212.555 214.262 211.782 213.654 211.003Z" fill="#A2A2C9" fill-opacity="0.06"/>
<path d="M215.504 213.32L58.8373 285.09C59.4746 285.866 60.123 286.633 60.7824 287.392L217.458 215.629C216.798 214.872 216.15 214.104 215.513 213.327" fill="#A2A2C9" fill-opacity="0.06"/>
<path d="M217.453 215.62L60.7769 287.383C61.4461 288.153 62.1282 288.916 62.8274 289.673L219.501 217.911C218.81 217.163 218.127 216.399 217.453 215.62Z" fill="#A2A2C9" fill-opacity="0.06"/>
<path d="M219.498 217.902L62.8238 289.664C63.5314 290.431 64.2497 291.186 64.9788 291.928L221.653 220.166C220.927 219.427 220.209 218.672 219.498 217.902Z" fill="#A2A2C9" fill-opacity="0.06"/>
<path d="M221.652 220.167L64.9782 291.929C65.726 292.692 66.4845 293.441 67.2538 294.178L223.93 222.415C223.165 221.675 222.406 220.926 221.652 220.167Z" fill="#A2A2C9" fill-opacity="0.06"/>
<path d="M223.93 222.414L67.254 294.177C68.0445 294.933 68.8459 295.675 69.6584 296.403L226.334 224.64C225.522 223.913 224.721 223.171 223.93 222.414Z" fill="#A2A2C9" fill-opacity="0.06"/>
<path d="M226.334 224.64L69.658 296.403C70.5014 297.161 71.3564 297.901 72.2231 298.622L228.897 226.861C228.032 226.139 227.177 225.399 226.332 224.641" fill="#A2A2C9" fill-opacity="0.06"/>
<path d="M228.898 226.86L72.2221 298.623C73.1229 299.374 74.0352 300.108 74.9588 300.824L231.632 229.053C230.714 228.335 229.802 227.601 228.895 226.852" fill="#A2A2C9" fill-opacity="0.06"/>
<path d="M231.632 229.053L74.9558 300.816C75.9126 301.558 76.8819 302.278 77.8636 302.977L77.8734 302.994L234.549 231.231L234.539 231.214C233.561 230.515 232.592 229.795 231.632 229.053Z" fill="#A2A2C9" fill-opacity="0.06"/>
<path d="M234.56 231.235L77.884 302.998C78.9466 303.753 80.0083 304.475 81.0691 305.164L237.745 233.401C236.68 232.716 235.618 231.994 234.56 231.235Z" fill="#A2A2C9" fill-opacity="0.06"/>
<path d="M237.746 233.4L81.0701 305.163C82.2065 305.897 83.3408 306.592 84.473 307.25L241.149 235.487C240.018 234.831 238.884 234.136 237.746 233.4Z" fill="#A2A2C9" fill-opacity="0.06"/>
<path d="M241.15 235.486L84.4737 307.249C85.7127 307.967 86.9473 308.636 88.1775 309.257L244.853 237.494C243.624 236.875 242.389 236.205 241.15 235.486Z" fill="#A2A2C9" fill-opacity="0.06"/>
<path d="M244.852 237.494L88.1762 309.257C89.572 309.962 90.9581 310.601 92.3345 311.176L249.01 239.413C247.636 238.839 246.25 238.199 244.852 237.494Z" fill="#A2A2C9" fill-opacity="0.06"/>
<path d="M249.01 239.413L92.3344 311.176L92.3682 311.191C94.0633 311.899 95.7362 312.506 97.3868 313.012L254.063 241.249C252.414 240.741 250.742 240.134 249.044 239.428L249.01 239.413Z" fill="#A2A2C9" fill-opacity="0.06"/>
<path d="M254.063 241.249L97.387 313.012C104.22 315.112 110.59 315.463 115.99 313.925C117.049 313.625 118.083 313.245 119.085 312.788L275.761 241.025C274.759 241.483 273.725 241.863 272.666 242.162C267.267 243.702 260.89 243.352 254.063 241.249Z" fill="#A2A2C9" fill-opacity="0.06"/>
</svg>
