<svg width="187" height="155" viewBox="0 0 187 155" fill="none" xmlns="http://www.w3.org/2000/svg">
<g filter="url(#filter0_f_243_3935)">
<path d="M-32.9316 42.1997L74.3736 14.6653C69.5565 15.9012 64.9234 19.1936 60.7095 24.4141C58.6296 27.0344 56.7938 29.8391 55.2249 32.793C51.9593 38.8446 49.2262 46.1018 47.2754 54.021L-60.0299 81.554C-58.0809 73.6421 -55.353 66.3871 -52.0794 60.3329C-50.5091 57.376 -48.6713 54.5687 -46.589 51.9461C-42.3825 46.7225 -37.7479 43.4397 -32.9316 42.1997Z" fill="#A2A2C9" fill-opacity="0.06"/>
<path d="M-32.9306 42.2L74.3746 14.6656C69.5576 15.9015 64.9244 19.1939 60.7105 24.4144C59.87 25.4556 59.0511 26.57 58.2537 27.7576L-49.0517 55.2907C-48.2537 54.1067 -47.4348 52.9923 -46.5949 51.9474C-42.3815 46.7228 -37.7476 43.4359 -32.9306 42.2Z" fill="#A2A2C9" fill-opacity="0.06"/>
<path d="M-49.0519 55.2909L58.2534 27.7578C57.2013 29.3184 56.192 30.997 55.2256 32.7935L55.2049 32.8317L-52.1005 60.3647L-52.0797 60.3266C-51.1157 58.5388 -50.1064 56.8602 -49.0519 55.2909Z" fill="#A2A2C9" fill-opacity="0.06"/>
<path d="M-52.1015 60.3652L55.2038 32.8322C54.3882 34.3453 53.6078 35.93 52.8626 37.5862L-54.4427 65.1193C-53.6981 63.4659 -52.9177 61.8812 -52.1015 60.3652Z" fill="#A2A2C9" fill-opacity="0.06"/>
<path d="M-54.4418 65.1188L52.8635 37.5858C52.1984 39.0637 51.5636 40.5929 50.9591 42.1735L-56.3463 69.7065C-55.7424 68.1279 -55.1076 66.5987 -54.4418 65.1188Z" fill="#A2A2C9" fill-opacity="0.06"/>
<path d="M-56.3465 69.7065L50.9588 42.1735C50.4067 43.621 49.8819 45.1058 49.3842 46.628L-57.9209 74.1624C-57.4251 72.6405 -56.9003 71.1552 -56.3465 69.7065Z" fill="#A2A2C9" fill-opacity="0.06"/>
<path d="M-57.9206 74.1621L49.3845 46.6277C48.9249 48.0386 48.492 49.4776 48.0858 50.9447L-59.2196 78.4777C-58.8107 77.0158 -58.3777 75.5773 -57.9206 74.1621Z" fill="#A2A2C9" fill-opacity="0.06"/>
<path d="M-59.2243 78.4787L48.0811 50.9456C47.7992 51.9571 47.5312 52.98 47.2772 54.0143L-60.0282 81.5473C-59.7732 80.5129 -59.5049 79.4923 -59.2232 78.4855" fill="#A2A2C9" fill-opacity="0.06"/>
<path d="M-52.1562 60.2262C-50.5846 57.2678 -48.7457 54.4589 -46.6623 51.8347C-40.3786 44.0439 -33.1623 40.551 -25.7984 41.7353C-19.225 42.789 -12.6048 47.4804 -6.12147 55.6795C1.08272 64.788 8.07476 78.2105 14.66 95.5642C21.2925 113.044 28.4273 125.47 35.8639 132.496C42.2128 138.495 48.6855 140.336 54.5798 137.822C58.6862 136.073 62.3632 132.264 65.2366 126.934C66.7965 124.036 68.1221 120.697 69.1529 116.989C72.1055 106.36 72.1841 94.2103 69.3615 83.6572C72.2712 94.2208 72.1937 106.405 69.2316 117.064C68.1991 120.779 66.8713 124.131 65.3075 127.031C62.4203 132.371 58.729 136.196 54.6125 137.953C48.7087 140.478 42.2174 138.626 35.831 132.61C28.3764 125.568 21.2285 113.119 14.5849 95.6135C8.0024 78.2776 1.02467 64.8753 -6.16785 55.779C-12.6337 47.6023 -19.2338 42.9233 -25.7856 41.8732C-33.1348 40.6937 -40.3312 44.1794 -46.6008 51.9526C-48.6787 54.5729 -50.5127 57.3772 -52.0799 60.3307C-55.3453 66.3836 -58.0786 73.6394 -60.0304 81.5518C-58.1629 73.5558 -55.426 66.2869 -52.1562 60.2262Z" fill="#A2A2C9" fill-opacity="0.06"/>
<path d="M-32.965 42.0659L74.3403 14.5329C76.6831 13.9266 79.1263 13.8133 81.5149 14.2001C88.0885 15.2552 94.7087 19.9466 101.192 28.1457C108.396 37.2542 115.388 50.6768 121.973 68.0304C128.606 85.5098 135.741 97.9366 143.177 104.962C148.817 110.291 154.554 112.339 159.896 110.968L52.591 138.501C47.2484 139.872 41.5113 137.823 35.8721 132.495C28.4328 125.47 21.3007 113.043 14.6679 95.5621C8.0827 78.2084 1.09109 64.7886 -6.11352 55.6774C-12.5968 47.4783 -19.2171 42.7869 -25.7905 41.7332C-28.179 41.3459 -30.6223 41.4592 -32.965 42.0659Z" fill="#A2A2C9" fill-opacity="0.06"/>
<path d="M-32.9651 42.0654L74.3402 14.5324C74.8793 14.3937 75.4223 14.281 75.9692 14.1929L-31.3305 41.7264C-31.8779 41.8104 -32.421 41.9231 -32.9596 42.0645" fill="#A2A2C9" fill-opacity="0.06"/>
<path d="M-31.3299 41.7268L75.9739 14.1926C76.5104 14.1103 77.0471 14.0503 77.5839 14.0127L-29.7201 41.5456C-30.2591 41.5807 -30.7957 41.6411 -31.3299 41.7268Z" fill="#A2A2C9" fill-opacity="0.06"/>
<path d="M-29.7207 41.545L77.5901 14.0112C78.0681 13.9798 78.5478 13.9682 79.0291 13.9764L-28.2831 41.5105C-28.7633 41.5031 -29.243 41.5179 -29.7207 41.545Z" fill="#A2A2C9" fill-opacity="0.06"/>
<path d="M-28.2822 41.5114L79.0231 13.9783C79.4615 13.9866 79.9008 14.0101 80.3406 14.056L-26.9647 41.589C-27.404 41.5473 -27.8432 41.5237 -28.2822 41.5114Z" fill="#A2A2C9" fill-opacity="0.06"/>
<path d="M-26.9658 41.5846L80.3395 14.0516C80.7312 14.0847 81.1231 14.1342 81.5152 14.2L81.564 14.2079L-25.7403 41.7379L-25.7892 41.7301C-26.1808 41.667 -26.5728 41.6171 -26.9651 41.5803" fill="#A2A2C9" fill-opacity="0.06"/>
<path d="M-25.7406 41.7381L81.5646 14.2037C81.9598 14.269 82.354 14.3456 82.7497 14.4416L-24.5568 41.9762C-24.9517 41.8857 -25.3468 41.8064 -25.742 41.7383" fill="#A2A2C9" fill-opacity="0.06"/>
<path d="M-24.557 41.9756L82.7483 14.4426C83.1303 14.5309 83.5112 14.6305 83.894 14.7425L-23.4172 42.2736C-23.8 42.1617 -24.1809 42.062 -24.5629 41.9737" fill="#A2A2C9" fill-opacity="0.06"/>
<path d="M-23.418 42.274L83.8874 14.741C84.26 14.8503 84.6342 14.9706 85.0077 15.1036L-22.2922 42.6358C-22.6654 42.5042 -23.0399 42.3825 -23.4125 42.2732" fill="#A2A2C9" fill-opacity="0.06"/>
<path d="M-22.291 42.6349L85.0143 15.1018C85.3826 15.2319 85.7519 15.3744 86.1222 15.5293L-21.183 43.0637C-21.5527 42.9092 -21.9219 42.7671 -22.291 42.6349Z" fill="#A2A2C9" fill-opacity="0.06"/>
<path d="M-21.1834 43.0647L86.1217 15.5303C86.49 15.6846 86.8586 15.8496 87.2273 16.0253L-20.078 43.5583C-20.4468 43.3826 -20.8152 43.2181 -21.1834 43.0647Z" fill="#A2A2C9" fill-opacity="0.06"/>
<path d="M-20.0781 43.5582L87.2272 16.0252C87.5991 16.2032 87.9705 16.3925 88.3412 16.593L-18.9628 44.1258C-19.3353 43.9256 -19.7071 43.7364 -20.0781 43.5582Z" fill="#A2A2C9" fill-opacity="0.06"/>
<path d="M-18.9629 44.1249L88.3411 16.592C88.7198 16.796 89.0985 17.0122 89.4772 17.2404L-17.8281 44.7735C-18.2067 44.5461 -18.5849 44.3299 -18.9629 44.1249Z" fill="#A2A2C9" fill-opacity="0.06"/>
<path d="M-17.8281 44.7733L89.4772 17.2403C89.8673 17.4761 90.2575 17.7241 90.6476 17.9841L-16.6573 45.5199C-17.0474 45.2598 -17.4376 45.0119 -17.8277 44.776" fill="#A2A2C9" fill-opacity="0.06"/>
<path d="M-16.6562 45.5206L90.6491 17.9876C91.0549 18.2583 91.4609 18.543 91.8672 18.8417L-15.4381 46.3747C-15.8444 46.0761 -16.2505 45.7914 -16.6562 45.5206Z" fill="#A2A2C9" fill-opacity="0.06"/>
<path d="M-15.4404 46.3719L91.8649 18.8389C92.293 19.1519 92.7204 19.4814 93.147 19.8273L-14.1583 47.3603C-14.5846 47.0162 -15.012 46.6868 -15.4404 46.3719Z" fill="#A2A2C9" fill-opacity="0.06"/>
<path d="M-14.1572 47.3602L93.1481 19.8272C93.6054 20.1964 94.0631 20.5832 94.5211 20.9877L-12.7842 48.5207C-13.2413 48.1161 -13.699 47.7293 -14.1572 47.3602Z" fill="#A2A2C9" fill-opacity="0.06"/>
<path d="M-12.7842 48.5204L94.5212 20.9873C95.0201 21.4266 95.5181 21.8879 96.0153 22.3713L-11.29 49.9043C-11.7872 49.421 -12.2853 48.9597 -12.7842 48.5204Z" fill="#A2A2C9" fill-opacity="0.06"/>
<path d="M-11.29 49.9049L96.0153 22.3719C96.5701 22.908 97.1233 23.47 97.6749 24.0579L-9.63047 51.5909C-10.1874 51.0048 -10.7405 50.4427 -11.29 49.9049Z" fill="#A2A2C9" fill-opacity="0.06"/>
<path d="M-9.62813 51.5908L97.6774 24.0591C98.3101 24.7316 98.9418 25.4368 99.5724 26.1749L-7.7329 53.708C-8.36424 52.9653 -8.99591 52.2601 -9.62792 51.5922" fill="#A2A2C9" fill-opacity="0.06"/>
<path d="M-7.73339 53.7054L99.572 26.1724C100.112 26.8059 100.652 27.4633 101.191 28.1444C101.395 28.4032 101.599 28.6648 101.803 28.9292L-5.50188 56.4622C-5.70693 56.197 -5.91097 55.9354 -6.11399 55.6774C-6.65279 54.9962 -7.19259 54.3388 -7.73339 53.7054Z" fill="#A2A2C9" fill-opacity="0.06"/>
<path d="M-5.50097 56.463L101.804 28.93C102.707 30.1047 103.607 31.3472 104.503 32.6574L-2.80334 60.185C-3.69907 58.8757 -4.59856 57.6332 -5.5018 56.4575" fill="#A2A2C9" fill-opacity="0.06"/>
<path d="M-2.80272 60.1847L104.503 32.6516C105.682 34.3735 106.851 36.2108 108.01 38.1635L0.704662 65.6965C-0.45949 63.7456 -1.62862 61.9083 -2.80272 60.1847Z" fill="#A2A2C9" fill-opacity="0.06"/>
<path d="M0.710177 65.7016L108.016 38.1686C109.964 41.4366 111.889 45.0211 113.792 48.9219L6.48302 76.4555C4.5819 72.5563 2.65625 68.9718 0.706067 65.7023" fill="#A2A2C9" fill-opacity="0.06"/>
<path d="M6.48243 76.4557L113.788 48.9226C116.572 54.6302 119.3 60.9997 121.969 68.0309C124.079 73.5938 126.238 78.6405 128.446 83.1709L21.1402 110.704C18.9398 106.175 16.7822 101.128 14.6674 95.5619C12.0023 88.5403 9.27531 82.1709 6.48633 76.4537" fill="#A2A2C9" fill-opacity="0.06"/>
<path d="M21.1455 110.702L128.451 83.1692C129.978 86.3041 131.526 89.1867 133.095 91.8171L25.7899 119.351C24.2217 116.721 22.6736 113.838 21.1455 110.702Z" fill="#A2A2C9" fill-opacity="0.06"/>
<path d="M25.7893 119.353L133.096 91.8179C134.03 93.3873 134.971 94.8658 135.921 96.2535L28.614 123.784C27.6662 122.397 26.7244 120.919 25.7889 119.35" fill="#A2A2C9" fill-opacity="0.06"/>
<path d="M28.6143 123.783L135.92 96.2503C136.643 97.3155 137.376 98.3271 138.117 99.2851L30.8114 126.818C30.0744 125.861 29.342 124.85 28.6143 123.783Z" fill="#A2A2C9" fill-opacity="0.06"/>
<path d="M30.8117 126.822L138.117 99.2889C138.721 100.075 139.327 100.825 139.937 101.538L32.6278 129.072C32.0189 128.359 31.4121 127.609 30.8076 126.823" fill="#A2A2C9" fill-opacity="0.06"/>
<path d="M32.6279 129.071L139.933 101.538C140.444 102.136 140.957 102.71 141.471 103.261L34.1657 130.794C33.6512 130.247 33.1386 129.673 32.6279 129.071Z" fill="#A2A2C9" fill-opacity="0.06"/>
<path d="M34.168 130.787L141.473 103.254C141.921 103.734 142.374 104.195 142.834 104.636L35.5287 132.169C35.0744 131.727 34.6208 131.267 34.168 130.787Z" fill="#A2A2C9" fill-opacity="0.06"/>
<path d="M35.5293 132.168L142.835 104.635C142.95 104.745 143.063 104.855 143.178 104.962C143.468 105.236 143.756 105.501 144.048 105.757L36.7423 133.29C36.4528 133.034 36.1627 132.769 35.8722 132.495C35.7577 132.388 35.6442 132.278 35.5293 132.168Z" fill="#A2A2C9" fill-opacity="0.06"/>
<path d="M36.7422 133.29L144.048 105.757C144.415 106.082 144.783 106.393 145.152 106.69L37.8464 134.224C37.4768 133.927 37.1087 133.616 36.7422 133.29Z" fill="#A2A2C9" fill-opacity="0.06"/>
<path d="M37.8467 134.224L145.152 106.691C145.496 106.968 145.84 107.233 146.185 107.486L38.8794 135.02C38.5353 134.767 38.191 134.502 37.8467 134.224Z" fill="#A2A2C9" fill-opacity="0.06"/>
<path d="M38.8779 135.019L146.183 107.486C146.511 107.727 146.838 107.956 147.166 108.175L39.8606 135.708C39.5329 135.489 39.2053 135.26 38.8779 135.019Z" fill="#A2A2C9" fill-opacity="0.06"/>
<path d="M39.8613 135.71L147.167 108.177C147.479 108.386 147.79 108.587 148.11 108.776L40.8051 136.309C40.4957 136.119 40.175 135.919 39.8613 135.71Z" fill="#A2A2C9" fill-opacity="0.06"/>
<path d="M40.8057 136.309L148.111 108.776C148.419 108.96 148.726 109.134 149.032 109.299L41.7265 136.832C41.4209 136.666 41.1139 136.492 40.8057 136.309Z" fill="#A2A2C9" fill-opacity="0.06"/>
<path d="M41.7217 136.833L149.027 109.3C149.332 109.46 149.626 109.614 149.925 109.756L42.6197 137.29C42.318 137.15 42.0187 136.997 41.7217 136.833Z" fill="#A2A2C9" fill-opacity="0.06"/>
<path d="M42.6203 137.29L149.925 109.755C150.227 109.897 150.517 110.03 150.812 110.153L43.5062 137.686C43.2073 137.564 42.9151 137.431 42.6203 137.29Z" fill="#A2A2C9" fill-opacity="0.06"/>
<path d="M43.5068 137.686L150.812 110.153C151.111 110.275 151.405 110.389 151.695 110.495L44.39 138.028C44.0937 137.923 43.7994 137.809 43.5068 137.686Z" fill="#A2A2C9" fill-opacity="0.06"/>
<path d="M44.3887 138.027L151.694 110.494C151.99 110.6 152.285 110.695 152.578 110.778L45.2728 138.311C44.9793 138.225 44.6846 138.13 44.3887 138.027Z" fill="#A2A2C9" fill-opacity="0.06"/>
<path d="M45.2774 138.315L152.583 110.782C152.884 110.87 153.184 110.948 153.485 111.017L46.1794 138.551C45.8783 138.482 45.5776 138.403 45.2774 138.315Z" fill="#A2A2C9" fill-opacity="0.06"/>
<path d="M46.1799 138.552L153.485 111.017C153.794 111.089 154.102 111.149 154.411 111.2L47.1057 138.733C46.7988 138.687 46.4902 138.626 46.1799 138.552Z" fill="#A2A2C9" fill-opacity="0.06"/>
<path d="M47.1055 138.732L154.411 111.199C154.731 111.251 155.053 111.292 155.372 111.321L48.067 138.855C47.7474 138.825 47.426 138.785 47.1055 138.732Z" fill="#A2A2C9" fill-opacity="0.06"/>
<path d="M48.0674 138.855L155.373 111.322C155.711 111.354 156.049 111.372 156.385 111.379L49.0792 138.912C48.744 138.907 48.4068 138.887 48.0674 138.855Z" fill="#A2A2C9" fill-opacity="0.06"/>
<path d="M49.0791 138.912L156.384 111.379C156.751 111.386 157.117 111.376 157.48 111.351L50.1745 138.884C49.811 138.907 49.4459 138.917 49.0791 138.912Z" fill="#A2A2C9" fill-opacity="0.06"/>
<path d="M50.1748 138.887L157.48 111.354C157.889 111.327 158.296 111.281 158.702 111.216L51.3974 138.757C50.9923 138.819 50.5851 138.865 50.1759 138.894" fill="#A2A2C9" fill-opacity="0.06"/>
<path d="M51.3966 138.757L158.702 111.222C159.103 111.161 159.5 111.076 159.896 110.975L52.5911 138.508C52.1948 138.609 51.7966 138.692 51.3966 138.757Z" fill="#A2A2C9" fill-opacity="0.06"/>
<path d="M159.927 111.102L52.6216 138.635C53.3068 138.459 53.9775 138.23 54.6277 137.951C58.7492 136.199 62.4365 132.376 65.3227 127.029C66.8868 124.131 68.2143 120.778 69.2468 117.062C72.2089 106.404 72.2864 94.219 69.3767 83.6554L176.681 56.1226C179.592 66.686 179.514 78.8707 176.552 89.5293C175.52 93.2445 174.192 96.5963 172.628 99.4961C169.742 104.843 166.05 108.661 161.933 110.418C161.283 110.696 160.612 110.925 159.927 111.102Z" fill="#A2A2C9" fill-opacity="0.06"/>
<path d="M69.3779 83.6571L176.682 56.1243C176.737 56.3201 176.79 56.5177 176.841 56.7141L69.5359 84.2485C69.4846 84.0507 69.4318 83.8531 69.3779 83.6571Z" fill="#A2A2C9" fill-opacity="0.06"/>
<path d="M69.5373 84.2493L176.842 56.7149C176.999 57.3102 177.147 57.9106 177.286 58.5162L69.9802 86.0492C69.8427 85.4449 69.6944 84.8436 69.5373 84.2493Z" fill="#A2A2C9" fill-opacity="0.06"/>
<path d="M69.9795 86.0482L177.285 58.5152C177.416 59.0874 177.538 59.6633 177.652 60.2427L70.3469 87.7758C70.2327 87.1963 70.1103 86.6205 69.9795 86.0482Z" fill="#A2A2C9" fill-opacity="0.06"/>
<path d="M70.3467 87.7765L177.652 60.2434C177.763 60.8132 177.866 61.3849 177.963 61.9587L70.6573 89.4904C70.5625 88.9154 70.4589 88.3437 70.3465 87.7751" fill="#A2A2C9" fill-opacity="0.06"/>
<path d="M70.658 89.4907L177.965 61.9588C178.062 62.5344 178.15 63.1127 178.231 63.6935L70.9258 91.2266C70.8469 90.6454 70.7581 90.0672 70.6596 89.4919" fill="#A2A2C9" fill-opacity="0.06"/>
<path d="M70.922 91.2271L178.231 63.6935C178.312 64.28 178.385 64.8703 178.449 65.4608L71.1442 92.9952C71.0796 92.4035 71.0068 91.8139 70.926 91.2265" fill="#A2A2C9" fill-opacity="0.06"/>
<path d="M71.1398 92.9946L178.445 65.4602C178.509 66.0604 178.565 66.6622 178.614 67.2657L71.3088 94.7988C71.2608 94.1942 71.2045 93.5928 71.1398 92.9946Z" fill="#A2A2C9" fill-opacity="0.06"/>
<path d="M71.3078 94.7995L178.613 67.2664C178.662 67.8792 178.703 68.4928 178.735 69.1073L71.4302 96.6472C71.3984 96.0318 71.3579 95.4181 71.3088 94.8063" fill="#A2A2C9" fill-opacity="0.06"/>
<path d="M71.4313 96.6471L178.737 69.1141C178.768 69.738 178.791 70.3622 178.805 70.9868L71.5059 98.512C71.4913 97.8874 71.4684 97.2631 71.4371 96.6392" fill="#A2A2C9" fill-opacity="0.06"/>
<path d="M71.5052 98.5118L178.811 70.9788C178.826 71.6135 178.83 72.2491 178.823 72.8854L71.5176 100.418C71.5209 99.7827 71.5168 99.1472 71.5052 98.5118Z" fill="#A2A2C9" fill-opacity="0.06"/>
<path d="M71.5181 100.419L178.822 72.893C178.817 73.5383 178.804 74.184 178.781 74.8301L71.476 102.363C71.4993 101.718 71.5128 101.072 71.5164 100.426" fill="#A2A2C9" fill-opacity="0.06"/>
<path d="M71.475 102.357L178.78 74.8237C178.758 75.4792 178.725 76.1362 178.683 76.7976L71.3786 104.33C71.4212 103.677 71.4533 103.019 71.475 102.357Z" fill="#A2A2C9" fill-opacity="0.06"/>
<path d="M71.3771 104.323L178.681 76.79C178.638 77.4598 178.585 78.1274 178.521 78.793L71.2165 106.326C71.2801 105.663 71.3336 104.995 71.3771 104.323Z" fill="#A2A2C9" fill-opacity="0.06"/>
<path d="M71.2172 106.326L178.521 78.7932C178.456 79.4767 178.38 80.158 178.294 80.8373L70.9887 108.37C71.0714 107.692 71.1475 107.01 71.2172 106.326Z" fill="#A2A2C9" fill-opacity="0.06"/>
<path d="M70.9882 108.37L178.294 80.8367C178.204 81.5341 178.104 82.229 177.993 82.9214L70.6875 110.454C70.799 109.763 70.8992 109.068 70.9882 108.37Z" fill="#A2A2C9" fill-opacity="0.06"/>
<path d="M70.6875 110.455L177.993 82.9222C177.878 83.6421 177.75 84.3576 177.609 85.0686L70.3052 112.601C70.4454 111.891 70.5733 111.175 70.6888 110.455" fill="#A2A2C9" fill-opacity="0.06"/>
<path d="M70.3057 112.601L177.611 85.0675C177.465 85.8073 177.306 86.5429 177.134 87.2744L69.8269 114.802C69.995 114.072 70.1539 113.337 70.3035 112.595" fill="#A2A2C9" fill-opacity="0.06"/>
<path d="M69.8262 114.803L177.132 87.2704C176.954 88.028 176.761 88.7801 176.553 89.5264L176.555 89.5387L69.2497 117.072L69.2478 117.059C69.4538 116.314 69.6466 115.562 69.8262 114.803Z" fill="#A2A2C9" fill-opacity="0.06"/>
<path d="M69.2453 117.078L176.551 89.5451C176.325 90.3521 176.087 91.1423 175.836 91.9159L68.5304 119.449C68.7853 118.676 69.0236 117.885 69.2453 117.078Z" fill="#A2A2C9" fill-opacity="0.06"/>
<path d="M68.53 119.448L175.835 91.9152C175.564 92.7413 175.279 93.5476 174.979 94.3342L67.674 121.867C67.9739 121.082 68.2592 120.276 68.53 119.448Z" fill="#A2A2C9" fill-opacity="0.06"/>
<path d="M67.6743 121.868L174.98 94.3347C174.651 95.1948 174.305 96.0286 173.942 96.8362L66.6363 124.369C67 123.563 67.346 122.729 67.6743 121.868Z" fill="#A2A2C9" fill-opacity="0.06"/>
<path d="M66.6357 124.368L173.941 96.8351C173.529 97.7518 173.095 98.6322 172.64 99.4762L65.3348 127.009C65.7891 126.166 66.2228 125.286 66.6357 124.368Z" fill="#A2A2C9" fill-opacity="0.06"/>
<path d="M65.3357 127.01L172.641 99.4766L172.63 99.4979C172.07 100.537 171.48 101.517 170.86 102.438L63.5543 129.971C64.1724 129.05 64.7626 128.071 65.325 127.031L65.3357 127.01Z" fill="#A2A2C9" fill-opacity="0.06"/>
<path d="M63.5544 129.971L170.86 102.438C168.296 106.251 165.255 109.004 161.935 110.42C161.285 110.699 160.614 110.927 159.929 111.104L52.6239 138.638C53.3092 138.461 53.9798 138.232 54.63 137.953C57.9501 136.539 60.9945 133.784 63.5544 129.971Z" fill="#A2A2C9" fill-opacity="0.06"/>
</g>
<defs>
<filter id="filter0_f_243_3935" x="-64.0303" y="9.97388" width="246.856" height="133.077" filterUnits="userSpaceOnUse" color-interpolation-filters="sRGB">
<feFlood flood-opacity="0" result="BackgroundImageFix"/>
<feBlend mode="normal" in="SourceGraphic" in2="BackgroundImageFix" result="shape"/>
<feGaussianBlur stdDeviation="2" result="effect1_foregroundBlur_243_3935"/>
</filter>
</defs>
</svg>
