<svg width="220" height="339" viewBox="0 0 220 339" fill="none" xmlns="http://www.w3.org/2000/svg">
<g filter="url(#filter0_f_243_3100)">
<path d="M240.769 262.259L113.059 173.386C111.944 172.606 110.914 171.712 109.984 170.719C103.358 163.673 99.9176 150.684 99.7571 132.119C99.5993 113.736 96.8793 99.6857 91.6579 90.3717C89.3591 86.2663 86.5928 83.0886 83.3588 80.8386L211.063 169.714C214.289 171.959 217.062 175.143 219.361 179.248C224.578 188.565 227.302 202.609 227.461 220.994C227.62 239.56 231.06 252.546 237.686 259.595C238.619 260.587 239.652 261.48 240.769 262.259Z" fill="#A2A2C9" fill-opacity="0.05"/>
<path d="M240.769 262.26L113.059 173.387C111.945 172.607 110.914 171.713 109.984 170.72C103.359 163.674 99.9181 150.685 99.7576 132.12C99.5998 113.736 96.8798 99.6865 91.6584 90.3726C89.3596 86.2672 86.5932 83.0895 83.3593 80.8395L211.063 169.715C214.289 171.96 217.063 175.144 219.361 179.249C224.579 188.565 227.303 202.61 227.462 220.995C227.621 239.561 231.061 252.546 237.687 259.596C238.617 260.589 239.647 261.483 240.762 262.263" fill="#A2A2C9" fill-opacity="0.05"/>
<path d="M153.976 188.185C157.731 184.739 161.68 181.512 165.805 178.52C178.414 169.439 190.102 164.981 199.613 165.624C208.092 166.196 214.776 170.742 219.479 179.142C224.704 188.471 227.433 202.534 227.59 220.941C227.75 239.478 231.182 252.441 237.793 259.471C243.437 265.473 251.379 266.921 260.75 263.643C267.277 261.359 274.274 256.874 280.947 250.788C284.722 247.327 288.22 243.574 291.407 239.564C300.898 227.674 307.22 214.375 308.754 203.079C307.342 214.377 301.002 227.715 291.485 239.64C288.29 243.658 284.785 247.419 281.001 250.889C274.307 256.993 267.293 261.495 260.739 263.784C251.327 267.069 243.356 265.62 237.688 259.596C231.064 252.55 227.622 239.562 227.463 220.996C227.304 202.611 224.585 188.562 219.362 179.249C214.675 170.877 208.013 166.341 199.557 165.77C190.077 165.13 178.418 169.578 165.841 178.636C161.721 181.625 157.777 184.847 154.027 188.288C146.449 195.199 138.988 203.378 132.265 212.206C138.733 203.536 146.002 195.493 153.976 188.185Z" fill="#A2A2C9" fill-opacity="0.05"/>
<path d="M181.041 114.207C179.901 122.617 176.095 132.137 170.315 141.359L211.07 169.713C214.296 171.959 217.061 175.137 219.368 179.247C224.583 188.564 227.31 202.609 227.468 220.992C227.627 239.558 231.065 252.544 237.692 259.591C238.092 260.018 238.51 260.405 238.936 260.787L240.859 262.125C246.171 265.823 252.968 266.357 260.754 263.647C267.281 261.362 274.277 256.878 280.95 250.792C284.726 247.33 288.225 243.577 291.412 239.567C300.902 227.677 307.226 214.378 308.758 203.081L181.041 114.207Z" fill="#A2A2C9" fill-opacity="0.05"/>
<path d="M240.855 262.131L113.145 173.258L113.381 173.419L241.092 262.291C241.012 262.238 240.934 262.185 240.855 262.131Z" fill="#A2A2C9" fill-opacity="0.05"/>
<path d="M241.092 262.291L113.389 173.417C113.782 173.686 114.19 173.934 114.602 174.166L242.314 263.038C241.899 262.802 241.494 262.553 241.1 262.289" fill="#A2A2C9" fill-opacity="0.05"/>
<path d="M242.306 263.039L114.594 174.168C114.986 174.387 115.387 174.598 115.787 174.779L243.497 263.651C243.093 263.462 242.695 263.258 242.305 263.038" fill="#A2A2C9" fill-opacity="0.05"/>
<path d="M243.497 263.651L115.788 174.78C116.176 174.961 116.573 175.129 116.974 175.281L244.685 264.153C244.284 264.001 243.888 263.833 243.498 263.653" fill="#A2A2C9" fill-opacity="0.05"/>
<path d="M244.685 264.152L116.974 175.281C117.365 175.429 117.764 175.564 118.169 175.687L245.881 264.558C245.475 264.437 245.077 264.302 244.685 264.152Z" fill="#A2A2C9" fill-opacity="0.05"/>
<path d="M245.881 264.558L118.169 175.686C118.567 175.801 118.974 175.909 119.391 176.009L247.102 264.882C246.691 264.789 246.284 264.681 245.881 264.558Z" fill="#A2A2C9" fill-opacity="0.05"/>
<path d="M247.097 264.877L119.387 176.004C119.799 176.099 120.218 176.178 120.641 176.244L248.351 265.117C247.928 265.051 247.51 264.971 247.097 264.877Z" fill="#A2A2C9" fill-opacity="0.05"/>
<path d="M248.352 265.117L120.642 176.244C121.072 176.311 121.508 176.363 121.953 176.399L249.664 265.272C249.222 265.233 248.787 265.181 248.352 265.117Z" fill="#A2A2C9" fill-opacity="0.05"/>
<path d="M249.66 265.275L121.95 176.402C122.403 176.443 122.864 176.466 123.329 176.476L251.039 265.349C250.575 265.338 250.115 265.314 249.66 265.275Z" fill="#A2A2C9" fill-opacity="0.05"/>
<path d="M251.039 265.348L123.332 176.481C123.819 176.491 124.313 176.485 124.811 176.463L252.522 265.336C252.023 265.358 251.53 265.364 251.042 265.354" fill="#A2A2C9" fill-opacity="0.05"/>
<path d="M252.517 265.331L124.807 176.458C125.341 176.432 125.882 176.389 126.431 176.329L254.146 265.208C253.598 265.269 253.056 265.313 252.522 265.337" fill="#A2A2C9" fill-opacity="0.05"/>
<path d="M254.146 265.208L126.436 176.335C127.042 176.266 127.657 176.174 128.28 176.06L255.991 264.932C255.369 265.047 254.754 265.139 254.146 265.208Z" fill="#A2A2C9" fill-opacity="0.05"/>
<path d="M255.986 264.926L128.281 176.049C128.988 175.919 129.707 175.758 130.439 175.567L258.141 264.445C257.41 264.635 256.69 264.797 255.982 264.929" fill="#A2A2C9" fill-opacity="0.05"/>
<path d="M258.141 264.445L130.43 175.573C131.284 175.348 132.153 175.082 133.035 174.775L133.206 174.714L260.923 263.582L260.753 263.642C259.87 263.949 259.002 264.215 258.148 264.44" fill="#A2A2C9" fill-opacity="0.05"/>
<path d="M260.923 263.583L133.21 174.712C134.712 174.175 136.182 173.555 137.614 172.853L265.326 261.724C263.893 262.427 262.423 263.048 260.92 263.585" fill="#A2A2C9" fill-opacity="0.05"/>
<path d="M265.325 261.725L137.613 172.853C141.632 170.897 145.75 168.196 149.802 164.884L277.512 253.757C273.459 257.066 269.342 259.769 265.325 261.725Z" fill="#A2A2C9" fill-opacity="0.05"/>
<path d="M277.512 253.756L149.801 164.882C150.953 163.941 152.097 162.952 153.235 161.915C153.91 161.297 154.581 160.665 155.25 160.019L282.96 248.892C282.292 249.539 281.621 250.171 280.946 250.787C279.81 251.823 278.665 252.812 277.511 253.755" fill="#A2A2C9" fill-opacity="0.05"/>
<path d="M282.961 248.893L155.251 160.02C156.508 158.802 157.752 157.525 158.975 156.199L286.687 245.071C285.463 246.398 284.221 247.672 282.961 248.893Z" fill="#A2A2C9" fill-opacity="0.05"/>
<path d="M286.686 245.071L158.975 156.199C160.003 155.083 161.016 153.931 162.014 152.745L289.725 241.618C288.728 242.804 287.715 243.955 286.686 245.071Z" fill="#A2A2C9" fill-opacity="0.05"/>
<path d="M289.725 241.618L162.014 152.745C162.582 152.071 163.142 151.387 163.697 150.692C164.011 150.298 164.323 149.901 164.631 149.503L292.342 238.375C292.034 238.775 291.722 239.171 291.407 239.564C290.853 240.26 290.292 240.944 289.725 241.618Z" fill="#A2A2C9" fill-opacity="0.05"/>
<path d="M292.342 238.375L164.633 149.501C165.414 148.493 166.172 147.476 166.908 146.45L294.618 235.323C293.886 236.347 293.128 237.364 292.344 238.374" fill="#A2A2C9" fill-opacity="0.05"/>
<path d="M294.617 235.324L166.906 146.452C167.598 145.487 168.268 144.517 168.916 143.541L296.628 232.413C295.98 233.389 295.309 234.359 294.617 235.324Z" fill="#A2A2C9" fill-opacity="0.05"/>
<path d="M296.627 232.413L168.915 143.541C169.53 142.616 170.125 141.687 170.699 140.755L298.413 229.633C297.84 230.565 297.245 231.493 296.631 232.418" fill="#A2A2C9" fill-opacity="0.05"/>
<path d="M298.414 229.632L170.703 140.759C171.26 139.863 171.793 138.964 172.305 138.064L300.019 226.925C299.504 227.828 298.97 228.727 298.416 229.622" fill="#A2A2C9" fill-opacity="0.05"/>
<path d="M300.02 226.926L172.301 138.059C172.798 137.19 173.276 136.321 173.736 135.451L301.446 224.323C300.983 225.189 300.506 226.058 300.013 226.93" fill="#A2A2C9" fill-opacity="0.05"/>
<path d="M301.445 224.323L173.735 135.451C174.183 134.605 174.612 133.76 175.022 132.916L302.733 221.789C302.32 222.633 301.89 223.478 301.444 224.324" fill="#A2A2C9" fill-opacity="0.05"/>
<path d="M302.733 221.789L175.022 132.916C175.43 132.091 175.816 131.263 176.18 130.433L303.889 219.301C303.519 220.127 303.133 220.954 302.731 221.784" fill="#A2A2C9" fill-opacity="0.05"/>
<path d="M303.889 219.301L176.178 130.429C176.54 129.615 176.884 128.804 177.212 127.997L304.922 216.869C304.596 217.677 304.252 218.487 303.889 219.301Z" fill="#A2A2C9" fill-opacity="0.05"/>
<path d="M304.925 216.873L177.216 128.002C177.54 127.199 177.847 126.399 178.137 125.602L305.848 214.474C305.56 215.272 305.253 216.072 304.926 216.874" fill="#A2A2C9" fill-opacity="0.05"/>
<path d="M305.847 214.473L178.137 125.6C178.426 124.802 178.697 124.007 178.951 123.215L306.662 212.088C306.409 212.878 306.137 213.673 305.847 214.473Z" fill="#A2A2C9" fill-opacity="0.05"/>
<path d="M306.662 212.09L178.952 123.217C179.21 122.413 179.448 121.615 179.667 120.822L307.377 209.694C307.16 210.486 306.922 211.285 306.662 212.09Z" fill="#A2A2C9" fill-opacity="0.05"/>
<path d="M307.378 209.695L179.667 120.822C179.894 120.002 180.098 119.188 180.281 118.381L307.992 207.253C307.808 208.06 307.603 208.874 307.378 209.695Z" fill="#A2A2C9" fill-opacity="0.05"/>
<path d="M307.991 207.253L180.281 118.381C180.472 117.532 180.641 116.69 180.788 115.854L308.498 204.727C308.354 205.56 308.185 206.402 307.991 207.253Z" fill="#A2A2C9" fill-opacity="0.05"/>
<path d="M308.499 204.727L180.789 115.854C180.884 115.301 180.969 114.752 181.043 114.207L308.755 203.079C308.681 203.624 308.595 204.173 308.499 204.727Z" fill="#A2A2C9" fill-opacity="0.05"/>
<path d="M83.4503 80.7094L211.161 169.582C207.794 167.24 203.945 165.922 199.612 165.626C190.101 164.984 178.413 169.441 165.804 178.522C161.679 181.514 157.73 184.741 153.975 188.187L26.2648 99.3142C30.0198 95.869 33.9693 92.642 38.0938 89.6491C50.7021 80.5708 62.3844 76.1158 71.9014 76.7535C76.221 77.0474 80.0841 78.369 83.4503 80.7094Z" fill="#A2A2C9" fill-opacity="0.05"/>
<path d="M153.978 188.185L26.2682 99.3118C28.2297 97.5217 30.2006 95.8171 32.1684 94.2085L159.879 183.081C157.914 184.691 155.941 186.394 153.978 188.185Z" fill="#A2A2C9" fill-opacity="0.05"/>
<path d="M159.878 183.081L32.1675 94.2084C34.1493 92.5859 36.13 91.0621 38.095 89.6476C42.5641 86.4296 46.918 83.7924 51.0988 81.7556L178.809 170.628C174.627 172.664 170.274 175.302 165.805 178.52C163.838 179.933 161.862 181.453 159.878 183.081Z" fill="#A2A2C9" fill-opacity="0.05"/>
<path d="M178.811 170.628L51.1011 81.7549C53.1365 80.7583 55.2259 79.8762 57.3597 79.1127L185.07 167.985C182.936 168.749 180.847 169.631 178.811 170.628Z" fill="#A2A2C9" fill-opacity="0.05"/>
<path d="M185.07 167.985L57.3594 79.1125C58.6733 78.6468 59.9655 78.2474 61.2359 77.9142L188.947 166.788C187.678 167.121 186.385 167.52 185.071 167.987" fill="#A2A2C9" fill-opacity="0.05"/>
<path d="M188.947 166.789L61.2393 77.9116C62.234 77.6496 63.2141 77.4302 64.1793 77.2534L191.89 166.126C190.924 166.303 189.944 166.522 188.95 166.784" fill="#A2A2C9" fill-opacity="0.05"/>
<path d="M191.886 166.129L64.1719 77.2592C64.9964 77.1074 65.8101 76.9861 66.613 76.8952L194.325 165.767C193.522 165.858 192.708 165.979 191.882 166.132" fill="#A2A2C9" fill-opacity="0.05"/>
<path d="M194.328 165.764L66.6167 76.8921C67.339 76.8097 68.0513 76.7524 68.7537 76.7203L196.465 165.592C195.763 165.624 195.051 165.681 194.328 165.764Z" fill="#A2A2C9" fill-opacity="0.05"/>
<path d="M196.466 165.592L68.7539 76.7203C69.3999 76.6914 70.037 76.6835 70.6651 76.6966L198.373 165.571C197.744 165.559 197.107 165.567 196.462 165.595" fill="#A2A2C9" fill-opacity="0.05"/>
<path d="M198.373 165.571L70.6616 76.6996C71.0786 76.7083 71.4917 76.7265 71.901 76.7542C72.075 76.7653 72.2473 76.7796 72.4196 76.7939L200.131 165.666C199.959 165.651 199.785 165.638 199.611 165.627C199.203 165.599 198.79 165.58 198.372 165.572" fill="#A2A2C9" fill-opacity="0.05"/>
<path d="M200.134 165.663L72.4219 76.791C72.99 76.8393 73.5464 76.9066 74.0911 76.993L201.802 165.863C201.254 165.78 200.697 165.712 200.133 165.661" fill="#A2A2C9" fill-opacity="0.05"/>
<path d="M201.803 165.865L74.0928 76.9946C74.6305 77.0767 75.1597 77.1769 75.6806 77.2951L203.398 166.163C202.877 166.045 202.347 165.944 201.81 165.86" fill="#A2A2C9" fill-opacity="0.05"/>
<path d="M203.397 166.162L75.687 77.2897C76.2034 77.4071 76.7128 77.5409 77.2152 77.6909L204.926 166.564C204.425 166.413 203.916 166.279 203.397 166.162Z" fill="#A2A2C9" fill-opacity="0.05"/>
<path d="M204.92 166.568L77.2095 77.6956C77.7167 77.8449 78.2145 78.0136 78.703 78.2018L206.413 167.074C205.926 166.891 205.428 166.722 204.92 166.568Z" fill="#A2A2C9" fill-opacity="0.05"/>
<path d="M206.413 167.075L78.7026 78.2025C79.2017 78.3924 79.6924 78.5995 80.1748 78.824L207.885 167.697C207.404 167.473 206.914 167.265 206.413 167.075Z" fill="#A2A2C9" fill-opacity="0.05"/>
<path d="M207.885 167.696L80.1748 78.8237C80.6781 79.0586 81.1714 79.3119 81.6546 79.5838L209.366 168.456C208.881 168.184 208.389 167.931 207.885 167.696Z" fill="#A2A2C9" fill-opacity="0.05"/>
<path d="M209.366 168.455L81.6528 79.5808C82.1624 79.8671 82.6617 80.1755 83.1509 80.5058L210.861 169.379C210.373 169.049 209.874 168.74 209.365 168.453" fill="#A2A2C9" fill-opacity="0.05"/>
<path d="M210.861 169.379L83.1504 80.5061C83.2501 80.5726 83.3494 80.6413 83.4488 80.71L211.159 169.583C211.06 169.514 210.96 169.445 210.861 169.379Z" fill="#A2A2C9" fill-opacity="0.05"/>
<path d="M132.265 212.206L4.55355 123.335C11.0218 114.664 18.2912 106.621 26.2658 99.3122L153.976 188.185C146.002 195.494 138.733 203.536 132.265 212.206Z" fill="#A2A2C9" fill-opacity="0.05"/>
<path d="M132.265 212.207L4.55296 123.335C5.15896 122.524 5.77089 121.72 6.38876 120.921L134.099 209.794C133.48 210.593 132.868 211.398 132.263 212.208" fill="#A2A2C9" fill-opacity="0.05"/>
<path d="M134.099 209.794L6.38711 120.923C7.82511 119.064 9.29583 117.242 10.7992 115.457L138.51 204.328C137.01 206.112 135.54 207.934 134.099 209.794Z" fill="#A2A2C9" fill-opacity="0.05"/>
<path d="M138.512 204.327L10.8011 115.456C12.528 113.403 14.2874 111.407 16.0795 109.467L143.79 198.34C142.003 200.279 140.245 202.285 138.513 204.328" fill="#A2A2C9" fill-opacity="0.05"/>
<path d="M143.787 198.335L16.0755 109.464C18.2429 107.108 20.4533 104.845 22.6807 102.684L150.391 191.557C148.164 193.718 145.956 195.982 143.786 198.336" fill="#A2A2C9" fill-opacity="0.05"/>
<path d="M150.393 191.556L22.6823 102.683C23.8725 101.529 25.0663 100.405 26.2635 99.3123L153.974 188.185C152.776 189.277 151.582 190.4 150.393 191.556Z" fill="#A2A2C9" fill-opacity="0.05"/>
</g>
<defs>
<filter id="filter0_f_243_3100" x="0.552734" y="72.6904" width="312.206" height="196.81" filterUnits="userSpaceOnUse" color-interpolation-filters="sRGB">
<feFlood flood-opacity="0" result="BackgroundImageFix"/>
<feBlend mode="normal" in="SourceGraphic" in2="BackgroundImageFix" result="shape"/>
<feGaussianBlur stdDeviation="2" result="effect1_foregroundBlur_243_3100"/>
</filter>
</defs>
</svg>
