<svg width="22" height="22" viewBox="0 0 22 22" fill="none" xmlns="http://www.w3.org/2000/svg">
<circle cx="11" cy="11" r="10" stroke="#D3D3E6" stroke-width="2"/>
<path d="M11.7822 17V8.90405H10.198V17H11.7822ZM10 5.86357C10 6.43928 10.4554 6.7991 11.0297 6.7991C11.5644 6.7991 12 6.43928 12 5.86357C12 5.35982 11.5644 5 11.0297 5C10.4554 5 10 5.35982 10 5.86357Z" fill="#D3D3E6"/>
<path d="M11.7822 17V8.90405H10.198V17H11.7822ZM10 5.86357C10 6.43928 10.4554 6.7991 11.0297 6.7991C11.5644 6.7991 12 6.43928 12 5.86357C12 5.35982 11.5644 5 11.0297 5C10.4554 5 10 5.35982 10 5.86357Z" stroke="#8C6DC7"/>
</svg>
