<svg width="208" height="294" viewBox="0 0 208 294" fill="none" xmlns="http://www.w3.org/2000/svg">
<path d="M99.2036 34.3211L-32.9494 94.8498C-27.0171 92.1324 -19.5742 91.6639 -10.9665 93.5076C-6.68204 94.4621 -2.49421 95.806 1.54473 97.5226C9.87154 100.997 18.6509 106.14 27.1792 112.604L159.331 52.074C150.811 45.6157 142.039 40.4705 133.701 37.0002C129.659 35.2818 125.467 33.9367 121.178 32.9819C112.575 31.1289 105.139 31.6084 99.2036 34.3211Z" fill="#A2A2C9" fill-opacity="0.06"/>
<path d="M99.2034 34.3209L-32.9496 94.8496C-27.0173 92.1322 -19.5744 91.6637 -10.9667 93.5074C-9.24997 93.8751 -7.49472 94.3353 -5.70097 94.8878L126.451 34.3575C124.66 33.8092 122.905 33.349 121.185 32.9771C112.575 31.1288 105.136 31.6035 99.2034 34.3209Z" fill="#A2A2C9" fill-opacity="0.06"/>
<path d="M126.45 34.3576L-5.70187 94.8879C-3.3404 95.6105 -0.925223 96.4887 1.54365 97.5226L1.59634 97.5443L133.748 37.0141L133.696 36.9923C131.237 35.9654 128.821 35.0871 126.45 34.3576Z" fill="#A2A2C9" fill-opacity="0.06"/>
<path d="M133.749 37.0139L1.59655 97.5442C3.67769 98.4136 5.78198 99.385 7.90936 100.459L140.061 39.9283C137.937 38.8573 135.833 37.8858 133.749 37.0139Z" fill="#A2A2C9" fill-opacity="0.06"/>
<path d="M140.062 39.9286L7.9102 100.459C9.80874 101.417 11.7188 102.452 13.6403 103.564L145.792 43.0341C143.873 41.9231 141.963 40.8879 140.062 39.9286Z" fill="#A2A2C9" fill-opacity="0.06"/>
<path d="M145.791 43.034L13.6394 103.564C15.3976 104.584 17.1589 105.665 18.9233 106.806L151.076 46.2776C149.314 45.1351 147.552 44.054 145.791 43.034Z" fill="#A2A2C9" fill-opacity="0.06"/>
<path d="M151.076 46.2773L18.9232 106.806C20.5569 107.865 22.1866 108.975 23.8122 110.136L155.964 49.6053C154.34 48.4523 152.711 47.3429 151.076 46.2773Z" fill="#A2A2C9" fill-opacity="0.06"/>
<path d="M155.969 49.6025L23.8169 110.133C24.9396 110.931 26.0574 111.753 27.1705 112.598L159.323 52.0677C158.208 51.2235 157.092 50.4044 155.974 49.6104" fill="#A2A2C9" fill-opacity="0.06"/>
<path d="M133.691 36.8271C129.646 35.1081 125.451 33.7624 121.16 32.8068C108.32 30.0513 98.077 32.4484 91.546 39.7366C85.7134 46.2389 82.8366 56.4891 82.996 70.2031C83.1712 85.4396 87.1249 104.9 94.7395 128.033C102.41 151.333 105.396 169.895 103.614 183.2C102.094 194.56 97.0134 201.781 88.9276 204.085C83.2958 205.692 76.4014 204.844 69.0706 201.783C65.0871 200.116 60.9784 197.806 56.8656 194.876C45.078 186.476 34.9653 174.152 29.1295 161.06C34.8852 174.234 45.0255 186.595 56.847 195.017C60.9675 197.953 65.0892 200.274 69.0783 201.94C76.4318 205.001 83.3542 205.853 89.0022 204.245C97.107 201.945 102.197 194.697 103.742 183.289C105.528 169.953 102.537 151.357 94.8568 128.021C87.2541 104.908 83.3024 85.4806 83.1254 70.2662C82.9668 56.5896 85.8332 46.3685 91.647 39.8878C98.1668 32.6167 108.383 30.2286 121.195 32.9778C125.477 33.9339 129.663 35.2791 133.7 36.9965C142.027 40.4724 150.806 45.6139 159.33 52.0704C150.823 45.4591 142.03 40.3071 133.691 36.8271Z" fill="#A2A2C9" fill-opacity="0.06"/>
<path d="M99.1276 34.1552L-33.0245 94.6855C-35.914 96.0017 -38.4988 97.9036 -40.615 100.27C-46.4467 106.774 -49.3235 117.024 -49.1641 130.738C-48.9889 145.975 -45.0352 165.435 -37.4206 188.568C-29.7505 211.868 -26.7645 230.431 -28.546 243.736C-29.8962 253.826 -34.0549 260.652 -40.6348 263.665L91.5173 203.135C98.0972 200.121 102.255 193.294 103.606 183.205C105.391 169.899 102.402 151.338 94.7306 128.036C87.116 104.903 83.1641 85.4462 82.9871 70.2066C82.8277 56.4927 85.7044 46.2424 91.5371 39.7401C93.6529 37.3729 96.2378 35.471 99.1276 34.1552Z" fill="#A2A2C9" fill-opacity="0.06"/>
<path d="M99.1263 34.1562L-33.0258 94.6864C-33.69 94.9901 -34.3368 95.3236 -34.9671 95.6853L97.1796 35.1603C97.8072 34.7939 98.454 34.4604 99.12 34.1598" fill="#A2A2C9" fill-opacity="0.06"/>
<path d="M97.18 35.1602L-34.9715 95.688C-35.5865 96.0471 -36.1833 96.4291 -36.7617 96.834L95.3888 36.3046C95.9675 35.8954 96.5646 35.5139 97.18 35.1602Z" fill="#A2A2C9" fill-opacity="0.06"/>
<path d="M95.389 36.3039L-36.7694 96.8379C-37.2827 97.2006 -37.7814 97.5849 -38.2653 97.9907L93.8946 37.4558C94.3782 37.0516 94.8795 36.6707 95.389 36.3039Z" fill="#A2A2C9" fill-opacity="0.06"/>
<path d="M93.8939 37.4565L-38.2582 97.9868C-38.6983 98.3572 -39.1268 98.7439 -39.5375 99.1539L92.6146 38.6236C93.028 38.2183 93.4565 37.8316 93.8939 37.4565Z" fill="#A2A2C9" fill-opacity="0.06"/>
<path d="M92.6117 38.6187L-39.5404 99.149C-39.9124 99.5063 -40.2712 99.8803 -40.6167 100.271L-40.6599 100.319L91.4887 39.787L91.532 39.7386C91.8793 39.351 92.2377 38.9764 92.6073 38.615" fill="#A2A2C9" fill-opacity="0.06"/>
<path d="M91.4889 39.7867L-40.6641 100.315C-41.0132 100.708 -41.3519 101.112 -41.6762 101.537L90.4784 41.0071C90.8064 40.5887 91.1437 40.1816 91.4905 39.7858" fill="#A2A2C9" fill-opacity="0.06"/>
<path d="M90.4794 41.007L-41.6727 101.537C-41.9892 101.943 -42.2954 102.359 -42.5933 102.789L89.5633 42.2521C89.8611 41.8218 90.1673 41.4057 90.4838 41.0002" fill="#A2A2C9" fill-opacity="0.06"/>
<path d="M89.5628 42.2525L-42.5893 102.783C-42.8789 103.202 -43.1612 103.634 -43.4322 104.078L88.7136 43.551C88.9855 43.1086 89.2669 42.6753 89.5565 42.2562" fill="#A2A2C9" fill-opacity="0.06"/>
<path d="M88.7132 43.5509L-43.4389 104.081C-43.707 104.518 -43.9659 104.968 -44.2155 105.432L87.9375 44.9031C88.1869 44.4402 88.4461 43.9905 88.7132 43.5509Z" fill="#A2A2C9" fill-opacity="0.06"/>
<path d="M87.9368 44.9033L-44.2162 105.432C-44.4643 105.893 -44.7039 106.366 -44.9348 106.85L87.2172 46.3193C87.4482 45.8357 87.6881 45.3637 87.9368 44.9033Z" fill="#A2A2C9" fill-opacity="0.06"/>
<path d="M87.2181 46.3191L-44.934 106.849C-45.1662 107.338 -45.3886 107.838 -45.601 108.348L86.5495 47.8188C86.764 47.307 86.9869 46.807 87.2181 46.3191Z" fill="#A2A2C9" fill-opacity="0.06"/>
<path d="M86.5492 47.8188L-45.6013 108.348C-45.819 108.869 -46.0267 109.402 -46.2244 109.947L85.9276 49.4172C86.1259 48.8728 86.3331 48.34 86.5492 47.8188Z" fill="#A2A2C9" fill-opacity="0.06"/>
<path d="M85.9271 49.4176L-46.225 109.948C-46.4281 110.51 -46.6211 111.085 -46.8042 111.673L85.3497 51.1456C85.5328 50.5583 85.7258 49.9833 85.9289 49.4207" fill="#A2A2C9" fill-opacity="0.06"/>
<path d="M85.3509 51.1451L-46.8012 111.675C-46.9914 112.287 -47.1703 112.912 -47.338 113.552L84.8141 53.0218C84.9818 52.3818 85.1607 51.7562 85.3509 51.1451Z" fill="#A2A2C9" fill-opacity="0.06"/>
<path d="M84.8118 53.0186L-47.3402 113.549C-47.5183 114.222 -47.682 114.91 -47.8315 115.615L84.3206 55.0852C84.4712 54.3823 84.635 53.6934 84.8118 53.0186Z" fill="#A2A2C9" fill-opacity="0.06"/>
<path d="M84.3206 55.0851L-47.8314 115.615C-47.9929 116.369 -48.1401 117.142 -48.2732 117.932L83.8789 57.4021C84.0109 56.6121 84.1581 55.8397 84.3206 55.0851Z" fill="#A2A2C9" fill-opacity="0.06"/>
<path d="M83.8783 57.4025L-48.2738 117.933C-48.4198 118.793 -48.5467 119.674 -48.6546 120.578L83.4975 60.0475C83.6054 59.1441 83.7323 58.2624 83.8783 57.4025Z" fill="#A2A2C9" fill-opacity="0.06"/>
<path d="M83.4984 60.0481L-48.6537 120.578C-48.7768 121.583 -48.8768 122.613 -48.9538 123.668L83.1983 63.1376C83.2822 62.0801 83.3822 61.0502 83.4984 60.0481Z" fill="#A2A2C9" fill-opacity="0.06"/>
<path d="M83.1947 63.1392L-48.9564 123.671C-49.0463 124.879 -49.108 126.12 -49.1417 127.393L83.0104 66.8629C83.041 65.5844 83.1027 64.3436 83.1956 63.1407" fill="#A2A2C9" fill-opacity="0.06"/>
<path d="M83.0091 66.8608L-49.143 127.391C-49.1703 128.483 -49.178 129.599 -49.1659 130.739C-49.1603 131.171 -49.1524 131.607 -49.1421 132.045L83.01 71.5144C83.0002 71.0747 82.9922 70.6395 82.9862 70.2088C82.973 69.0692 82.9807 67.9532 83.0091 66.8608Z" fill="#A2A2C9" fill-opacity="0.06"/>
<path d="M83.0101 71.5146L-49.142 132.045C-49.0928 133.989 -48.9841 135.998 -48.8157 138.074L83.3327 77.5374C83.165 75.4627 83.0562 73.453 83.0064 71.5083" fill="#A2A2C9" fill-opacity="0.06"/>
<path d="M83.3333 77.5379L-48.8188 138.068C-48.5996 140.798 -48.2746 143.637 -47.8439 146.585L84.3082 86.0544C83.8843 83.1038 83.5594 80.265 83.3333 77.5379Z" fill="#A2A2C9" fill-opacity="0.06"/>
<path d="M84.3052 86.064L-47.8469 146.594C-47.1348 151.535 -46.1386 156.78 -44.8582 162.329L87.2985 101.796C86.0173 96.2505 85.0211 91.0055 84.3099 86.0612" fill="#A2A2C9" fill-opacity="0.06"/>
<path d="M87.2992 101.796L-44.8529 162.327C-42.9795 170.446 -40.5008 179.192 -37.4168 188.566C-34.9755 195.981 -33.0097 202.91 -31.5194 209.352L100.633 148.822C99.1369 142.387 97.1692 135.459 94.7297 128.037C91.6492 118.677 89.1705 109.93 87.2935 101.797" fill="#A2A2C9" fill-opacity="0.06"/>
<path d="M100.628 148.825L-31.5238 209.355C-30.4923 213.812 -29.6906 218.03 -29.1187 222.008L103.034 161.479C102.461 157.502 101.659 153.284 100.628 148.825Z" fill="#A2A2C9" fill-opacity="0.06"/>
<path d="M103.033 161.479L-29.1211 222.009C-28.7774 224.38 -28.5168 226.665 -28.3394 228.865L103.812 168.33C103.633 166.133 103.373 163.849 103.032 161.476" fill="#A2A2C9" fill-opacity="0.06"/>
<path d="M103.812 168.33L-28.3402 228.861C-28.1987 230.544 -28.1102 232.181 -28.0747 233.769L104.077 173.239C104.039 171.655 103.95 170.019 103.812 168.33Z" fill="#A2A2C9" fill-opacity="0.06"/>
<path d="M104.08 173.242L-28.0725 233.773C-28.0388 235.072 -28.0384 236.338 -28.0715 237.569L104.085 177.036C104.118 175.806 104.118 174.541 104.084 173.24" fill="#A2A2C9" fill-opacity="0.06"/>
<path d="M104.085 177.036L-28.0668 237.566C-28.0943 238.598 -28.1427 239.607 -28.2122 240.593L103.94 180.062C104.013 179.08 104.061 178.071 104.085 177.036Z" fill="#A2A2C9" fill-opacity="0.06"/>
<path d="M103.931 180.057L-28.2211 240.588C-28.2803 241.447 -28.3624 242.292 -28.4674 243.121L103.685 182.59C103.783 181.765 103.866 180.921 103.931 180.057Z" fill="#A2A2C9" fill-opacity="0.06"/>
<path d="M103.685 182.59L-28.4672 243.12C-28.4938 243.327 -28.5188 243.533 -28.5472 243.736C-28.6163 244.256 -28.6918 244.764 -28.7775 245.266L103.375 184.736C103.458 184.236 103.535 183.726 103.605 183.206C103.633 183.003 103.658 182.797 103.685 182.59Z" fill="#A2A2C9" fill-opacity="0.06"/>
<path d="M103.374 184.736L-28.7777 245.266C-28.8845 245.9 -29.003 246.521 -29.1331 247.129L103.019 186.599C103.151 185.991 103.269 185.37 103.374 184.736Z" fill="#A2A2C9" fill-opacity="0.06"/>
<path d="M103.019 186.599L-29.1332 247.129C-29.2551 247.696 -29.3871 248.251 -29.5291 248.793L102.623 188.263C102.766 187.722 102.898 187.167 103.019 186.599Z" fill="#A2A2C9" fill-opacity="0.06"/>
<path d="M102.623 188.263L-29.5287 248.793C-29.6637 249.309 -29.8081 249.814 -29.962 250.307L102.19 189.777C102.344 189.283 102.488 188.779 102.623 188.263Z" fill="#A2A2C9" fill-opacity="0.06"/>
<path d="M102.191 189.778L-29.9613 250.309C-30.1068 250.78 -30.2577 251.242 -30.4285 251.699L101.724 191.169C101.882 190.719 102.044 190.251 102.191 189.778Z" fill="#A2A2C9" fill-opacity="0.06"/>
<path d="M101.724 191.169L-30.4281 251.699C-30.5906 252.142 -30.7596 252.573 -30.9349 252.993L101.217 192.463C101.392 192.042 101.561 191.61 101.724 191.169Z" fill="#A2A2C9" fill-opacity="0.06"/>
<path d="M101.221 192.46L-30.9311 252.99C-31.1095 253.406 -31.2824 253.805 -31.4704 254.196L100.683 193.668C100.874 193.275 101.054 192.873 101.221 192.46Z" fill="#A2A2C9" fill-opacity="0.06"/>
<path d="M100.684 193.668L-31.4692 254.197C-31.6603 254.59 -31.8454 254.965 -32.0447 255.333L100.107 194.803C100.311 194.432 100.5 194.055 100.684 193.668Z" fill="#A2A2C9" fill-opacity="0.06"/>
<path d="M100.107 194.802L-32.0453 255.333C-32.2493 255.704 -32.4555 256.063 -32.6638 256.41L99.4883 195.88C99.7039 195.528 99.9101 195.169 100.107 194.802Z" fill="#A2A2C9" fill-opacity="0.06"/>
<path d="M99.4886 195.88L-32.6635 256.411C-32.8785 256.763 -33.1008 257.103 -33.3304 257.43L98.8217 196.9C99.0495 196.57 99.2718 196.23 99.4886 195.88Z" fill="#A2A2C9" fill-opacity="0.06"/>
<path d="M98.8197 196.907L-33.3324 257.437C-33.5668 257.776 -33.8086 258.104 -34.0578 258.422L98.0952 197.893C98.3449 197.574 98.5864 197.245 98.8197 196.907Z" fill="#A2A2C9" fill-opacity="0.06"/>
<path d="M98.096 197.894L-34.057 258.423C-34.3135 258.751 -34.5772 259.067 -34.8505 259.373L97.3016 198.843C97.5764 198.543 97.8412 198.226 98.096 197.894Z" fill="#A2A2C9" fill-opacity="0.06"/>
<path d="M97.3011 198.842L-34.851 259.373C-35.135 259.69 -35.4286 259.998 -35.7304 260.292L96.4218 199.761C96.7236 199.467 97.018 199.161 97.3011 198.842Z" fill="#A2A2C9" fill-opacity="0.06"/>
<path d="M96.4222 199.762L-35.7299 260.292C-36.0484 260.604 -36.3777 260.901 -36.7142 261.186L95.4379 200.656C95.7751 200.373 96.1032 200.075 96.4222 199.762Z" fill="#A2A2C9" fill-opacity="0.06"/>
<path d="M95.4368 200.655L-36.7152 261.186C-37.0844 261.495 -37.4645 261.787 -37.8554 262.062L94.2967 201.531C94.6864 201.255 95.0665 200.963 95.4368 200.655Z" fill="#A2A2C9" fill-opacity="0.06"/>
<path d="M94.2982 201.534L-37.854 262.064C-38.2931 262.374 -38.7463 262.663 -39.2136 262.932L92.944 202.411C93.4084 202.14 93.8613 201.85 94.3028 201.542" fill="#A2A2C9" fill-opacity="0.06"/>
<path d="M92.9437 202.411L-39.2093 262.94C-39.669 263.209 -40.1443 263.45 -40.6321 263.674L91.52 203.144C92.0075 202.92 92.4821 202.675 92.9437 202.411Z" fill="#A2A2C9" fill-opacity="0.06"/>
<path d="M-40.5561 263.829L91.5959 203.299C90.7515 203.685 89.8788 204.005 88.9854 204.257C83.3363 205.874 76.4195 205.021 69.0614 201.952C65.0732 200.288 60.9507 197.965 56.8302 195.029C45.0086 186.607 34.8683 174.246 29.1126 161.072L-103.038 221.601C-97.2837 234.776 -87.1434 247.137 -75.3219 255.559C-71.2014 258.495 -67.0797 260.817 -63.0907 262.482C-55.7325 265.551 -48.8147 266.396 -43.1667 264.788C-42.2735 264.534 -41.4009 264.214 -40.5561 263.829Z" fill="#A2A2C9" fill-opacity="0.06"/>
<path d="M29.1136 161.073L-103.037 221.602C-102.932 221.848 -102.822 222.093 -102.712 222.335L29.4408 161.806C29.3299 161.562 29.2205 161.317 29.1136 161.073Z" fill="#A2A2C9" fill-opacity="0.06"/>
<path d="M29.4397 161.806L-102.713 222.335C-102.382 223.072 -102.036 223.806 -101.678 224.538L30.4744 164.007C30.1156 163.278 29.7703 162.542 29.4397 161.806Z" fill="#A2A2C9" fill-opacity="0.06"/>
<path d="M30.4759 164.007L-101.676 224.537C-101.337 225.229 -100.986 225.917 -100.624 226.602L31.5278 166.072C31.1657 165.387 30.8151 164.699 30.4759 164.007Z" fill="#A2A2C9" fill-opacity="0.06"/>
<path d="M31.5277 166.072L-100.624 226.603C-100.267 227.275 -99.9004 227.943 -99.525 228.608L32.6262 168.076C32.248 167.412 31.8815 166.743 31.5268 166.071" fill="#A2A2C9" fill-opacity="0.06"/>
<path d="M32.6254 168.077L-99.5274 228.609C-99.1507 229.276 -98.7637 229.939 -98.3664 230.598L33.7857 170.068C33.3863 169.41 32.9993 168.747 32.6247 168.079" fill="#A2A2C9" fill-opacity="0.06"/>
<path d="M33.7911 170.065L-98.3657 230.598C-97.9631 231.262 -97.5509 231.925 -97.1286 232.58L35.0244 172.051C34.6017 171.394 34.189 170.733 33.7864 170.067" fill="#A2A2C9" fill-opacity="0.06"/>
<path d="M35.0279 172.048L-97.1251 232.577C-96.6949 233.242 -96.2554 233.902 -95.8067 234.558L36.3454 174.027C35.8951 173.371 35.4559 172.712 35.0279 172.048Z" fill="#A2A2C9" fill-opacity="0.06"/>
<path d="M36.3463 174.027L-95.8058 234.558C-95.35 235.223 -94.8846 235.882 -94.4095 236.535L37.7471 176.013C37.2715 175.359 36.806 174.7 36.3508 174.035" fill="#A2A2C9" fill-opacity="0.06"/>
<path d="M37.7468 176.013L-94.4053 236.543C-93.922 237.205 -93.43 237.86 -92.9291 238.509L39.2106 177.976C38.7097 177.327 38.2176 176.671 37.7344 176.009" fill="#A2A2C9" fill-opacity="0.06"/>
<path d="M39.211 177.976L-92.9412 238.506C-92.4325 239.166 -91.912 239.818 -91.3795 240.461L40.7726 179.93C40.2443 179.285 39.7238 178.634 39.211 177.976Z" fill="#A2A2C9" fill-opacity="0.06"/>
<path d="M40.7717 179.93L-91.3727 240.467C-90.8351 241.121 -90.2882 241.768 -89.732 242.409L42.4201 181.878C41.8634 181.239 41.3165 180.592 40.7794 179.936" fill="#A2A2C9" fill-opacity="0.06"/>
<path d="M42.4155 181.87L-89.7366 242.4C-89.1722 243.05 -88.5968 243.693 -88.0071 244.332L44.1435 183.803C43.5601 183.171 42.9841 182.527 42.4155 181.87Z" fill="#A2A2C9" fill-opacity="0.06"/>
<path d="M44.1404 183.795L-88.0102 244.324C-87.4134 244.972 -86.8075 245.609 -86.1925 246.234L45.958 185.705C45.3459 185.082 44.7401 184.445 44.1404 183.795Z" fill="#A2A2C9" fill-opacity="0.06"/>
<path d="M45.9576 185.705L-86.1929 246.235C-85.5622 246.878 -84.9224 247.51 -84.2735 248.132L47.8785 187.601C47.2339 186.977 46.5935 186.345 45.9576 185.705Z" fill="#A2A2C9" fill-opacity="0.06"/>
<path d="M47.8785 187.601L-84.2736 248.131C-83.6068 248.769 -82.9308 249.395 -82.2455 250.009L49.9065 189.479C49.2219 188.866 48.5458 188.24 47.8785 187.601Z" fill="#A2A2C9" fill-opacity="0.06"/>
<path d="M49.9064 189.479L-82.2457 250.009C-81.5343 250.648 -80.8131 251.272 -80.0821 251.881L52.0684 191.351C51.3384 190.742 50.6172 190.119 49.9048 189.48" fill="#A2A2C9" fill-opacity="0.06"/>
<path d="M52.069 191.351L-80.0831 251.881C-79.3233 252.515 -78.5538 253.134 -77.7747 253.738L54.3752 193.201C53.601 192.595 52.8315 191.976 52.0669 191.344" fill="#A2A2C9" fill-opacity="0.06"/>
<path d="M54.3749 193.201L-77.7771 253.731C-76.9701 254.357 -76.1525 254.964 -75.3245 255.554L-75.3162 255.568L56.8359 195.038L56.8276 195.024C56.0023 194.434 55.1847 193.826 54.3749 193.201Z" fill="#A2A2C9" fill-opacity="0.06"/>
<path d="M56.8449 195.041L-75.3071 255.571C-74.4109 256.208 -73.5154 256.817 -72.6206 257.398L59.5315 196.868C58.6331 196.29 57.7376 195.681 56.8449 195.041Z" fill="#A2A2C9" fill-opacity="0.06"/>
<path d="M59.5322 196.868L-72.6199 257.398C-71.6614 258.016 -70.7047 258.603 -69.7497 259.158L62.4024 198.627C61.4486 198.075 60.4919 197.488 59.5322 196.868Z" fill="#A2A2C9" fill-opacity="0.06"/>
<path d="M62.4029 198.627L-69.7491 259.157C-68.7041 259.763 -67.6627 260.328 -66.6251 260.851L65.5269 200.321C64.49 199.799 63.4486 199.234 62.4029 198.627Z" fill="#A2A2C9" fill-opacity="0.06"/>
<path d="M65.5258 200.321L-66.6262 260.851C-65.4489 261.446 -64.2798 261.985 -63.1188 262.47L69.0333 201.94C67.8739 201.455 66.7048 200.916 65.5258 200.321Z" fill="#A2A2C9" fill-opacity="0.06"/>
<path d="M69.0334 201.94L-63.1187 262.47L-63.0902 262.483C-61.6604 263.079 -60.2494 263.591 -58.8571 264.018L73.2949 203.488C71.9048 203.06 70.4937 202.548 69.0619 201.952L69.0334 201.94Z" fill="#A2A2C9" fill-opacity="0.06"/>
<path d="M73.295 203.488L-58.8571 264.019C-53.0941 265.789 -47.7207 266.086 -43.1662 264.788C-42.273 264.535 -41.4003 264.215 -40.5556 263.83L91.5965 203.299C90.7521 203.685 89.8793 204.006 88.9859 204.258C84.4323 205.557 79.0533 205.262 73.295 203.488Z" fill="#A2A2C9" fill-opacity="0.06"/>
</svg>
