<svg width="239" height="382" viewBox="0 0 239 382" fill="none" xmlns="http://www.w3.org/2000/svg">
<g style="mix-blend-mode:overlay">
<path d="M110.38 279.553L-67.2544 126.246C-68.8038 124.901 -70.2094 123.399 -71.4487 121.763C-80.283 110.157 -83.4089 90.1365 -80.7415 62.2646C-78.0986 34.6662 -79.9776 13.1665 -86.3503 -1.62154C-89.1552 -8.13942 -92.8068 -13.3391 -97.305 -17.2204L80.3197 136.089C84.8065 139.962 88.4678 145.172 91.2723 151.689C97.6386 166.481 99.5249 187.974 96.8832 215.574C94.2137 243.447 97.3392 263.463 106.174 275.074C107.417 276.708 108.827 278.209 110.38 279.553Z" fill="white" fill-opacity="0.2"/>
<path d="M110.38 279.553L-67.2544 126.246C-68.8038 124.901 -70.2094 123.399 -71.4487 121.764C-80.283 110.158 -83.4089 90.1369 -80.7415 62.2651C-78.0986 34.6667 -79.9776 13.167 -86.3503 -1.62105C-89.1552 -8.13893 -92.8068 -13.3386 -97.305 -17.2199L80.3197 136.09C84.8065 139.962 88.4678 145.172 91.2723 151.69C97.6386 166.481 99.5249 187.974 96.8832 215.575C94.2137 243.448 97.3392 263.463 106.174 275.074C107.413 276.71 108.819 278.212 110.368 279.557" fill="white" fill-opacity="0.2"/>
<path d="M-8.20007 154.851C-2.0288 150.271 4.4007 146.049 11.0565 142.207C31.3909 130.562 49.621 125.707 63.7853 128.16C76.4147 130.347 85.7275 138.212 91.4661 151.548C97.8412 166.36 99.7323 187.881 97.0836 215.514C94.4205 243.343 97.5376 263.324 106.352 274.905C113.878 284.791 125.564 288.207 140.133 284.759C150.281 282.354 161.478 276.724 172.44 268.641C178.645 264.04 184.479 258.958 189.887 253.443C205.986 237.096 217.552 218.138 221.621 201.435C217.735 218.161 206.136 237.174 189.993 253.569C184.571 259.096 178.724 264.189 172.506 268.8C161.509 276.907 150.284 282.561 140.094 284.967C125.463 288.42 113.733 284.998 106.176 275.076C97.3436 263.469 94.2156 243.449 96.8851 215.576C99.5268 187.976 97.649 166.478 91.2742 151.691C85.5544 138.398 76.2723 130.552 63.6794 128.37C49.5595 125.926 31.375 130.771 11.0917 142.387C4.44456 146.225 -1.97676 150.441 -8.14058 155.015C-20.5881 164.194 -33.0608 175.292 -44.5275 187.48C-33.4681 175.489 -21.3054 164.565 -8.20007 154.851Z" fill="white" fill-opacity="0.2"/>
<path d="M43.9822 48.1313C40.9542 60.5665 33.7549 74.2506 23.6404 87.1772L80.329 136.09C84.815 139.963 88.4658 145.163 91.2815 151.69C97.6445 166.481 99.5342 187.974 96.8913 215.573C94.2218 243.446 97.3452 263.462 106.181 275.07C106.714 275.773 107.28 276.418 107.86 277.058L110.534 279.366C117.923 285.745 128.033 287.611 140.136 284.765C150.284 282.36 161.481 276.731 172.444 268.647C178.65 264.047 184.484 258.966 189.894 253.451C205.99 237.102 217.559 218.146 221.627 201.441L43.9822 48.1313Z" fill="white" fill-opacity="0.2"/>
<path d="M110.528 279.373L-67.1064 126.066L-66.7784 126.345L110.858 279.65C110.747 279.559 110.637 279.466 110.528 279.373Z" fill="white" fill-opacity="0.2"/>
<path d="M110.859 279.65L-66.7646 126.343C-66.2166 126.809 -65.6439 127.244 -65.0615 127.656L112.575 280.962C111.989 280.544 111.421 280.106 110.872 279.648" fill="white" fill-opacity="0.2"/>
<path d="M112.561 280.964L-65.0752 127.658C-64.5225 128.048 -63.9529 128.429 -63.3813 128.763L114.252 282.067C113.676 281.721 113.111 281.353 112.56 280.962" fill="white" fill-opacity="0.2"/>
<path d="M114.252 282.067L-63.3809 128.763C-62.8269 129.096 -62.2588 129.409 -61.6808 129.7L115.956 283.006C115.378 282.715 114.81 282.401 114.254 282.07" fill="white" fill-opacity="0.2"/>
<path d="M115.956 283.006L-61.6807 129.7C-61.1163 129.984 -60.5397 130.249 -59.951 130.496L117.686 283.802C117.096 283.557 116.52 283.291 115.956 283.006Z" fill="white" fill-opacity="0.2"/>
<path d="M117.685 283.802L-59.9512 130.496C-59.3734 130.731 -58.7793 130.956 -58.1689 131.172L119.466 284.479C118.864 284.275 118.27 284.049 117.685 283.802Z" fill="white" fill-opacity="0.2"/>
<path d="M119.461 284.47L-58.1738 131.164C-57.5709 131.37 -56.9549 131.554 -56.33 131.72L121.304 285.027C120.68 284.862 120.065 284.676 119.461 284.47Z" fill="white" fill-opacity="0.2"/>
<path d="M121.304 285.027L-56.3301 131.72C-55.6952 131.888 -55.0506 132.034 -54.3874 132.157L123.247 285.464C122.59 285.337 121.946 285.191 121.304 285.027Z" fill="white" fill-opacity="0.2"/>
<path d="M123.241 285.468L-54.3936 132.161C-53.7201 132.293 -53.0326 132.4 -52.3363 132.488L125.298 285.795C124.603 285.707 123.917 285.598 123.241 285.468Z" fill="white" fill-opacity="0.2"/>
<path d="M125.298 285.795L-52.332 132.497C-51.6026 132.588 -50.862 132.657 -50.1102 132.702L127.524 286.009C126.772 285.964 126.032 285.895 125.302 285.804" fill="white" fill-opacity="0.2"/>
<path d="M127.52 286L-50.1143 132.693C-49.3098 132.738 -48.4913 132.759 -47.6589 132.754L129.982 286.071C129.15 286.077 128.332 286.057 127.526 286.011" fill="white" fill-opacity="0.2"/>
<path d="M129.981 286.071L-47.6533 132.764C-46.7333 132.755 -45.7968 132.713 -44.8437 132.639L132.791 285.946C131.84 286.02 130.903 286.062 129.981 286.071Z" fill="white" fill-opacity="0.2"/>
<path d="M132.785 285.936L-44.8408 132.624C-43.7603 132.54 -42.6562 132.411 -41.5286 132.238L136.093 285.552C134.966 285.723 133.861 285.852 132.779 285.94" fill="white" fill-opacity="0.2"/>
<path d="M136.093 285.552L-41.5439 132.247C-40.2271 132.043 -38.8826 131.78 -37.5108 131.458L-37.2454 131.394L140.4 284.695L140.136 284.757C138.763 285.08 137.419 285.343 136.103 285.546" fill="white" fill-opacity="0.2"/>
<path d="M140.399 284.694L-37.2393 131.39C-34.9026 130.821 -32.5998 130.12 -30.342 129.291L147.295 282.597C145.036 283.426 142.733 284.127 140.395 284.697" fill="white" fill-opacity="0.2"/>
<path d="M147.295 282.597L-30.3418 129.291C-24.0079 126.986 -17.4074 123.581 -10.8118 119.248L166.823 272.555C160.225 276.884 153.627 280.293 147.295 282.597Z" fill="white" fill-opacity="0.2"/>
<path d="M166.823 272.555L-10.8125 119.246C-8.93813 118.014 -7.06662 116.71 -5.19802 115.334C-4.08845 114.513 -2.98188 113.67 -1.87836 112.805L175.756 266.112C174.653 266.978 173.548 267.82 172.439 268.639C170.571 270.015 168.699 271.319 166.822 272.552" fill="white" fill-opacity="0.2"/>
<path d="M175.757 266.114L-1.87709 112.807C0.199987 111.176 2.26554 109.456 4.30715 107.659L181.944 260.964C179.9 262.762 177.838 264.479 175.757 266.114Z" fill="white" fill-opacity="0.2"/>
<path d="M181.943 260.964L4.30662 107.659C6.02353 106.145 7.72356 104.577 9.4067 102.954L187.041 256.261C185.36 257.884 183.661 259.452 181.943 260.964Z" fill="white" fill-opacity="0.2"/>
<path d="M187.041 256.261L9.4064 102.954C10.3626 102.032 11.311 101.093 12.2514 100.137C12.7851 99.5957 13.3146 99.05 13.8397 98.5002L191.474 251.807C190.95 252.358 190.42 252.904 189.886 253.444C188.945 254.4 187.997 255.339 187.041 256.261Z" fill="white" fill-opacity="0.2"/>
<path d="M191.475 251.807L13.8425 98.4989C15.1711 97.1088 16.4677 95.7021 17.7322 94.2789L195.367 247.586C194.109 249.007 192.812 250.414 191.477 251.806" fill="white" fill-opacity="0.2"/>
<path d="M195.365 247.587L17.7303 94.2803C18.919 92.9418 20.0756 91.5915 21.2001 90.2295L198.837 243.535C197.712 244.897 196.555 246.248 195.365 247.587Z" fill="white" fill-opacity="0.2"/>
<path d="M198.836 243.535L21.1997 90.2294C22.2666 88.9378 23.3041 87.6377 24.3122 86.3289L201.952 239.644C200.945 240.952 199.908 242.252 198.841 243.544" fill="white" fill-opacity="0.2"/>
<path d="M201.951 239.644L24.3167 86.3375C25.2918 85.0795 26.2333 83.8153 27.1411 82.5449L204.783 235.836C203.87 237.11 202.928 238.374 201.957 239.63" fill="white" fill-opacity="0.2"/>
<path d="M204.784 235.836L27.1369 82.5363C28.018 81.3113 28.8714 80.0823 29.6971 78.8493L207.332 232.156C206.502 233.382 205.649 234.611 204.774 235.842" fill="white" fill-opacity="0.2"/>
<path d="M207.331 232.156L29.6964 78.8492C30.5007 77.6511 31.2766 76.4512 32.0243 75.2496L209.659 228.556C208.907 229.758 208.131 230.958 207.329 232.157" fill="white" fill-opacity="0.2"/>
<path d="M209.659 228.557L32.0247 75.2498C32.765 74.075 33.4736 72.8938 34.1504 71.7064L211.783 225.006C211.099 226.186 210.39 227.367 209.658 228.549" fill="white" fill-opacity="0.2"/>
<path d="M211.783 225.006L34.1464 71.6999C34.817 70.5348 35.4612 69.3725 36.0787 68.2132L213.713 221.52C213.098 222.68 212.454 223.842 211.783 225.006Z" fill="white" fill-opacity="0.2"/>
<path d="M213.717 221.526L36.0837 68.2217C36.6958 67.0693 37.282 65.9175 37.8422 64.7665L215.477 218.073C214.92 219.224 214.334 220.376 213.718 221.529" fill="white" fill-opacity="0.2"/>
<path d="M215.476 218.071L37.8411 64.7645C38.3991 63.6129 38.9308 62.463 39.4363 61.315L217.071 214.622C216.567 215.767 216.036 216.917 215.476 218.071Z" fill="white" fill-opacity="0.2"/>
<path d="M217.072 214.624L39.4378 61.3169C39.9504 60.1516 40.4329 58.9913 40.8853 57.8359L218.52 211.143C218.07 212.296 217.588 213.457 217.072 214.624Z" fill="white" fill-opacity="0.2"/>
<path d="M218.52 211.143L40.8854 57.8358C41.3532 56.6415 41.7877 55.4531 42.1889 54.2705L219.823 207.577C219.421 208.759 218.987 209.947 218.52 211.143Z" fill="white" fill-opacity="0.2"/>
<path d="M219.823 207.578L42.1888 54.2708C42.6079 53.0273 42.9933 51.7907 43.345 50.5611L220.979 203.868C220.632 205.095 220.247 206.332 219.823 207.578Z" fill="white" fill-opacity="0.2"/>
<path d="M220.98 203.868L43.3451 50.561C43.5748 49.7471 43.7878 48.9371 43.9843 48.1309L221.621 201.437C221.424 202.243 221.211 203.053 220.98 203.868Z" fill="white" fill-opacity="0.2"/>
<path d="M-97.1507 -17.4017L80.4837 135.905C75.8012 131.866 70.2336 129.285 63.781 128.162C49.6168 125.709 31.3867 130.564 11.0523 142.209C4.39645 146.051 -2.03304 150.273 -8.20432 154.853L-185.839 1.54643C-179.667 -3.03286 -173.237 -7.25443 -166.582 -11.0975C-146.249 -22.7393 -128.028 -27.5915 -113.853 -25.1443C-107.42 -24.0268 -101.833 -21.4394 -97.1507 -17.4017Z" fill="white" fill-opacity="0.2"/>
<path d="M-8.20078 154.851L-185.835 1.54409C-182.613 -0.833603 -179.39 -3.08178 -176.186 -5.18623L1.44844 148.121C-1.75056 150.228 -4.97608 152.472 -8.20078 154.851Z" fill="white" fill-opacity="0.2"/>
<path d="M1.44924 148.12L-176.185 -5.18638C-172.959 -7.30966 -169.749 -9.28492 -166.58 -11.0988C-159.373 -15.2254 -152.429 -18.499 -145.839 -20.8992L31.7954 132.408C25.2043 134.806 18.2619 138.081 11.0545 142.208C7.88163 144.018 4.67986 145.989 1.44924 148.12Z" fill="white" fill-opacity="0.2"/>
<path d="M31.7976 132.406L-145.837 -20.9004C-142.628 -22.0763 -139.356 -23.0721 -136.036 -23.8831L41.5988 129.424C38.2787 130.234 35.0065 131.23 31.7976 132.406Z" fill="white" fill-opacity="0.2"/>
<path d="M41.5983 129.424L-136.036 -23.8831C-133.992 -24.3758 -131.992 -24.7726 -130.034 -25.0733L47.6017 128.236C45.6454 128.536 43.6447 128.932 41.5996 129.426" fill="white" fill-opacity="0.2"/>
<path d="M47.602 128.236L-130.027 -25.0769C-128.494 -25.314 -126.99 -25.4896 -125.514 -25.6036L52.1201 127.703C50.6446 127.817 49.1403 127.993 47.6071 128.23" fill="white" fill-opacity="0.2"/>
<path d="M52.1135 127.707L-125.527 -25.5964C-124.267 -25.6949 -123.027 -25.7494 -121.809 -25.76L55.8277 127.546C54.6092 127.556 53.369 127.611 52.1071 127.71" fill="white" fill-opacity="0.2"/>
<path d="M55.8338 127.542L-121.803 -25.7634C-120.706 -25.7739 -119.629 -25.7482 -118.57 -25.6864L59.0661 127.619C58.0075 127.557 56.9301 127.532 55.8338 127.542Z" fill="white" fill-opacity="0.2"/>
<path d="M59.0662 127.619L-118.57 -25.6865C-117.597 -25.6288 -116.64 -25.5408 -115.7 -25.4227L61.9303 127.887C60.9887 127.769 60.0319 127.681 59.0599 127.623" fill="white" fill-opacity="0.2"/>
<path d="M61.9306 127.887L-115.706 -25.4189C-115.082 -25.3405 -114.465 -25.2485 -113.856 -25.143C-113.596 -25.099 -113.34 -25.0506 -113.084 -25.0021L64.5526 128.304C64.2963 128.255 64.038 128.208 63.7788 128.164C63.1707 128.057 62.5539 127.965 61.9284 127.888" fill="white" fill-opacity="0.2"/>
<path d="M64.5585 128.3L-113.078 -25.0059C-112.234 -24.8444 -111.41 -24.6563 -110.606 -24.4414L67.0294 128.862C66.2201 128.65 65.3961 128.462 64.5573 128.298" fill="white" fill-opacity="0.2"/>
<path d="M67.0309 128.864L-110.604 -24.4392C-109.811 -24.2318 -109.033 -23.9987 -108.27 -23.7398L69.3752 129.561C68.6124 129.302 67.8345 129.068 67.0415 128.858" fill="white" fill-opacity="0.2"/>
<path d="M69.3747 129.561L-108.26 -23.7458C-107.504 -23.4888 -106.761 -23.2084 -106.03 -22.9046L71.604 130.402C70.8776 130.098 70.1344 129.818 69.3747 129.561Z" fill="white" fill-opacity="0.2"/>
<path d="M71.5934 130.408L-106.041 -22.8987C-105.304 -22.5953 -104.583 -22.2642 -103.88 -21.9055L73.7543 131.401C73.0516 131.05 72.3312 130.719 71.5934 130.408Z" fill="white" fill-opacity="0.2"/>
<path d="M73.7546 131.402L-103.88 -21.9053C-103.161 -21.5423 -102.458 -21.1547 -101.769 -20.7425L75.8654 132.564C75.1791 132.153 74.4756 131.765 73.7546 131.402Z" fill="white" fill-opacity="0.2"/>
<path d="M75.8659 132.564L-101.769 -20.7427C-101.05 -20.3116 -100.35 -19.8543 -99.6681 -19.3708L77.9685 133.935C77.2834 133.451 76.5854 132.994 75.8659 132.564Z" fill="white" fill-opacity="0.2"/>
<path d="M77.9681 133.935L-99.6709 -19.3752C-98.9514 -18.866 -98.2508 -18.3253 -97.5688 -17.7532L80.0657 135.554C79.3845 134.983 78.6846 134.442 77.9657 133.93" fill="white" fill-opacity="0.2"/>
<path d="M80.0661 135.554L-97.5684 -17.7532C-97.4292 -17.6379 -97.291 -17.5192 -97.1527 -17.4006L80.4817 135.906C80.3435 135.788 80.2053 135.669 80.0661 135.554Z" fill="white" fill-opacity="0.2"/>
</g>
</svg>
