<svg width="182" height="172" viewBox="0 0 182 172" fill="none" xmlns="http://www.w3.org/2000/svg">
<g style="mix-blend-mode:overlay">
<path d="M294.115 15.9857L136.311 0.324341C143.395 1.02713 150.665 4.67967 157.761 11.1513C161.272 14.4073 164.479 17.977 167.34 21.8159C173.274 29.6693 178.717 39.3441 183.197 50.1255L341.001 65.7849C336.525 55.0134 331.091 45.3406 325.144 37.4852C322.281 33.6424 319.071 30.0693 315.555 26.8107C308.469 20.3331 301.199 16.6944 294.115 15.9857Z" fill="white" fill-opacity="0.1"/>
<path d="M294.115 15.985L136.31 0.323608C143.394 1.0264 150.664 4.67894 157.76 11.1506C159.175 12.4413 160.576 13.8403 161.962 15.3475L319.767 31.0069C318.38 29.505 316.98 28.106 315.565 26.8099C308.469 20.3324 301.199 16.6878 294.115 15.985Z" fill="white" fill-opacity="0.1"/>
<path d="M319.766 31.0067L161.962 15.3473C163.789 17.327 165.582 19.4829 167.339 21.8149L167.377 21.8644L325.181 37.5238L325.143 37.4743C323.391 35.1541 321.599 32.9982 319.766 31.0067Z" fill="white" fill-opacity="0.1"/>
<path d="M325.182 37.524L167.377 21.8646C168.86 23.8285 170.308 25.9012 171.722 28.0828L329.526 43.7422C328.114 41.5646 326.666 39.4918 325.182 37.524Z" fill="white" fill-opacity="0.1"/>
<path d="M329.527 43.7424L171.722 28.083C172.984 30.0297 174.214 32.0556 175.413 34.1607L333.217 49.82C332.02 47.7176 330.79 45.6917 329.527 43.7424Z" fill="white" fill-opacity="0.1"/>
<path d="M333.217 49.82L175.413 34.1606C176.508 36.0889 177.573 38.0758 178.608 40.1215L336.412 55.7829C335.38 53.7372 334.315 51.7496 333.217 49.82Z" fill="white" fill-opacity="0.1"/>
<path d="M336.412 55.7826L178.607 40.1212C179.564 42.0178 180.489 43.9598 181.382 45.9475L339.187 61.6068C338.291 59.6271 337.366 57.6857 336.412 55.7826Z" fill="white" fill-opacity="0.1"/>
<path d="M339.193 61.6066L181.389 45.9473C182.007 47.3172 182.608 48.7063 183.192 50.1145L340.997 65.7739C340.411 64.3657 339.81 62.9799 339.193 61.6165" fill="white" fill-opacity="0.1"/>
<path d="M325.23 37.3161C322.364 33.4714 319.152 29.8964 315.634 26.6357C305.052 16.9768 294.083 13.6014 283.921 16.8758C274.849 19.7939 266.501 27.869 259.108 40.8776C250.892 55.3294 243.913 75.839 238.364 101.822C232.774 127.994 225.377 147.126 216.38 158.681C208.7 168.548 199.941 172.557 191.056 170.28C184.866 168.697 178.836 164.106 173.613 157.189C170.777 153.427 168.177 148.991 165.913 143.968C159.428 129.57 156.679 112.396 158.381 96.8515C156.558 112.43 159.313 129.653 165.818 144.091C168.085 149.123 170.692 153.578 173.534 157.341C178.779 164.27 184.832 168.881 191.038 170.472C199.939 172.763 208.722 168.734 216.452 158.836C225.47 147.253 232.881 128.087 238.48 101.876C244.03 75.9182 250.993 55.4402 259.195 41.0083C266.568 28.0353 274.891 19.9819 283.933 17.0738C294.076 13.8092 305.015 17.1787 315.573 26.8158C319.082 30.0722 322.286 33.6419 325.144 37.4805C331.079 45.3359 336.522 55.0087 341.001 65.7802C336.623 54.8721 331.172 45.1815 325.23 37.3161Z" fill="white" fill-opacity="0.1"/>
<path d="M294.134 15.7869L136.33 0.127484C132.884 -0.221721 129.402 0.148389 126.106 1.21433C117.034 4.13438 108.686 12.2096 101.293 25.2181C93.0772 39.6699 86.0984 60.1795 80.5486 86.163C74.9591 112.335 67.5621 131.466 58.5655 143.022C51.7432 151.786 44.0706 155.929 36.2137 155.149L194.018 170.809C201.875 171.589 209.548 167.443 216.37 158.681C225.37 147.126 232.764 127.994 238.353 101.82C243.903 75.8369 250.882 55.3312 259.097 40.8755C266.49 27.867 274.839 19.7918 283.911 16.8737C287.206 15.8071 290.688 15.437 294.134 15.7869Z" fill="white" fill-opacity="0.1"/>
<path d="M294.133 15.7871L136.329 0.12768C135.536 0.0484921 134.743 0.00691564 133.95 0.000976562L291.747 15.6623C292.54 15.6623 293.333 15.7039 294.125 15.7871" fill="white" fill-opacity="0.1"/>
<path d="M291.747 15.6623L133.945 0.000976562C133.168 0.000976562 132.395 0.0326538 131.628 0.096004L289.43 15.7554C290.2 15.6881 290.973 15.6571 291.747 15.6623Z" fill="white" fill-opacity="0.1"/>
<path d="M289.43 15.755L131.618 0.0955811C130.935 0.154972 130.254 0.242736 129.574 0.358878L287.389 16.0183C288.067 15.9034 288.748 15.8203 289.43 15.755Z" fill="white" fill-opacity="0.1"/>
<path d="M287.388 16.0186L129.584 0.359253C128.965 0.466156 128.349 0.594836 127.737 0.755192L285.541 16.4146C286.153 16.2602 286.77 16.1315 287.388 16.0186Z" fill="white" fill-opacity="0.1"/>
<path d="M285.542 16.4089L127.737 0.749512C127.19 0.881491 126.646 1.03657 126.106 1.21474L126.039 1.23652L283.841 16.8919L283.908 16.8702C284.449 16.696 284.992 16.5402 285.54 16.403" fill="white" fill-opacity="0.1"/>
<path d="M283.841 16.8915L126.036 1.2301C125.491 1.40827 124.95 1.60228 124.411 1.82401L282.217 17.4854C282.757 17.2716 283.298 17.0736 283.843 16.8915" fill="white" fill-opacity="0.1"/>
<path d="M282.218 17.4851L124.413 1.82568C123.892 2.03355 123.375 2.25726 122.857 2.49878L280.67 18.1542C281.187 17.9127 281.704 17.689 282.226 17.4811" fill="white" fill-opacity="0.1"/>
<path d="M280.669 18.1547L122.865 2.49536C122.361 2.73094 121.858 2.98237 121.358 3.25161L279.155 18.911C279.654 18.6437 280.158 18.3903 280.661 18.1547" fill="white" fill-opacity="0.1"/>
<path d="M279.155 18.9106L121.35 3.25122C120.858 3.51518 120.366 3.79695 119.876 4.09655L277.68 19.7579C278.17 19.459 278.661 19.1779 279.155 18.9106Z" fill="white" fill-opacity="0.1"/>
<path d="M277.68 19.7583L119.875 4.09692C119.388 4.3952 118.902 4.70865 118.419 5.03728L276.223 20.6966C276.706 20.368 277.192 20.0552 277.68 19.7583Z" fill="white" fill-opacity="0.1"/>
<path d="M276.223 20.6965L118.419 5.03711C117.931 5.3697 117.447 5.71812 116.966 6.08239L274.768 21.7418C275.252 21.3775 275.737 21.0291 276.223 20.6965Z" fill="white" fill-opacity="0.1"/>
<path d="M274.769 21.7423L116.967 6.08289C116.475 6.45375 115.986 6.84177 115.5 7.24695L273.304 22.9063C273.791 22.5025 274.279 22.1145 274.769 21.7423Z" fill="white" fill-opacity="0.1"/>
<path d="M273.304 22.9062L115.499 7.24683C114.999 7.6652 114.5 8.10074 114.005 8.55343L271.809 24.2168C272.305 23.7641 272.803 23.3285 273.304 22.9102" fill="white" fill-opacity="0.1"/>
<path d="M271.81 24.2166L114.005 8.55725C113.49 9.02842 112.977 9.51938 112.467 10.0301L270.271 25.6895C270.782 25.1788 271.294 24.6878 271.81 24.2166Z" fill="white" fill-opacity="0.1"/>
<path d="M270.271 25.6853L112.467 10.0259C111.929 10.5617 111.396 11.1206 110.867 11.7027L268.671 27.3621C269.2 26.7827 269.733 26.2237 270.271 25.6853Z" fill="white" fill-opacity="0.1"/>
<path d="M268.672 27.3619L110.868 11.7025C110.301 12.3241 109.737 12.9708 109.177 13.6426L266.981 29.302C267.54 28.6302 268.104 27.9835 268.672 27.3619Z" fill="white" fill-opacity="0.1"/>
<path d="M266.981 29.3021L109.177 13.6427C108.566 14.3725 107.962 15.1334 107.363 15.9253L265.167 31.5847C265.766 30.7928 266.37 30.0319 266.981 29.3021Z" fill="white" fill-opacity="0.1"/>
<path d="M265.167 31.5854L107.363 15.926C106.695 16.805 106.034 17.7203 105.381 18.6719L263.185 34.3312C263.846 33.381 264.507 32.4657 265.167 31.5854Z" fill="white" fill-opacity="0.1"/>
<path d="M263.181 34.331L105.376 18.6736C104.627 19.7624 103.886 20.8974 103.154 22.0787L260.959 37.738C261.691 36.5502 262.431 35.4152 263.181 34.333" fill="white" fill-opacity="0.1"/>
<path d="M260.959 37.7355L103.155 22.0762C102.529 23.0898 101.908 24.137 101.292 25.2179C101.059 25.6284 100.828 26.0428 100.596 26.4612L258.401 42.1206C258.633 41.7009 258.865 41.2865 259.096 40.8773C259.711 39.7964 260.332 38.7491 260.959 37.7355Z" fill="white" fill-opacity="0.1"/>
<path d="M258.4 42.1208L100.596 26.4614C99.5733 28.3197 98.5704 30.273 97.5872 32.3213L255.392 47.9728C256.375 45.9258 257.378 43.9725 258.4 42.1129" fill="white" fill-opacity="0.1"/>
<path d="M255.392 47.9732L97.5877 32.3138C96.2928 35.0062 95.0375 37.8596 93.8218 40.874L251.626 56.5334C252.85 53.5203 254.105 50.6669 255.392 47.9732Z" fill="white" fill-opacity="0.1"/>
<path d="M251.618 56.541L93.8137 40.8816C91.7669 45.9285 89.8205 51.4182 87.9746 57.3507L245.785 73.01C247.628 67.0802 249.575 61.5905 251.624 56.541" fill="white" fill-opacity="0.1"/>
<path d="M245.785 73.0102L87.9808 57.3508C85.2799 66.0311 82.8043 75.6353 80.554 86.1633C78.7754 94.4925 76.8165 102.102 74.6772 108.991L232.482 124.651C234.612 117.765 236.569 110.155 238.352 101.821C240.599 91.3072 243.074 81.703 245.779 73.0082" fill="white" fill-opacity="0.1"/>
<path d="M232.476 124.651L74.6712 108.991C73.1913 113.758 71.6268 118.173 69.9777 122.235L227.782 137.897C229.43 133.834 230.994 129.419 232.476 124.651Z" fill="white" fill-opacity="0.1"/>
<path d="M227.781 137.896L69.9749 122.235C68.9945 124.658 67.9829 126.954 66.9404 129.124L224.747 144.78C225.787 142.611 226.798 140.315 227.781 137.892" fill="white" fill-opacity="0.1"/>
<path d="M224.747 144.78L66.9427 129.12C66.1499 130.785 65.3333 132.375 64.4929 133.891L222.297 149.551C223.132 148.037 223.949 146.447 224.747 144.78Z" fill="white" fill-opacity="0.1"/>
<path d="M222.297 149.555L64.4924 133.895C63.8092 135.139 63.1135 136.331 62.4053 137.473L220.216 153.132C220.923 151.992 221.618 150.799 222.303 149.555" fill="white" fill-opacity="0.1"/>
<path d="M220.216 153.132L62.4114 137.473C61.8181 138.43 61.2176 139.354 60.6097 140.244L218.414 155.904C219.023 155.018 219.624 154.094 220.216 153.132Z" fill="white" fill-opacity="0.1"/>
<path d="M218.409 155.894L60.6043 140.235C60.0758 141.012 59.534 141.762 58.979 142.486L216.783 158.145C217.33 157.422 217.872 156.671 218.409 155.894Z" fill="white" fill-opacity="0.1"/>
<path d="M216.783 158.145L58.9789 142.485C58.8401 142.666 58.7034 142.846 58.5646 143.022C58.2138 143.473 57.8629 143.911 57.5062 144.336L215.311 159.996C215.665 159.571 216.017 159.133 216.369 158.681C216.508 158.505 216.644 158.325 216.783 158.145Z" fill="white" fill-opacity="0.1"/>
<path d="M215.31 159.996L57.5057 144.336C57.0564 144.875 56.6032 145.395 56.146 145.896L213.95 161.556C214.409 161.055 214.862 160.535 215.31 159.996Z" fill="white" fill-opacity="0.1"/>
<path d="M213.951 161.556L56.1463 145.896C55.7195 146.363 55.2901 146.813 54.858 147.246L212.662 162.906C213.094 162.474 213.524 162.024 213.951 161.556Z" fill="white" fill-opacity="0.1"/>
<path d="M212.663 162.906L54.8582 147.246C54.4473 147.658 54.0337 148.054 53.6175 148.434L211.422 164.093C211.838 163.713 212.252 163.317 212.663 162.906Z" fill="white" fill-opacity="0.1"/>
<path d="M211.422 164.096L53.6175 148.436C53.2211 148.801 52.8247 149.153 52.4124 149.49L210.217 165.149C210.613 164.812 211.023 164.46 211.422 164.096Z" fill="white" fill-opacity="0.1"/>
<path d="M210.216 165.149L52.412 149.49C52.0156 149.817 51.6192 150.13 51.2227 150.43L209.027 166.089C209.423 165.788 209.82 165.475 210.216 165.149Z" fill="white" fill-opacity="0.1"/>
<path d="M209.034 166.089L51.2293 150.43C50.8329 150.723 50.4503 151.004 50.0579 151.269L207.862 166.93C208.259 166.666 208.649 166.386 209.034 166.089Z" fill="white" fill-opacity="0.1"/>
<path d="M207.862 166.931L50.0574 151.27C49.661 151.535 49.2805 151.786 48.89 152.024L206.694 167.683C207.091 167.446 207.475 167.194 207.862 166.931Z" fill="white" fill-opacity="0.1"/>
<path d="M206.694 167.683L48.89 152.023C48.4936 152.261 48.1018 152.486 47.7146 152.698L205.519 168.358C205.915 168.145 206.307 167.92 206.694 167.683Z" fill="white" fill-opacity="0.1"/>
<path d="M205.519 168.358L47.7147 152.699C47.3183 152.913 46.9218 153.111 46.5254 153.293L204.33 168.952C204.726 168.766 205.123 168.568 205.519 168.358Z" fill="white" fill-opacity="0.1"/>
<path d="M204.324 168.958L46.5198 153.299C46.1129 153.489 45.7045 153.665 45.2949 153.827L203.099 169.489C203.51 169.325 203.919 169.148 204.324 168.958Z" fill="white" fill-opacity="0.1"/>
<path d="M203.099 169.489L45.2947 153.828C44.8726 153.996 44.4504 154.148 44.0242 154.287L201.829 169.946C202.253 169.814 202.676 169.662 203.099 169.489Z" fill="white" fill-opacity="0.1"/>
<path d="M201.829 169.946L44.0242 154.286C43.5822 154.429 43.1363 154.557 42.6903 154.668L200.495 170.328C200.941 170.217 201.387 170.09 201.829 169.946Z" fill="white" fill-opacity="0.1"/>
<path d="M200.495 170.328L42.6902 154.669C42.2185 154.788 41.7448 154.887 41.2711 154.97L199.075 170.629C199.549 170.549 200.022 170.448 200.495 170.328Z" fill="white" fill-opacity="0.1"/>
<path d="M199.075 170.629L41.2709 154.969C40.7529 155.058 40.2342 155.124 39.7149 155.167L197.519 170.827C198.039 170.781 198.557 170.715 199.075 170.629Z" fill="white" fill-opacity="0.1"/>
<path d="M197.52 170.831L39.7151 155.171C39.1311 155.221 38.545 155.244 37.957 155.24L195.761 170.912C196.348 170.912 196.934 170.888 197.52 170.84" fill="white" fill-opacity="0.1"/>
<path d="M195.761 170.912L37.9564 155.251C37.3756 155.251 36.7949 155.217 36.2122 155.16L194.017 170.819C194.599 170.876 195.181 170.907 195.761 170.912Z" fill="white" fill-opacity="0.1"/>
<path d="M36.1981 155.348L194.002 171.007C192.995 170.906 191.996 170.728 191.015 170.475C184.804 168.891 178.756 164.282 173.512 157.343C170.67 153.582 168.063 149.126 165.796 144.093C159.291 129.655 156.535 112.432 158.359 96.8537L0.556595 81.1943C-1.26889 96.7725 1.48618 113.996 7.99133 128.434C10.2588 133.466 12.8652 137.92 15.7075 141.684C20.9521 148.623 27.0053 153.224 33.2112 154.815C34.1919 155.068 35.1904 155.246 36.1981 155.348Z" fill="white" fill-opacity="0.1"/>
<path d="M158.358 96.8551L0.55603 81.1957C0.520355 81.4847 0.488647 81.7757 0.458908 82.0648L158.263 97.7261C158.293 97.4351 158.325 97.1441 158.358 96.8551Z" fill="white" fill-opacity="0.1"/>
<path d="M158.263 97.7258L0.458801 82.0645C0.366302 82.9408 0.287674 83.8224 0.222931 84.7093L158.027 100.369C158.091 99.4838 158.17 98.6008 158.263 97.7258Z" fill="white" fill-opacity="0.1"/>
<path d="M158.028 100.369L0.22345 84.7096C0.162674 85.5477 0.114441 86.389 0.0787659 87.2337L157.883 102.893C157.919 102.048 157.967 101.207 158.028 100.369Z" fill="white" fill-opacity="0.1"/>
<path d="M157.883 102.893L0.0784607 87.2334C0.0454254 88.0636 0.0229645 88.895 0.0110779 89.7278L157.815 105.385C157.825 104.551 157.847 103.72 157.883 102.891" fill="white" fill-opacity="0.1"/>
<path d="M157.815 105.386L0.00906372 89.7284C-0.00282288 90.5638 -0.00282288 91.4012 0.00906372 92.2406L157.813 107.9C157.799 107.061 157.799 106.223 157.813 105.388" fill="white" fill-opacity="0.1"/>
<path d="M157.819 107.899L0.00898743 92.2401C0.0228577 93.0874 0.0466461 93.9387 0.0843048 94.788L157.889 110.449C157.852 109.598 157.827 108.748 157.813 107.899" fill="white" fill-opacity="0.1"/>
<path d="M157.894 110.449L0.0898895 94.7881C0.129532 95.6512 0.180405 96.515 0.242508 97.3795L158.047 113.039C157.983 112.173 157.933 111.31 157.894 110.449Z" fill="white" fill-opacity="0.1"/>
<path d="M158.047 113.039L0.243103 97.3796C0.306534 98.2573 0.382492 99.1343 0.471024 100.011L158.275 115.68C158.187 114.802 158.111 113.925 158.047 113.049" fill="white" fill-opacity="0.1"/>
<path d="M158.275 115.68L0.470566 100.021C0.561752 100.91 0.664825 101.798 0.779785 102.685L158.574 118.335C158.459 117.448 158.356 116.56 158.265 115.67" fill="white" fill-opacity="0.1"/>
<path d="M158.575 118.335L0.770401 102.676C0.886688 103.577 1.01881 104.477 1.16681 105.376L158.971 121.035C158.828 120.137 158.696 119.237 158.575 118.335Z" fill="white" fill-opacity="0.1"/>
<path d="M158.97 121.035L1.1701 105.385C1.31679 106.297 1.47601 107.208 1.6478 108.117L159.452 123.777C159.279 122.869 159.12 121.958 158.974 121.045" fill="white" fill-opacity="0.1"/>
<path d="M159.452 123.767L1.64783 108.107C1.82225 109.03 2.01054 109.952 2.21469 110.879L160.017 126.538C159.815 125.622 159.627 124.698 159.452 123.767Z" fill="white" fill-opacity="0.1"/>
<path d="M160.018 126.529L2.21527 110.869C2.4214 111.808 2.64206 112.741 2.87727 113.668L160.68 129.328C160.446 128.404 160.225 127.471 160.018 126.529Z" fill="white" fill-opacity="0.1"/>
<path d="M160.679 129.328L2.87688 113.669C3.11736 114.622 3.37239 115.569 3.64195 116.512L161.446 132.171C161.182 131.229 160.926 130.281 160.679 129.328Z" fill="white" fill-opacity="0.1"/>
<path d="M161.447 132.171L3.64229 116.511C3.91977 117.479 4.21248 118.44 4.52036 119.396L162.325 135.055C162.017 134.101 161.724 133.139 161.447 132.171Z" fill="white" fill-opacity="0.1"/>
<path d="M162.325 135.055L4.52029 119.396C4.83875 120.39 5.17503 121.374 5.52916 122.35L163.332 138.009C162.979 137.034 162.642 136.049 162.323 135.055" fill="white" fill-opacity="0.1"/>
<path d="M163.332 138.009L5.5274 122.349C5.89474 123.364 6.27928 124.371 6.68098 125.369L164.487 141.02C164.091 140.024 163.706 139.017 163.334 138.001" fill="white" fill-opacity="0.1"/>
<path d="M164.487 141.02L6.68288 125.361C7.09911 126.394 7.53516 127.416 7.99103 128.427V128.445L165.795 144.104V144.087C165.342 143.077 164.906 142.055 164.487 141.02Z" fill="white" fill-opacity="0.1"/>
<path d="M165.803 144.112L7.99855 128.453C8.49275 129.546 9.00146 130.612 9.52473 131.652L167.329 147.311C166.801 146.273 166.292 145.206 165.803 144.112Z" fill="white" fill-opacity="0.1"/>
<path d="M167.33 147.312L9.52525 131.652C10.0882 132.762 10.6669 133.841 11.2616 134.889L169.066 150.548C168.471 149.503 167.893 148.424 167.33 147.312Z" fill="white" fill-opacity="0.1"/>
<path d="M169.066 150.548L11.2615 134.889C11.9129 136.034 12.5835 137.139 13.2733 138.203L171.078 153.862C170.388 152.8 169.717 151.695 169.066 150.548Z" fill="white" fill-opacity="0.1"/>
<path d="M171.078 153.862L13.2732 138.203C14.0555 139.41 14.8602 140.562 15.6873 141.657L173.492 157.316C172.666 156.222 171.861 155.071 171.078 153.862Z" fill="white" fill-opacity="0.1"/>
<path d="M173.492 157.316L15.6875 141.657L15.7074 141.685C16.7262 143.034 17.774 144.292 18.8509 145.46L176.655 161.119C175.581 159.951 174.533 158.693 173.512 157.344L173.492 157.316Z" fill="white" fill-opacity="0.1"/>
<path d="M176.655 161.12L18.8505 145.46C23.3062 150.299 28.2059 153.534 33.2106 154.816C34.1913 155.069 35.1899 155.247 36.1976 155.349L194.002 171.008C192.994 170.908 191.996 170.729 191.015 170.476C186.01 169.195 181.105 165.958 176.655 161.12Z" fill="white" fill-opacity="0.1"/>
</g>
</svg>
