<svg width="153" height="201" viewBox="0 0 153 201" fill="none" xmlns="http://www.w3.org/2000/svg">
<g style="mix-blend-mode:overlay" filter="url(#filter0_f_243_3427)">
<path d="M115.832 63.0199L31.1589 132.75C30.4167 133.358 29.6134 133.887 28.762 134.328C22.7165 137.482 13.2448 137.34 0.61365 133.908C-11.8934 130.51 -21.9479 129.676 -29.2651 131.444C-32.4899 132.221 -35.1742 133.493 -37.318 135.259L47.3559 65.5332C49.4949 63.772 52.1848 62.4968 55.4092 61.7196C62.7275 59.9552 72.7794 60.7845 85.2876 64.1828C97.9191 67.6154 107.388 67.757 113.436 64.604C114.288 64.1603 115.091 63.6294 115.832 63.0199Z" fill="white" fill-opacity="0.05"/>
<path d="M115.832 63.0204L31.1589 132.751C30.4167 133.358 29.6134 133.887 28.762 134.329C22.7165 137.482 13.2448 137.34 0.61365 133.909C-11.8934 130.51 -21.9479 129.677 -29.2651 131.445C-32.4899 132.222 -35.1742 133.493 -37.318 135.259L47.3559 65.5337C49.4949 63.7725 52.1848 62.4972 55.4092 61.7201C62.7275 59.9557 72.7794 60.785 85.2876 64.1832C97.9191 67.6159 107.388 67.7575 113.436 64.6045C114.288 64.1626 115.091 63.6337 115.833 63.0262" fill="white" fill-opacity="0.05"/>
<path d="M49.0054 107.801C47.3827 104.596 45.9457 101.3 44.7014 97.9297C40.9428 87.6404 40.1464 78.8572 42.3961 72.5249C44.4015 66.8786 48.7614 63.2093 55.3593 61.6191C62.6878 59.8523 72.753 60.6816 85.2755 64.0856C97.8876 67.5119 107.34 67.6546 113.372 64.5085C118.522 61.8222 121.02 56.7078 120.582 49.7227C120.276 44.8569 118.567 39.253 115.709 33.5634C114.079 30.3409 112.199 27.2516 110.085 24.3238C103.825 15.6141 96.0047 8.78714 88.6304 5.59245C96.0296 8.70492 103.873 15.5516 110.151 24.2851C112.27 27.2197 114.154 30.3161 115.788 33.5457C118.653 39.2533 120.372 44.8721 120.675 49.7571C121.11 56.7713 118.606 61.9052 113.437 64.6032C107.391 67.7554 97.9201 67.6146 85.2886 64.182C72.7804 60.7838 62.727 59.9501 55.4102 61.7188C48.8335 63.3038 44.4849 66.9605 42.4845 72.5903C40.2423 78.9028 41.038 87.6643 44.7872 97.9277C46.0301 101.294 47.4652 104.585 49.0854 107.787C52.3311 114.247 56.4588 120.871 61.1686 127.118C56.5175 121.074 52.4452 114.607 49.0054 107.801Z" fill="white" fill-opacity="0.05"/>
<path d="M3.95779 75.3249C9.44807 77.7027 15.1841 82.1011 20.3407 87.7829L47.3569 65.5289C49.496 63.768 52.1804 62.4968 55.4101 61.7153C62.7278 59.9524 72.7804 60.7802 85.2874 64.1788C97.919 67.6114 107.388 67.7541 113.435 64.6004C113.801 64.4101 114.143 64.2005 114.484 63.984L115.759 62.9342C119.281 60.0337 120.94 55.5228 120.585 49.7215C120.279 44.8558 118.57 39.2519 115.712 33.5623C114.083 30.3393 112.203 27.2494 110.089 24.3212C103.829 15.613 96.0086 8.78454 88.6332 5.59025L3.95779 75.3249Z" fill="white" fill-opacity="0.05"/>
<path d="M115.761 62.9373L31.0879 132.667L31.2421 132.538L115.915 62.807C115.864 62.8512 115.813 62.8942 115.761 62.9373Z" fill="white" fill-opacity="0.05"/>
<path d="M115.915 62.8071L31.2422 132.532C31.5002 132.317 31.7459 132.087 31.982 131.851L116.655 62.12C116.416 62.3572 116.17 62.5841 115.915 62.8009" fill="white" fill-opacity="0.05"/>
<path d="M116.654 62.1261L31.9814 131.857C32.2048 131.634 32.4251 131.401 32.6242 131.164L117.297 61.4344C117.092 61.6722 116.877 61.9038 116.653 62.1265" fill="white" fill-opacity="0.05"/>
<path d="M117.296 61.4345L32.624 131.164C32.8212 130.935 33.0105 130.698 33.1902 130.455L117.863 60.7238C117.684 60.9671 117.494 61.2041 117.297 61.4341" fill="white" fill-opacity="0.05"/>
<path d="M117.863 60.7235L33.1904 130.455C33.3657 130.217 33.5336 129.973 33.694 129.721L118.367 59.9895C118.208 60.2417 118.04 60.4864 117.863 60.7235Z" fill="white" fill-opacity="0.05"/>
<path d="M118.367 59.9896L33.6943 129.721C33.8481 129.473 33.9989 129.217 34.1466 128.953L118.82 59.2229C118.678 59.4841 118.528 59.7396 118.367 59.9896Z" fill="white" fill-opacity="0.05"/>
<path d="M118.815 59.2246L34.1416 128.955C34.2842 128.693 34.418 128.424 34.5436 128.149L119.217 58.419C119.092 58.6937 118.958 58.9622 118.815 59.2246Z" fill="white" fill-opacity="0.05"/>
<path d="M119.217 58.419L34.5439 128.149C34.6716 127.87 34.7897 127.584 34.8991 127.289L119.573 57.5585C119.462 57.851 119.344 58.1365 119.217 58.419Z" fill="white" fill-opacity="0.05"/>
<path d="M119.574 57.5618L34.9004 127.292C35.0144 126.992 35.1181 126.684 35.2137 126.37L119.887 56.6397C119.791 56.9532 119.687 57.2606 119.574 57.5618Z" fill="white" fill-opacity="0.05"/>
<path d="M119.887 56.6397L35.2178 126.368C35.3176 126.04 35.4077 125.704 35.4878 125.361L120.161 55.6307C120.081 55.9735 119.991 56.3093 119.891 56.6382" fill="white" fill-opacity="0.05"/>
<path d="M120.157 55.6323L35.4834 125.363C35.5677 124.995 35.6417 124.62 35.7053 124.236L120.384 54.5038C120.321 54.8875 120.247 55.263 120.162 55.6304" fill="white" fill-opacity="0.05"/>
<path d="M120.384 54.5037L35.7109 124.234C35.7792 123.809 35.8341 123.374 35.8755 122.93L120.549 53.1993C120.508 53.6432 120.453 54.078 120.384 54.5037Z" fill="white" fill-opacity="0.05"/>
<path d="M120.543 53.2011L35.8682 122.927C35.9147 122.422 35.9427 121.904 35.952 121.37L120.628 51.6466C120.617 52.1794 120.59 52.6986 120.544 53.2043" fill="white" fill-opacity="0.05"/>
<path d="M120.628 51.6469L35.9551 121.378C35.9651 120.755 35.9502 120.115 35.9103 119.458L35.9018 119.33L120.573 49.5946L120.581 49.7209C120.622 50.3791 120.636 51.0193 120.626 51.6415" fill="white" fill-opacity="0.05"/>
<path d="M120.573 49.5945L35.9004 119.327C35.8227 118.205 35.6818 117.089 35.4784 115.983L120.151 46.2518C120.355 47.358 120.496 48.4747 120.574 49.5967" fill="white" fill-opacity="0.05"/>
<path d="M120.152 46.2521L35.4785 115.983C34.917 112.883 33.8697 109.573 32.3943 106.191L117.068 36.461C118.541 39.8432 119.59 43.1527 120.152 46.2521Z" fill="white" fill-opacity="0.05"/>
<path d="M117.068 36.461L32.3934 106.192C31.9742 105.231 31.5213 104.265 31.0347 103.296C30.744 102.719 30.443 102.143 30.1317 101.566L114.805 31.836C115.117 32.4126 115.418 32.9886 115.708 33.5643C116.194 34.5333 116.647 35.499 117.067 36.4614" fill="white" fill-opacity="0.05"/>
<path d="M114.806 31.8357L30.1327 101.566C29.5453 100.48 28.9159 99.3923 28.2493 98.3096L112.922 28.5783C113.589 29.6621 114.217 30.7479 114.806 31.8357Z" fill="white" fill-opacity="0.05"/>
<path d="M112.922 28.5784L28.2492 98.3097C27.6874 97.399 27.0992 96.4918 26.4846 95.588L111.158 25.8578C111.773 26.7605 112.361 27.6674 112.922 28.5784Z" fill="white" fill-opacity="0.05"/>
<path d="M111.159 25.8576L26.4853 95.5878C26.1361 95.0744 25.7784 94.5632 25.4122 94.0544C25.2049 93.7657 24.9953 93.4786 24.7835 93.1932L109.457 23.463C109.669 23.7481 109.879 24.0352 110.086 24.3241C110.452 24.833 110.81 25.3442 111.159 25.8576Z" fill="white" fill-opacity="0.05"/>
<path d="M109.457 23.4628L24.7829 93.192C24.2474 92.47 23.7017 91.7614 23.146 91.0663L107.819 21.3361C108.375 22.0281 108.92 22.7366 109.456 23.4618" fill="white" fill-opacity="0.05"/>
<path d="M107.82 21.3375L23.1467 91.0677C22.624 90.4142 22.0932 89.7746 21.5545 89.1489L106.228 19.4176C106.766 20.0433 107.297 20.6833 107.82 21.3375Z" fill="white" fill-opacity="0.05"/>
<path d="M106.227 19.4173L21.5539 89.1487C21.0431 88.555 20.526 87.9742 20.0027 87.4063L104.68 17.6745C105.203 18.2417 105.72 18.8221 106.231 19.4158" fill="white" fill-opacity="0.05"/>
<path d="M104.68 17.6745L20.0071 87.4047C19.5045 86.8561 18.9964 86.3224 18.4828 85.8037L103.15 16.0686C103.664 16.5901 104.172 17.1242 104.674 17.6707" fill="white" fill-opacity="0.05"/>
<path d="M103.149 16.0688L18.4784 85.8055C17.9836 85.3027 17.4848 84.8124 16.9819 84.3345L101.655 14.6043C102.155 15.0835 102.653 15.5734 103.151 16.0742" fill="white" fill-opacity="0.05"/>
<path d="M101.655 14.6041L16.982 84.3343C16.4935 83.8691 16.002 83.4168 15.5074 82.9773L100.181 13.2471C100.675 13.6882 101.167 14.1409 101.656 14.6052" fill="white" fill-opacity="0.05"/>
<path d="M100.181 13.2473L15.5075 82.9775C15.0247 82.5435 14.5365 82.1237 14.0428 81.7181L98.7126 11.9879C99.2025 12.3966 99.6907 12.8164 100.177 13.2474" fill="white" fill-opacity="0.05"/>
<path d="M98.7127 11.988L14.0397 81.7193C13.5558 81.3182 13.0712 80.9296 12.5859 80.5535L97.2593 10.8232C97.7451 11.1984 98.2296 11.5867 98.7127 11.988Z" fill="white" fill-opacity="0.05"/>
<path d="M97.2623 10.8219L12.5899 80.5517C12.1073 80.1786 11.623 79.8176 11.1369 79.4685L95.8103 9.73826C96.2965 10.0856 96.7809 10.4467 97.2633 10.8215" fill="white" fill-opacity="0.05"/>
<path d="M95.8094 9.73858L11.136 79.4688C10.6495 79.1207 10.1617 78.7848 9.67268 78.4612L94.3461 8.73099C94.8338 9.05345 95.3216 9.3893 95.8094 9.73858Z" fill="white" fill-opacity="0.05"/>
<path d="M94.3467 8.73082L9.67333 78.461C9.17694 78.1328 8.68042 77.8188 8.18383 77.519L92.8572 7.78878C93.3533 8.0871 93.8498 8.40113 94.3467 8.73082Z" fill="white" fill-opacity="0.05"/>
<path d="M92.8575 7.78854L8.1841 77.5188C7.67081 77.2088 7.15758 76.9147 6.64442 76.6365L91.3178 6.90623C91.8303 7.18478 92.3435 7.47887 92.8575 7.78854Z" fill="white" fill-opacity="0.05"/>
<path d="M91.3178 6.9065L6.64434 76.6367C6.10448 76.3454 5.5652 76.0701 5.02646 75.8109L89.6999 6.08064C90.2378 6.33772 90.7771 6.61301 91.3178 6.9065Z" fill="white" fill-opacity="0.05"/>
<path d="M89.6998 6.08045L5.02642 75.8107C4.66958 75.6405 4.31319 75.4783 3.95727 75.3241L88.6303 5.59282C88.9862 5.74704 89.3427 5.90959 89.6998 6.08045Z" fill="white" fill-opacity="0.05"/>
<path d="M-37.3896 135.173L47.2838 65.4431C45.0525 67.2813 43.4234 69.6426 42.3965 72.527C40.1468 78.8593 40.9431 87.6425 44.7017 97.9318C45.946 101.302 47.3831 104.598 49.0057 107.803L-35.6677 177.534C-37.2899 174.328 -38.7269 171.032 -39.9717 167.662C-43.7288 157.373 -44.5247 148.595 -42.2769 142.257C-41.2537 139.382 -39.62 137.012 -37.3896 135.173Z" fill="white" fill-opacity="0.05"/>
<path d="M49.0049 107.802L-35.6685 177.532C-36.5093 175.859 -37.2905 174.196 -38.007 172.554L46.6664 102.824C47.3847 104.464 48.1637 106.128 49.0049 107.802Z" fill="white" fill-opacity="0.05"/>
<path d="M46.6663 102.824L-38.0071 172.554C-38.7304 170.9 -39.3869 169.265 -39.9722 167.661C-41.304 164.014 -42.2636 160.556 -42.8487 157.33L41.8247 87.6002C42.4088 90.8266 43.3695 94.2842 44.7012 97.9311C45.2847 99.536 45.9397 101.167 46.6663 102.824Z" fill="white" fill-opacity="0.05"/>
<path d="M41.8238 87.5991L-42.8496 157.329C-43.1378 155.758 -43.3381 154.172 -43.4494 152.578L41.2241 82.8475C41.3352 84.4413 41.5355 86.0277 41.8238 87.5991Z" fill="white" fill-opacity="0.05"/>
<path d="M41.2242 82.8474L-43.4492 152.578C-43.5148 151.597 -43.5395 150.644 -43.5233 149.718L41.1512 79.9875C41.1348 80.9125 41.1595 81.8657 41.2253 82.847" fill="white" fill-opacity="0.05"/>
<path d="M41.1513 79.9877L-43.5244 149.715C-43.5125 148.99 -43.4745 148.283 -43.4105 147.594L41.263 77.8639C41.1989 78.5527 41.1609 79.2597 41.149 79.9849" fill="white" fill-opacity="0.05"/>
<path d="M41.264 77.8669L-43.4082 147.6C-43.354 147.012 -43.2811 146.436 -43.1897 145.874L41.4833 76.1428C41.3919 76.7051 41.3192 77.2808 41.2652 77.8701" fill="white" fill-opacity="0.05"/>
<path d="M41.4826 76.1398L-43.1904 145.871C-43.1086 145.365 -43.0117 144.871 -42.8995 144.388L41.7735 74.6566C41.6614 75.1395 41.5644 75.6338 41.4826 76.1398Z" fill="white" fill-opacity="0.05"/>
<path d="M41.7736 74.6564L-42.8994 144.388C-42.7959 143.944 -42.6797 143.51 -42.551 143.086L42.1232 73.3579C41.9947 73.7825 41.8786 74.2164 41.7748 74.6596" fill="white" fill-opacity="0.05"/>
<path d="M42.1232 73.3578L-42.5498 143.089C-42.4644 142.808 -42.3732 142.531 -42.2764 142.258C-42.2357 142.142 -42.1931 142.028 -42.1505 141.914L42.5225 72.1827C42.4799 72.2969 42.4377 72.4122 42.397 72.5281C42.2999 72.7999 42.2088 73.0768 42.1236 73.3589" fill="white" fill-opacity="0.05"/>
<path d="M42.5207 72.1798L-42.1523 141.911C-42.0112 141.535 -41.8594 141.17 -41.6969 140.817L42.975 71.0858C42.8136 71.4419 42.6618 71.8067 42.5196 72.1802" fill="white" fill-opacity="0.05"/>
<path d="M42.9766 71.0852L-41.6953 140.816C-41.537 140.467 -41.3681 140.127 -41.1886 139.796L43.4829 70.0602C43.3033 70.3912 43.1339 70.7311 42.9747 71.0799" fill="white" fill-opacity="0.05"/>
<path d="M43.483 70.0601L-41.1904 139.79C-41.0123 139.462 -40.8243 139.142 -40.6267 138.83L44.0468 69.0994C43.8493 69.4101 43.6614 69.7303 43.483 70.0601Z" fill="white" fill-opacity="0.05"/>
<path d="M44.0484 69.1048L-40.625 138.835C-40.4269 138.519 -40.2175 138.213 -39.9966 137.918L44.6768 68.1876C44.4594 68.4836 44.2499 68.7894 44.0484 69.1048Z" fill="white" fill-opacity="0.05"/>
<path d="M44.6773 68.1877L-39.9961 137.918C-39.7721 137.615 -39.5379 137.322 -39.2935 137.037L45.3799 67.307C45.136 67.5907 44.9018 67.8843 44.6773 68.1877Z" fill="white" fill-opacity="0.05"/>
<path d="M45.3795 67.3071L-39.2939 137.037C-39.0386 136.741 -38.7726 136.454 -38.4959 136.178L46.1772 66.4467C45.9001 66.7241 45.6346 67.0096 45.3795 67.3071Z" fill="white" fill-opacity="0.05"/>
<path d="M46.1771 66.4466L-38.498 136.179C-38.2065 135.887 -37.902 135.607 -37.5846 135.338L47.0888 65.6081C46.7721 65.8769 46.4675 66.1566 46.175 66.4474" fill="white" fill-opacity="0.05"/>
<path d="M47.0885 65.6081L-37.585 135.338C-37.5208 135.283 -37.4553 135.229 -37.3897 135.175L47.2837 65.4445C47.2181 65.4988 47.1526 65.5531 47.0885 65.6081Z" fill="white" fill-opacity="0.05"/>
<path d="M61.1695 127.118L-23.5035 196.849C-28.1547 190.806 -32.2272 184.338 -35.6672 177.532L49.0063 107.802C52.4461 114.608 56.5184 121.075 61.1695 127.118Z" fill="white" fill-opacity="0.05"/>
<path d="M61.1693 127.118L-23.5037 196.85C-23.9386 196.284 -24.368 195.715 -24.792 195.143L59.8814 125.413C60.3056 125.985 60.735 126.554 61.1697 127.119" fill="white" fill-opacity="0.05"/>
<path d="M59.8818 125.413L-24.7912 195.145C-25.7787 193.814 -26.7347 192.468 -27.6592 191.108L57.0127 121.377C57.9379 122.735 58.8942 124.08 59.8818 125.413Z" fill="white" fill-opacity="0.05"/>
<path d="M57.0125 121.376L-27.6594 191.107C-28.7235 189.543 -29.7429 187.968 -30.7177 186.382L53.9557 116.652C54.9307 118.234 55.9571 119.81 57.0136 121.375" fill="white" fill-opacity="0.05"/>
<path d="M53.9518 116.653L-30.7212 186.384C-31.9069 184.464 -33.0211 182.532 -34.063 180.608L50.6105 110.878C51.6523 112.802 52.7683 114.732 53.9522 116.654" fill="white" fill-opacity="0.05"/>
<path d="M50.6109 110.877L-34.0625 180.607C-34.619 179.579 -35.154 178.555 -35.6673 177.534L49.0061 107.803C49.5187 108.825 50.0537 109.849 50.6109 110.877Z" fill="white" fill-opacity="0.05"/>
</g>
<defs>
<filter id="filter0_f_243_3427" x="-47.5283" y="1.59033" width="172.252" height="199.259" filterUnits="userSpaceOnUse" color-interpolation-filters="sRGB">
<feFlood flood-opacity="0" result="BackgroundImageFix"/>
<feBlend mode="normal" in="SourceGraphic" in2="BackgroundImageFix" result="shape"/>
<feGaussianBlur stdDeviation="2" result="effect1_foregroundBlur_243_3427"/>
</filter>
</defs>
</svg>
