<svg width="137" height="107" viewBox="0 0 137 107" fill="none" xmlns="http://www.w3.org/2000/svg">
<g style="mix-blend-mode:overlay" filter="url(#filter0_f_243_3502)">
<path d="M23.6004 29.2341L97.9338 10.1602C94.5969 11.0163 91.3874 13.2971 88.4683 16.9135C87.0275 18.7287 85.7558 20.6715 84.669 22.7178C82.4068 26.9099 80.5135 31.9371 79.1621 37.423L4.82861 56.496C6.17878 51.0151 8.06847 45.9894 10.3362 41.7955C11.424 39.7471 12.6971 37.8024 14.1395 35.9857C17.0535 32.3671 20.264 30.093 23.6004 29.2341Z" fill="white" fill-opacity="0.05"/>
<path d="M23.6008 29.2335L97.9342 10.1596C94.5973 11.0158 91.3878 13.2965 88.4687 16.9129C87.8865 17.6342 87.3192 18.4062 86.7668 19.2289L12.4332 38.3018C12.986 37.4816 13.5533 36.7097 14.1351 35.9858C17.0539 32.3666 20.2639 30.0896 23.6008 29.2335Z" fill="white" fill-opacity="0.05"/>
<path d="M12.4334 38.3019L86.7669 19.229C86.0381 20.3101 85.3389 21.4729 84.6695 22.7174L84.6551 22.7438L10.3216 41.8167L10.3359 41.7903C11.0038 40.5519 11.7029 39.3891 12.4334 38.3019Z" fill="white" fill-opacity="0.05"/>
<path d="M10.3218 41.8168L84.6553 22.7438C84.0903 23.792 83.5497 24.8898 83.0335 26.0371L8.70001 45.11C9.21585 43.9647 9.75645 42.8669 10.3218 41.8168Z" fill="white" fill-opacity="0.05"/>
<path d="M8.69986 45.1101L83.0334 26.0372C82.5727 27.061 82.1329 28.1203 81.7141 29.2152L7.38061 48.2881C7.79894 47.1946 8.23869 46.1353 8.69986 45.1101Z" fill="white" fill-opacity="0.05"/>
<path d="M7.38081 48.2881L81.7143 29.2152C81.3319 30.2179 80.9683 31.2465 80.6235 32.301L6.29016 51.3748C6.63364 50.3206 6.9972 49.2917 7.38081 48.2881Z" fill="white" fill-opacity="0.05"/>
<path d="M6.28983 51.3748L80.6232 32.3009C80.3048 33.2783 80.0049 34.2752 79.7235 35.2915L5.38999 54.3644C5.67322 53.3517 5.97317 52.3552 6.28983 51.3748Z" fill="white" fill-opacity="0.05"/>
<path d="M5.38713 54.3648L79.7206 35.2919C79.5254 35.9926 79.3398 36.7011 79.1638 37.4176L4.83024 56.4905C5.00688 55.774 5.19275 55.067 5.38786 54.3696" fill="white" fill-opacity="0.05"/>
<path d="M10.2828 41.721C11.3714 39.6716 12.6453 37.7258 14.0886 35.9079C18.4414 30.5111 23.4404 28.0914 28.5416 28.9118C33.0952 29.6417 37.6812 32.8916 42.1724 38.5714C47.1629 44.8811 52.0065 54.1793 56.5683 66.2007C61.1628 78.3091 66.1053 86.9175 71.2569 91.7845C75.6549 95.9404 80.1387 97.2151 84.2219 95.4739C87.0665 94.262 89.6137 91.6235 91.6042 87.9315C92.6848 85.9241 93.6031 83.6111 94.3171 81.0426C96.3625 73.6794 96.4169 65.2628 94.4616 57.9523C96.4772 65.27 96.4235 73.7107 94.3716 81.0943C93.6564 83.6679 92.7366 85.9898 91.6533 87.9986C89.6532 91.6979 87.0962 94.3476 84.2445 95.5645C80.1548 97.3134 75.6581 96.031 71.2341 91.8636C66.0701 86.9849 61.1185 78.3615 56.5163 66.2348C51.9564 54.2257 47.1227 44.9415 42.1402 38.6403C37.6612 32.9761 33.0891 29.7348 28.5504 29.0074C23.4595 28.1903 18.4743 30.6049 14.1312 35.9896C12.6917 37.8048 11.4213 39.7474 10.3356 41.7934C8.07362 45.9864 6.18014 51.0127 4.82807 56.4939C6.12176 50.9548 8.01772 45.9194 10.2828 41.721Z" fill="white" fill-opacity="0.05"/>
<path d="M23.5767 29.1407L97.9102 10.0678C99.5331 9.64779 101.226 9.56929 102.88 9.83727C107.434 10.5682 112.02 13.818 116.511 19.4978C121.502 25.8075 126.345 35.1057 130.907 47.1271C135.502 59.2355 140.444 67.8439 145.596 72.7109C149.502 76.4024 153.476 77.8212 157.177 76.8714L82.8438 95.9443C79.1429 96.8941 75.1686 95.4743 71.2621 91.7839C66.1087 86.9172 61.1681 78.3085 56.5734 66.1991C52.0116 54.1777 47.1683 44.8814 42.1775 38.5698C37.6863 32.89 33.1003 29.6401 28.5467 28.9102C26.8921 28.6419 25.1996 28.7204 23.5767 29.1407Z" fill="white" fill-opacity="0.05"/>
<path d="M23.5766 29.1408L97.9101 10.0679C98.2836 9.97183 98.6597 9.89375 99.0385 9.83272L24.709 28.906C24.3297 28.9642 23.9536 29.0423 23.5804 29.1402" fill="white" fill-opacity="0.05"/>
<path d="M24.7091 28.9061L99.0415 9.83239C99.4132 9.77536 99.7849 9.73382 100.157 9.70778L25.8242 28.7806C25.4508 28.8049 25.0791 28.8468 24.7091 28.9061Z" fill="white" fill-opacity="0.05"/>
<path d="M25.8242 28.7804L100.161 9.70691C100.493 9.68517 100.825 9.67715 101.158 9.68286L26.82 28.7565C26.4874 28.7514 26.1551 28.7616 25.8242 28.7804Z" fill="white" fill-opacity="0.05"/>
<path d="M26.8203 28.7565L101.154 9.68356C101.457 9.68931 101.762 9.70561 102.066 9.73736L27.7329 28.8103C27.4287 28.7814 27.1244 28.7651 26.8203 28.7565Z" fill="white" fill-opacity="0.05"/>
<path d="M27.7324 28.8075L102.066 9.73459C102.337 9.75757 102.609 9.79184 102.88 9.8374L102.914 9.84287L28.5813 28.9138L28.5475 28.9083C28.2762 28.8646 28.0046 28.83 27.7329 28.8045" fill="white" fill-opacity="0.05"/>
<path d="M28.5811 28.9138L102.915 9.83991C103.188 9.88513 103.461 9.93821 103.736 10.0047L29.4012 29.0787C29.1276 29.016 28.854 28.9611 28.5802 28.9139" fill="white" fill-opacity="0.05"/>
<path d="M29.4012 29.0787L103.735 10.0057C103.999 10.0669 104.263 10.1359 104.528 10.2135L30.1908 29.2851C29.9256 29.2076 29.6617 29.1385 29.3971 29.0774" fill="white" fill-opacity="0.05"/>
<path d="M30.1904 29.2853L104.524 10.2124C104.782 10.2881 105.041 10.3714 105.3 10.4635L30.9702 29.5359C30.7117 29.4447 30.4523 29.3605 30.1942 29.2847" fill="white" fill-opacity="0.05"/>
<path d="M30.9707 29.5356L105.304 10.4626C105.559 10.5527 105.815 10.6514 106.072 10.7587L31.7382 29.8326C31.4821 29.7256 31.2263 29.6272 30.9707 29.5356Z" fill="white" fill-opacity="0.05"/>
<path d="M31.7384 29.8329L106.072 10.759C106.327 10.8659 106.582 10.9802 106.838 11.1019L32.5041 30.1748C32.2486 30.0531 31.9934 29.9391 31.7384 29.8329Z" fill="white" fill-opacity="0.05"/>
<path d="M32.5039 30.1747L106.837 11.1018C107.095 11.2251 107.352 11.3562 107.609 11.4951L33.2765 30.5679C33.0184 30.4292 32.7609 30.2981 32.5039 30.1747Z" fill="white" fill-opacity="0.05"/>
<path d="M33.2763 30.568L107.609 11.4952C107.871 11.6365 108.134 11.7863 108.396 11.9444L34.0624 31.0173C33.8002 30.8598 33.5381 30.7101 33.2763 30.568Z" fill="white" fill-opacity="0.05"/>
<path d="M34.0629 31.017L108.396 11.9441C108.667 12.1074 108.937 12.2792 109.207 12.4594L34.874 31.5342C34.6037 31.354 34.3335 31.1823 34.0632 31.0189" fill="white" fill-opacity="0.05"/>
<path d="M34.8735 31.5343L109.207 12.4614C109.488 12.6489 109.769 12.8462 110.051 13.053L35.7173 32.126C35.4359 31.9191 35.1546 31.7219 34.8735 31.5343Z" fill="white" fill-opacity="0.05"/>
<path d="M35.7172 32.1239L110.051 13.051C110.347 13.2678 110.643 13.496 110.939 13.7357L36.6054 32.8086C36.3101 32.5702 36.014 32.342 35.7172 32.1239Z" fill="white" fill-opacity="0.05"/>
<path d="M36.6049 32.8087L110.938 13.7358C111.255 13.9915 111.572 14.2595 111.89 14.5397L37.5561 33.6127C37.2394 33.3324 36.9223 33.0644 36.6049 32.8087Z" fill="white" fill-opacity="0.05"/>
<path d="M37.5566 33.6129L111.89 14.54C112.236 14.8443 112.581 15.1639 112.925 15.4987L38.5916 34.5717C38.2472 34.2368 37.9022 33.9172 37.5566 33.6129Z" fill="white" fill-opacity="0.05"/>
<path d="M38.5913 34.5714L112.925 15.4985C113.309 15.8699 113.692 16.2592 114.074 16.6664L39.7409 35.7394C39.3551 35.3333 38.9719 34.944 38.5913 34.5714Z" fill="white" fill-opacity="0.05"/>
<path d="M39.743 35.7392L114.077 16.6672C114.515 17.133 114.953 17.6216 115.389 18.1329L41.0559 37.2058C40.6185 36.6914 40.1809 36.2028 39.7431 35.7401" fill="white" fill-opacity="0.05"/>
<path d="M41.0556 37.2045L115.389 18.1316C115.763 18.5704 116.137 19.0258 116.511 19.4976C116.652 19.6769 116.794 19.8581 116.935 20.0412L42.6014 39.1142C42.4594 38.9305 42.3181 38.7493 42.1774 38.5706C41.8042 38.0986 41.4302 37.6433 41.0556 37.2045Z" fill="white" fill-opacity="0.05"/>
<path d="M42.6015 39.1144L116.935 20.0415C117.561 20.8553 118.184 21.716 118.804 22.6236L44.4702 41.6928C43.8497 40.7858 43.2266 39.9251 42.6009 39.1106" fill="white" fill-opacity="0.05"/>
<path d="M44.4702 41.693L118.804 22.6201C119.621 23.8129 120.431 25.0856 121.233 26.4383L46.8998 45.5112C46.0934 44.1598 45.2835 42.887 44.4702 41.693Z" fill="white" fill-opacity="0.05"/>
<path d="M46.9047 45.5144L121.238 26.4414C122.588 28.7053 123.922 31.1883 125.24 33.8905L50.9037 52.9639C49.5867 50.2628 48.2528 47.7797 46.9018 45.5148" fill="white" fill-opacity="0.05"/>
<path d="M50.9033 52.9635L125.237 33.8906C127.166 37.8444 129.055 42.2567 130.904 47.1274C132.366 50.981 133.862 54.477 135.391 57.6153L61.0571 76.6883C59.5329 73.5511 58.0383 70.0547 56.5732 66.199C54.7271 61.3349 52.838 56.9226 50.906 52.9621" fill="white" fill-opacity="0.05"/>
<path d="M61.06 76.6881L135.394 57.6152C136.451 59.7868 137.524 61.7837 138.611 63.6058L64.2773 82.6797C63.191 80.8575 62.1185 78.8603 61.06 76.6881Z" fill="white" fill-opacity="0.05"/>
<path d="M64.2774 82.6793L138.612 63.6053C139.259 64.6924 139.911 65.7166 140.569 66.678L66.2342 85.7491C65.5776 84.7882 64.9253 83.7643 64.2772 82.6774" fill="white" fill-opacity="0.05"/>
<path d="M66.2343 85.7494L140.568 66.6765C141.069 67.4144 141.577 68.1151 142.09 68.7788L67.7564 87.8517C67.2458 87.1889 66.7384 86.4882 66.2343 85.7494Z" fill="white" fill-opacity="0.05"/>
<path d="M67.7567 87.8539L142.09 68.781C142.508 69.3256 142.929 69.8449 143.351 70.339L69.0148 89.4123C68.5929 88.9188 68.1726 88.3995 67.7539 87.8544" fill="white" fill-opacity="0.05"/>
<path d="M69.0146 89.412L143.348 70.3391C143.702 70.7532 144.057 71.1511 144.413 71.5326L70.0798 90.6055C69.7235 90.2266 69.3684 89.8288 69.0146 89.412Z" fill="white" fill-opacity="0.05"/>
<path d="M70.082 90.6005L144.416 71.5276C144.725 71.8606 145.04 72.1797 145.358 72.4849L71.0246 91.5579C70.7099 91.2521 70.3957 90.9329 70.082 90.6005Z" fill="white" fill-opacity="0.05"/>
<path d="M71.0249 91.5578L145.358 72.4848C145.438 72.5608 145.517 72.637 145.596 72.711C145.797 72.9012 145.997 73.0847 146.199 73.2621L71.8651 92.3351C71.6646 92.1578 71.4636 91.9741 71.2624 91.784C71.1831 91.7099 71.1044 91.6338 71.0249 91.5578Z" fill="white" fill-opacity="0.05"/>
<path d="M71.8647 92.3351L146.198 73.2622C146.453 73.4868 146.708 73.7022 146.963 73.9086L72.6296 92.9815C72.3736 92.7759 72.1186 92.5604 71.8647 92.3351Z" fill="white" fill-opacity="0.05"/>
<path d="M72.6298 92.9814L146.963 73.9084C147.202 74.1006 147.44 74.2843 147.679 74.4597L73.3452 93.5326C73.1068 93.3579 72.8684 93.1741 72.6298 92.9814Z" fill="white" fill-opacity="0.05"/>
<path d="M73.3452 93.5326L147.679 74.4597C147.905 74.6265 148.132 74.7855 148.359 74.9368L74.0259 94.0097C73.7989 93.8585 73.572 93.6994 73.3452 93.5326Z" fill="white" fill-opacity="0.05"/>
<path d="M74.0258 94.0106L148.359 74.9377C148.576 75.0829 148.791 75.2223 149.013 75.353L74.6796 94.426C74.4653 94.2941 74.2431 94.1556 74.0258 94.0106Z" fill="white" fill-opacity="0.05"/>
<path d="M74.6796 94.4262L149.013 75.3532C149.227 75.4807 149.439 75.6015 149.651 75.7158L75.3175 94.7887C75.1058 94.6738 74.8932 94.553 74.6796 94.4262Z" fill="white" fill-opacity="0.05"/>
<path d="M75.3144 94.789L149.648 75.716C149.859 75.8271 150.063 75.9335 150.27 76.0316L75.9365 95.1054C75.7275 95.0083 75.5201 94.9028 75.3144 94.789Z" fill="white" fill-opacity="0.05"/>
<path d="M75.9366 95.1058L150.27 76.032C150.479 76.1297 150.68 76.2221 150.884 76.307L76.5503 95.38C76.3432 95.2954 76.1408 95.2034 75.9366 95.1058Z" fill="white" fill-opacity="0.05"/>
<path d="M76.5502 95.3798L150.884 76.3069C151.091 76.3914 151.295 76.4703 151.496 76.5435L77.162 95.6164C76.9568 95.5439 76.7529 95.465 76.5502 95.3798Z" fill="white" fill-opacity="0.05"/>
<path d="M77.1621 95.6166L151.496 76.5437C151.701 76.6168 151.905 76.6824 152.108 76.7405L77.7745 95.8134C77.5712 95.7535 77.3671 95.6879 77.1621 95.6166Z" fill="white" fill-opacity="0.05"/>
<path d="M77.7778 95.8153L152.111 76.7424C152.32 76.8034 152.528 76.8577 152.736 76.9053L78.4026 95.9792C78.1941 95.9311 77.9858 95.8765 77.7778 95.8153Z" fill="white" fill-opacity="0.05"/>
<path d="M78.4029 95.9799L152.736 76.906C152.951 76.9555 153.164 76.9974 153.378 77.0324L79.0442 96.1054C78.8316 96.0734 78.6179 96.0315 78.4029 95.9799Z" fill="white" fill-opacity="0.05"/>
<path d="M79.0439 96.1051L153.377 77.0322C153.599 77.0679 153.822 77.0967 154.044 77.117L79.71 96.19C79.4885 96.1697 79.2659 96.1418 79.0439 96.1051Z" fill="white" fill-opacity="0.05"/>
<path d="M79.7099 96.1898L154.043 77.1169C154.278 77.1391 154.512 77.1517 154.744 77.1567L80.4108 96.2296C80.1786 96.2258 79.945 96.2126 79.7099 96.1898Z" fill="white" fill-opacity="0.05"/>
<path d="M80.4111 96.2296L154.745 77.1567C154.999 77.161 155.252 77.1545 155.503 77.1372L81.1699 96.2101C80.9181 96.2261 80.6652 96.2327 80.4111 96.2296Z" fill="white" fill-opacity="0.05"/>
<path d="M81.1699 96.2118L155.503 77.1389C155.786 77.12 156.068 77.088 156.349 77.043L82.0168 96.1216C81.7362 96.1647 81.4541 96.1963 81.1706 96.2166" fill="white" fill-opacity="0.05"/>
<path d="M82.017 96.1218L156.35 77.0479C156.628 77.0053 156.904 76.9466 157.178 76.8763L82.8445 95.9493C82.57 96.0192 82.2941 96.0767 82.017 96.1218Z" fill="white" fill-opacity="0.05"/>
<path d="M157.2 76.9648L82.866 96.0377C83.3407 95.9155 83.8053 95.7571 84.2557 95.5638C87.1108 94.3503 89.6651 91.7019 91.6644 87.9979C92.7479 85.9901 93.6676 83.6672 94.3828 81.0936C96.4347 73.71 96.4884 65.2693 94.4727 57.9516L168.805 38.8788C170.822 46.1964 170.768 54.6371 168.716 62.0207C168.001 64.5942 167.081 66.9162 165.998 68.925C163.999 72.629 161.441 75.274 158.589 76.4908C158.139 76.6837 157.674 76.8421 157.2 76.9648Z" fill="white" fill-opacity="0.05"/>
<path d="M94.4731 57.9525L168.806 38.8798C168.844 39.0154 168.88 39.1523 168.916 39.2883L94.5825 58.3622C94.547 58.2252 94.5104 58.0883 94.4731 57.9525Z" fill="white" fill-opacity="0.05"/>
<path d="M94.5826 58.3622L168.916 39.2883C169.025 39.7007 169.127 40.1166 169.223 40.5361L94.8894 59.609C94.7941 59.1904 94.6914 58.7739 94.5826 58.3622Z" fill="white" fill-opacity="0.05"/>
<path d="M94.8896 59.6093L169.223 40.5363C169.314 40.9328 169.399 41.3317 169.478 41.7331L95.1441 60.806C95.065 60.4046 94.9802 60.0057 94.8896 59.6093Z" fill="white" fill-opacity="0.05"/>
<path d="M95.1435 60.8061L169.477 41.7331C169.554 42.1278 169.626 42.5239 169.692 42.9213L95.3587 61.9933C95.293 61.595 95.2213 61.199 95.1434 60.8051" fill="white" fill-opacity="0.05"/>
<path d="M95.3587 61.9933L169.693 42.9212C169.76 43.3199 169.822 43.7205 169.878 44.1229L95.5442 63.1958C95.4895 62.7933 95.4281 62.3927 95.3598 61.9941" fill="white" fill-opacity="0.05"/>
<path d="M95.5419 63.196L169.878 44.1226C169.934 44.5289 169.985 44.9379 170.029 45.3469L95.6959 64.4208C95.6511 64.0108 95.6007 63.6024 95.5448 63.1956" fill="white" fill-opacity="0.05"/>
<path d="M95.6927 64.4213L170.026 45.3474C170.07 45.7632 170.11 46.1801 170.143 46.5982L95.8098 65.6711C95.7766 65.2523 95.7376 64.8357 95.6927 64.4213Z" fill="white" fill-opacity="0.05"/>
<path d="M95.8097 65.6714L170.143 46.5985C170.177 47.0229 170.205 47.448 170.227 47.8737L95.8945 66.9514C95.8724 66.5251 95.8444 66.1 95.8104 65.6761" fill="white" fill-opacity="0.05"/>
<path d="M95.8946 66.9513L170.228 47.8784C170.25 48.3106 170.266 48.743 170.276 49.1757L95.9463 68.2432C95.9362 67.8105 95.9203 67.378 95.8986 66.9459" fill="white" fill-opacity="0.05"/>
<path d="M95.9464 68.2433L170.28 49.1703C170.29 49.61 170.293 50.0503 170.289 50.4911L95.955 69.564C95.9573 69.1236 95.9544 68.6834 95.9464 68.2433Z" fill="white" fill-opacity="0.05"/>
<path d="M95.9547 69.5638L170.287 50.4959C170.284 50.9429 170.275 51.3902 170.259 51.8378L95.9256 70.9107C95.9417 70.4637 95.9511 70.0164 95.9535 69.5688" fill="white" fill-opacity="0.05"/>
<path d="M95.9249 70.9059L170.258 51.833C170.243 52.2871 170.22 52.7422 170.191 53.2004L95.8582 72.2731C95.8876 71.8202 95.9099 71.3645 95.9249 70.9059Z" fill="white" fill-opacity="0.05"/>
<path d="M95.8576 72.2682L170.19 53.1954C170.16 53.6594 170.123 54.1219 170.079 54.583L95.7464 73.6558C95.7905 73.1967 95.8276 72.7342 95.8576 72.2682Z" fill="white" fill-opacity="0.05"/>
<path d="M95.7463 73.6558L170.079 54.583C170.034 55.0564 169.981 55.5284 169.922 55.9989L95.588 75.0719C95.6453 74.6017 95.698 74.1297 95.7463 73.6558Z" fill="white" fill-opacity="0.05"/>
<path d="M95.5879 75.0719L169.921 55.999C169.86 56.4821 169.79 56.9635 169.713 57.4432L95.3796 76.5161C95.4569 76.0371 95.5263 75.5557 95.5879 75.0719Z" fill="white" fill-opacity="0.05"/>
<path d="M95.3795 76.5161L169.713 57.4432C169.634 57.9419 169.545 58.4375 169.447 58.93L95.1147 78.0028C95.2119 77.5104 95.3005 77.0148 95.3805 76.5159" fill="white" fill-opacity="0.05"/>
<path d="M95.1152 78.0027L169.449 58.9298C169.347 59.4422 169.237 59.9518 169.119 60.4586L94.7835 79.5279C94.8999 79.0221 95.01 78.5125 95.1137 77.9991" fill="white" fill-opacity="0.05"/>
<path d="M94.7834 79.5284L169.117 60.4555C168.994 60.9803 168.86 61.5013 168.716 62.0183L168.718 62.0268L94.3841 81.0998L94.3827 81.0912C94.5254 80.575 94.659 80.0541 94.7834 79.5284Z" fill="white" fill-opacity="0.05"/>
<path d="M94.3809 81.1037L168.714 62.0308C168.558 62.5898 168.393 63.1372 168.219 63.6731L93.8856 82.746C94.0622 82.2104 94.2273 81.6629 94.3809 81.1037Z" fill="white" fill-opacity="0.05"/>
<path d="M93.8852 82.746L168.219 63.6731C168.031 64.2453 167.833 64.8039 167.626 65.3488L93.2922 84.4217C93.4999 83.8781 93.6976 83.3195 93.8852 82.746Z" fill="white" fill-opacity="0.05"/>
<path d="M93.2923 84.4218L167.626 65.3489C167.398 65.9447 167.159 66.5223 166.907 67.0817L92.5733 86.1547C92.8252 85.5959 93.0649 85.0182 93.2923 84.4218Z" fill="white" fill-opacity="0.05"/>
<path d="M92.5732 86.1545L166.907 67.0816C166.621 67.7166 166.321 68.3265 166.005 68.9112L91.672 87.9841C91.9867 87.4002 92.2871 86.7903 92.5732 86.1545Z" fill="white" fill-opacity="0.05"/>
<path d="M91.6723 87.9843L166.006 68.9113L165.998 68.9261C165.61 69.646 165.201 70.3249 164.772 70.9626L90.4383 90.0356C90.8664 89.398 91.2753 88.7191 91.6648 87.999L91.6723 87.9843Z" fill="white" fill-opacity="0.05"/>
<path d="M90.4382 90.0355L164.772 70.9626C162.996 73.6039 160.889 75.5109 158.59 76.4918C158.139 76.6847 157.674 76.8432 157.2 76.9658L82.8664 96.0387C83.3411 95.9165 83.8057 95.7581 84.2561 95.5648C86.556 94.5848 88.6649 92.6764 90.4382 90.0355Z" fill="white" fill-opacity="0.05"/>
</g>
<defs>
<filter id="filter0_f_243_3502" x="0.828125" y="5.68115" width="173.463" height="94.6436" filterUnits="userSpaceOnUse" color-interpolation-filters="sRGB">
<feFlood flood-opacity="0" result="BackgroundImageFix"/>
<feBlend mode="normal" in="SourceGraphic" in2="BackgroundImageFix" result="shape"/>
<feGaussianBlur stdDeviation="2" result="effect1_foregroundBlur_243_3502"/>
</filter>
</defs>
</svg>
